<svg xmlns="http://www.w3.org/2000/svg" version="1.2" baseProfile="tiny" width="500" height="570" viewBox="0 0 800 1823" stroke-linecap="round" stroke-linejoin="round">
<g id="LAKSHADWEEP_DISTRICT_BDY">
<path d="M 376.06 1801.07 376.02 1801.09 375.97 1801.08 375.96 1801.07 375.89 1801 375.88 1800.93 375.93 1800.87 376.01 1800.85 376.05 1800.87 376.1 1800.92 376.08 1800.99 376.08 1801.03 376.06 1801.07 Z M 396.55 1817.34 396.18 1817.88 395.35 1818.67 394.8 1819.28 394.45 1819.87 393.44 1820.97 392.81 1821.48 392.22 1821.74 391.22 1821.91 390.28 1822 387.84 1821.72 386.73 1821.6 384.51 1821.15 382.38 1820.32 380.77 1819.83 379.98 1819.46 379.15 1819.06 378.81 1818.87 378.39 1818.57 378.19 1818.39 378.2 1818.39 377.88 1818.08 377.83 1817.92 377.87 1817.36 377.72 1816.68 377.49 1815.82 377.39 1815.46 377.36 1815.28 377.38 1815.16 377.46 1815.05 377.57 1814.96 377.69 1814.95 377.82 1814.98 377.94 1815.06 378.09 1815.19 378.27 1815.39 378.4 1815.49 378.6 1815.58 378.79 1815.65 378.95 1815.73 379.11 1815.89 379.27 1816.05 379.37 1816.44 379.44 1816.62 379.51 1816.75 379.62 1816.89 379.68 1817.01 379.67 1817.11 379.61 1817.17 379.53 1817.16 379.42 1817.08 379.3 1816.89 379.12 1816.69 378.96 1816.47 378.85 1816.36 378.61 1816.18 378.52 1816.06 378.37 1815.86 378.24 1815.74 378.16 1815.65 378.03 1815.62 377.93 1815.67 377.9 1815.76 377.9 1815.87 378 1816.03 378.21 1816.24 378.33 1816.43 378.42 1816.7 378.52 1816.91 378.74 1817.13 379.34 1817.52 379.77 1817.69 380.25 1817.77 381.23 1817.87 382.78 1818 383.29 1817.97 385.42 1817.52 385.71 1817.46 386.04 1817.43 387.44 1817.43 387.89 1817.49 388.73 1817.67 389.2 1817.59 390.49 1817.32 391.51 1816.99 392.66 1816.41 393.23 1816.05 393.52 1815.71 393.77 1815.5 394.37 1815.11 395.78 1814.1 396.84 1813.35 397.65 1812.77 398.44 1811.56 399.03 1810.62 399.69 1809.71 400.14 1808.88 401.17 1807.68 402.1 1806.69 402.6 1805.97 402.84 1805.4 402.98 1804.57 403.14 1803.74 403.48 1802.44 403.66 1802.01 404.31 1800.74 404.72 1799.81 404.99 1799.26 405.15 1798.72 405.84 1797.6 406.71 1796.29 407.8 1794.54 408.44 1793.31 408.77 1792.78 409.48 1791.95 410.09 1791.37 410.49 1791.03 410.62 1790.93 410.71 1790.93 410.73 1791.04 410.73 1791.15 410.51 1791.32 410.23 1791.51 409.56 1792.19 409.12 1792.84 408.64 1793.78 407.91 1795 405.9 1798.16 405.35 1799.13 404.07 1802.05 403.85 1802.86 403.59 1803.54 403.53 1803.96 403.47 1804.37 403.49 1804.77 403.52 1805.13 403.36 1805.82 403.14 1806.8 403.1 1807.44 403.05 1808.1 403.16 1809.15 403.3 1809.57 403.38 1809.88 403.39 1810.66 403.29 1811.1 403.11 1811.49 402.64 1812.06 400.57 1813.78 399.97 1814.24 398.13 1815.86 397.03 1816.76 396.78 1817.02 396.55 1817.34 Z M 744.43 882.75 744.26 882.76 744.19 882.65 744.21 882.54 744.29 882.49 744.35 882.46 744.46 882.44 744.59 882.43 744.79 882.43 744.9 882.54 744.86 882.62 744.67 882.73 744.43 882.75 Z M 745.7 882.26 745.52 882.5 745.29 882.49 745.23 882.37 745.28 882.16 745.47 881.96 745.52 881.93 745.6 881.88 745.66 881.94 745.69 882.08 745.7 882.26 Z M 746.4 881.1 746.09 881.15 745.98 880.98 745.97 880.74 746.11 880.66 746.3 880.66 746.39 880.66 746.52 880.7 746.57 880.75 746.57 880.95 746.4 881.1 Z M 744.61 880.15 744.51 880.23 744.45 880.22 744.42 880.2 744.39 880.14 744.39 880.11 744.4 880.05 744.44 879.96 744.55 879.86 744.65 879.81 744.71 879.79 744.76 879.8 744.78 879.87 744.75 879.98 744.7 880.07 744.61 880.15 Z M 743.09 879.79 743.15 879.84 743.37 879.75 743.48 879.86 743.29 880.09 743.14 880.22 743 880.42 742.6 880.59 742.32 880.61 742.13 880.4 742.09 880.22 742.25 880.06 742.55 879.82 742.72 879.66 742.92 879.51 743.12 879.46 743.25 879.5 743.37 879.57 743.31 879.65 743.11 879.73 743.09 879.79 Z M 753.35 880.94 753.4 882.04 753.34 883.43 753.29 883.86 753.3 884.56 753.25 885.31 753.18 885.8 753.09 886.43 753.05 887.22 752.91 887.83 752.76 888.17 752.54 888.45 752.17 888.76 751.85 888.95 751.37 888.99 750.72 888.99 750.03 888.93 749.57 888.79 749.11 888.4 748.81 888.07 748.73 887.74 748.76 887.37 749.04 886.98 749.05 886.76 748.93 886.33 748.68 885.61 748.51 885.01 748.29 884.46 748.1 883.95 747.85 883.33 747.45 882.75 747.07 882.1 746.85 881.65 746.76 881.47 746.67 881.25 746.78 881.09 747.01 881.1 747.5 881.31 747.82 881.5 748.19 881.7 748.66 881.74 749.12 881.62 749.52 881.45 749.82 881.12 750.1 880.72 750.44 880.42 750.79 880.06 751 879.66 751.28 879.25 751.55 878.82 751.65 878.45 751.76 878 751.95 877.49 752.17 877.03 752.43 876.27 752.61 875.53 752.96 874.66 753.44 873.7 753.68 873.13 753.95 872.52 754.08 871.99 754.18 871.14 754.33 870.59 754.6 870.06 754.82 869.58 755.04 869.15 755.16 868.86 755.38 868.16 755.62 867.16 755.71 866.49 755.77 865.86 755.86 865.47 755.97 865.52 755.98 865.68 756.08 866.28 756.05 866.62 755.95 867.39 755.75 868.24 755.16 869.78 755.05 870.26 754.86 870.98 754.76 871.64 754.58 872.39 754.49 873.16 754.46 873.44 754.32 873.91 754.26 874.34 753.96 875.08 753.75 875.68 753.6 876.26 753.49 877.22 753.41 877.95 753.3 878.39 753.24 878.77 753.33 879.53 753.33 880.41 753.35 880.94 Z M 756.71 861.99 756.59 862.01 756.47 861.92 756.41 861.74 756.44 861.6 756.51 861.5 756.64 861.52 756.71 861.6 756.77 861.69 756.78 861.84 756.71 861.99 Z M 40.62 861.87 40.47 861.89 40.34 861.82 40.29 861.72 40.3 861.62 40.38 861.47 40.6 861.16 40.76 860.93 40.85 860.69 40.92 860.47 41.11 859.95 41.2 859.82 41.41 859.45 41.58 859.16 41.73 858.99 41.99 858.66 42.38 858.38 42.63 858.16 42.76 857.94 42.84 857.84 43.12 857.59 43.33 857.43 43.38 857.41 43.39 857.4 44.03 855.85 44.24 855.74 44.4 855.7 44.35 856 43.9 856.84 43.67 857.48 43.68 858.32 43.66 858.42 43.59 858.54 43.56 858.67 43.51 858.84 43.47 859.04 43.36 859.33 43.22 859.64 43.03 859.81 42.79 860.09 42.53 860.45 42.27 860.92 41.92 861.22 41.64 861.39 41.14 861.78 41.11 861.78 41.1 861.78 40.82 861.8 40.62 861.87 Z M 761.87 838.17 761.91 838.68 762.08 839.45 762.13 840.04 762.2 840.72 762.36 841.47 762.53 842.04 762.91 842.74 763.03 843.04 763.27 843.87 763.47 844.67 763.57 845.13 763.52 845.88 763.31 846.51 763.06 847.58 762.92 847.98 762.71 848.65 762.49 849.14 762.21 849.79 761.98 850.61 761.83 851 761.56 851.2 761.34 851.3 761.1 851.31 761.07 851.24 761.07 851.16 761.36 850.96 761.55 850.64 761.61 850.1 761.69 849.53 761.84 848.97 762.07 848.32 762.26 847.81 762.38 847.11 762.48 846.34 762.61 845.35 762.56 844.56 762.48 843.93 762.3 843.22 761.99 842.44 761.72 841.59 761.53 841.14 761.33 840.43 761.25 839.93 761.29 839.39 761.15 838.96 760.95 838.58 760.9 838.3 760.84 838.29 760.79 838.5 760.85 838.69 760.82 838.93 760.67 839.02 760.55 838.92 760.5 838.7 760.49 838.68 760.49 838.28 760.63 837.85 760.83 837.68 761.23 837.5 761.53 837.47 761.78 837.58 761.86 837.79 761.87 838.17 Z M 70.65 830.19 70.28 830.68 70.27 830.67 70.06 831.1 69.66 831.79 69.26 832.24 69.03 832.44 68.9 832.4 69.01 832.12 69.5 831.57 69.74 831.02 70.01 830.44 70.24 829.79 70.01 829.18 70 828.99 70.24 828.95 70.4 829.12 70.61 829.38 70.82 829.6 70.8 829.81 70.65 830.19 Z M 68.42 816.37 68.53 816.54 68.58 816.64 68.61 816.86 68.67 817.05 68.82 817.2 68.88 817.32 68.89 817.35 68.87 817.44 68.81 817.51 68.73 817.55 68.61 817.55 68.48 817.51 68.4 817.29 68.36 817.2 68.27 817.02 68.16 816.92 67.98 816.74 67.74 816.56 67.39 816.47 67.18 816.49 67.02 816.54 66.8 816.6 66.63 816.63 66.38 816.64 66.05 816.58 65.9 816.48 65.82 816.39 65.77 816.26 65.77 816.2 65.77 816.17 65.77 815.97 65.8 815.87 65.89 815.76 66.01 815.66 66.12 815.57 66.22 815.43 66.36 815.12 66.39 815.01 66.41 814.9 66.43 814.67 66.43 814.04 66.43 813.98 66.42 813.78 66.38 813.63 66.38 813.6 66.35 813.49 66.31 813.22 66.3 813.09 66.22 812.75 66.2 812.67 66.18 812.51 66.18 812.41 66.18 812.14 66.26 811.94 66.31 811.87 66.34 811.82 66.36 811.8 66.45 811.74 66.55 811.71 66.62 811.7 66.68 811.72 66.7 811.74 66.71 811.79 66.71 811.8 66.71 811.84 66.7 811.89 66.69 812.01 66.68 812.11 66.72 812.22 66.84 812.39 66.84 812.4 66.98 812.55 67.11 812.66 67.23 812.92 67.31 813.1 67.37 813.31 67.41 813.56 67.49 813.86 67.68 814.31 67.9 814.58 68.11 814.74 68.2 814.86 68.24 815.02 68.24 815.26 68.28 815.61 68.31 815.97 68.35 816.19 68.42 816.37 Z M 243.39 589.31 243.67 589.39 243.78 589.37 243.93 589.32 244.04 589.34 244.15 589.35 244.26 589.37 244.32 589.38 244.55 589.32 244.71 589.35 244.91 589.53 245.18 589.91 245.35 590.16 245.57 590.41 245.91 590.9 246.23 591.46 246.48 592.11 246.71 592.76 246.78 593.24 246.88 593.87 246.91 594.27 246.85 594.56 246.67 595.01 246.47 595.5 246.43 595.62 246.3 595.98 246.25 596.24 246.2 596.47 246.13 596.77 246.02 597.04 245.87 597.23 245.64 597.42 245.42 597.56 244.96 597.86 244.59 598.11 244.23 598.31 243.85 598.44 243.27 598.62 242.9 598.63 242.64 598.65 242.43 598.68 241.98 598.79 241.49 599.02 241.04 599.23 240.75 599.4 240.32 599.54 240.12 599.56 239.86 599.6 239.53 599.7 239.1 599.91 238.71 600.07 238.23 600.38 237.74 600.75 236.44 601.67 235.7 602.19 235 602.63 234.35 603.12 233.21 603.88 232.9 604.07 232.61 604.27 232.25 604.55 232.02 604.83 231.91 605.06 231.79 605.24 231.57 605.47 231.32 605.71 231.08 605.94 230.86 606.13 230.72 606.31 230.55 606.51 230.37 606.69 230.18 606.86 230.03 606.98 229.92 607.07 229.75 607.15 229.5 607.34 229.18 607.53 228.99 607.61 228.84 607.65 228.67 607.67 228.51 607.64 228.38 607.58 228.26 607.46 228.14 607.29 228.06 607.13 228.04 606.94 228.03 606.76 228.06 606.58 228.11 606.45 228.31 606.26 228.45 606.11 228.63 605.87 228.79 605.69 229.02 605.44 229.15 605.34 229.4 605.27 229.55 605.19 229.75 605.16 229.91 605.13 230.02 605.08 230.14 604.95 230.3 604.87 230.46 604.82 230.63 604.78 230.77 604.76 230.85 604.71 231.03 604.63 231.14 604.6 231.28 604.66 231.41 604.69 231.52 604.68 231.7 604.67 231.76 604.63 231.94 604.46 232.24 604.14 232.5 603.84 232.59 603.75 232.75 603.54 232.97 603.21 233.06 603.05 233.35 602.52 233.46 602.32 233.63 602.02 233.78 601.83 234.03 601.5 234.43 601 234.97 600.27 235.4 599.64 235.84 599.11 236.16 598.72 236.54 598.22 236.78 597.81 237.07 597.39 237.18 597.22 237.53 596.77 238.28 595.7 238.93 594.63 239.2 594.22 239.43 593.92 239.58 593.74 239.89 593.21 240.05 592.81 240.22 592.43 240.28 592.35 240.5 591.98 240.71 591.68 240.76 591.66 240.77 591.61 240.95 591.29 240.98 591.19 241.12 590.73 241.09 590.68 241.14 590.48 241.37 589.92 241.53 589.54 241.62 589.22 241.57 588.85 241.58 588.73 241.64 588.68 241.83 588.69 241.95 588.69 242.13 588.76 242.45 588.89 242.94 589.12 243.39 589.31 Z M 781.59 489.5 782.12 489.61 782.46 489.75 782.82 489.95 782.87 489.96 783.24 489.86 783.59 489.89 784.04 489.94 784.67 489.98 785.15 490.05 785.42 490.16 785.72 490.31 785.95 490.36 786.28 490.23 786.68 489.96 787.07 489.97 787.45 490.02 787.68 490.04 787.97 490.14 788.36 490.33 788.66 490.35 789.41 490.36 790.05 490.4 790.67 490.47 791.02 490.54 791.24 490.56 791.43 490.56 791.5 490.5 791.79 490.47 791.94 490.42 792.12 490.39 792.34 490.38 792.51 490.34 793.29 490.34 793.63 490.41 793.89 490.47 794.35 490.53 795.12 490.54 795.78 490.6 796.31 490.65 797.19 490.8 797.84 490.85 798.29 490.91 798.65 491.13 798.89 491.36 799 491.66 799 491.71 799 491.99 798.84 492.26 798.8 492.31 798.81 492.39 798.82 492.56 798.72 492.71 798.53 492.86 798.21 493.13 797.95 493.3 797.58 493.42 797.41 493.36 797.04 493.45 796.19 493.62 795.76 493.72 795.19 493.89 794.75 494.01 794.32 494.08 794.15 494.14 793.75 494.25 792.92 494.51 791.71 495.05 790.59 495.46 789.71 495.84 789.26 495.96 788.09 496.21 787.46 496.34 786.54 496.58 786.08 496.73 785.27 496.81 784.72 496.83 783.85 496.78 783.17 496.71 782.52 496.62 782.11 496.54 781.62 496.43 780.91 496.26 780.14 496.06 779.04 495.64 778.42 495.16 777.81 494.54 777.67 494.22 777.34 493.5 777.14 492.76 777.04 492.15 777.05 491.54 777.07 491.21 777.13 490.92 777.28 490.56 777.47 490.25 777.73 489.94 778.11 489.68 778.37 489.62 778.91 489.54 779.27 489.5 779.93 489.53 780.2 489.46 780.73 489.45 781.59 489.5 Z M 3.12 451.71 3.06 451.8 2.96 451.99 2.91 452.2 2.94 452.34 2.98 452.41 3.06 452.49 3.15 452.57 3.2 452.64 3.23 452.72 3.18 452.78 3.12 452.82 3.02 452.85 2.99 452.85 2.98 452.85 2.93 452.85 2.79 452.86 2.65 452.85 2.52 452.85 2.35 452.84 2.16 452.8 1.88 452.79 1.66 452.77 1.31 452.79 1.18 452.77 1.09 452.71 1.04 452.65 1 452.55 1.07 452.4 1.2 452.29 1.38 452.15 1.6 451.99 1.87 451.86 2.03 451.78 2.32 451.73 2.43 451.72 2.55 451.73 2.7 451.73 2.82 451.68 2.92 451.62 3.03 451.56 3.12 451.55 3.16 451.58 3.16 451.61 3.12 451.71 Z M 23.41 419.37 23.53 419.37 23.74 419.36 24.05 419.35 24.23 419.37 24.38 419.43 24.5 419.57 24.54 419.71 24.54 419.93 24.46 420.27 24.38 420.55 24.2 420.9 23.84 421.51 23.43 422.22 23.09 422.85 22.78 423.47 22.39 424.13 22.14 424.49 21.8 424.95 21.53 425.36 21.1 426.1 20.79 426.62 20.37 427.21 19.86 427.9 19.26 428.76 18.82 429.32 18.47 429.84 18.03 430.43 17.79 430.74 17.51 431.13 17.11 431.63 16.8 432.03 16.42 432.57 16.05 433.06 15.75 433.45 15.43 433.91 15.16 434.26 14.7 434.93 14.2 435.74 13.86 436.28 13.56 436.76 13.34 437.12 13.1 437.54 12.7 438.14 12.46 438.47 12.07 439.21 11.75 439.78 11.62 439.96 11.32 440.39 11.06 440.88 10.83 441.26 10.54 441.82 10.35 442.27 10.23 442.61 10.04 443.11 9.87 443.49 9.69 443.76 9.49 444.2 9.22 444.74 8.81 445.22 8.41 445.69 8.11 446.04 7.8 446.41 7.53 446.71 7.37 446.89 7.13 447.16 6.84 447.5 6.67 447.7 6.34 448.09 5.99 448.49 5.73 448.74 5.51 449 5.4 449.14 5.17 449.35 4.67 449.77 4.41 449.94 4.24 450.01 4.03 450.06 3.92 450.05 3.9 449.88 4.24 449.41 4.37 449.25 4.48 449.1 4.69 448.79 5.58 447.77 6.13 447.06 6.6 446.51 7 446.06 7.57 445.35 8.03 444.79 8.41 444.39 8.95 443.66 9.33 442.97 9.79 442.21 9.97 441.86 10.49 440.85 10.84 440.2 11.23 439.22 11.63 438.5 11.94 438 12.38 437.35 12.54 437.12 12.9 436.49 13.25 435.9 13.56 435.36 13.86 434.82 14.19 434.25 14.38 433.8 14.54 433.35 14.71 432.74 14.97 431.86 15.21 431.25 15.52 430.51 15.73 429.88 15.92 429.3 16.07 428.71 16.14 428.5 16.25 427.99 16.25 427.98 16.26 427.94 16.4 427.51 16.49 427.26 16.75 426.71 16.9 426.32 17 425.98 17.27 425.03 17.35 424.79 17.48 424.4 17.81 423.72 18.07 423.11 18.21 422.87 18.42 422.61 18.77 422.23 19.01 422.01 19.18 421.87 19.63 421.4 19.88 421.11 20.16 420.76 20.78 420.19 21.01 419.97 21.55 419.34 21.71 419.16 21.75 419.11 21.84 419.1 22.01 419.11 22.24 419.18 22.48 419.25 22.72 419.32 22.89 419.35 23.04 419.36 23.18 419.37 23.41 419.37 Z M 69.25 386.1 69.42 386.2 69.64 386.18 69.93 386.2 70.16 386.19 70.28 386.22 70.87 386.25 71.07 386.28 71.28 386.31 71.52 386.31 71.62 386.38 71.64 386.46 71.53 386.51 71.38 386.48 71.08 386.45 71.04 386.45 70.75 386.39 70.51 386.41 70.39 386.39 70.28 386.38 70.14 386.47 69.96 386.65 69.7 386.97 69.55 387.31 69.52 387.66 69.67 388.19 69.76 388.7 69.85 389.11 69.94 389.54 70.07 389.9 70.38 390.2 70.69 390.54 70.87 390.78 70.99 391.04 70.99 391.22 70.87 391.33 70.66 391.34 70.49 391.41 70.27 391.55 69.88 391.68 69.58 391.76 69.29 391.8 69 391.79 68.68 391.76 68.26 391.64 67.91 391.51 67.53 391.44 67.31 391.4 67.1 391.29 66.95 391.16 66.87 390.95 66.84 390.73 66.83 390.69 66.94 390.4 67.11 390.08 67.23 389.72 67.37 389.21 67.56 388.84 67.67 388.5 67.83 388.05 67.92 387.7 68.02 387.07 68.18 386.62 68.35 386.15 68.51 385.86 68.66 385.73 68.78 385.74 69.03 385.9 69.25 386.1 Z M 88.37 385.14 88.02 385.37 87.64 385.72 87.24 386.06 86.58 386.57 86.11 386.94 85.66 387.26 85.34 387.42 84.73 387.75 84.14 388 83.69 388.26 83.38 388.43 83.08 388.43 82.93 388.38 82.9 388.25 82.92 388.11 82.92 387.89 82.89 387.61 82.92 387.34 82.99 387.07 83 386.91 83.01 386.64 83.05 386.36 83.2 385.98 83.42 385.67 83.64 385.46 83.96 385.26 84.09 385.21 84.31 385.2 84.6 385.19 84.87 385.19 84.87 385.18 85.2 385.19 85.69 385.19 86.12 385.2 86.42 385.18 86.8 385.16 87.35 385.09 88.12 384.98 88.5 384.78 88.84 384.65 89.06 384.55 89.18 384.55 89.22 384.64 89.2 384.66 89.08 384.76 88.8 384.92 88.37 385.14 Z M 92.39 384.52 92.17 384.58 92 384.72 91.8 384.86 91.67 385.04 91.58 385.15 91.45 385.18 91.33 385.16 91.19 385.11 91.1 385.02 91.08 385.01 90.98 384.83 90.9 384.66 90.91 384.58 90.99 384.56 91.22 384.57 91.34 384.56 91.46 384.54 91.58 384.51 91.7 384.41 91.94 384.24 92.22 384.08 92.37 384.03 92.56 384.07 92.62 384.13 92.62 384.2 92.52 384.36 92.47 384.46 92.46 384.48 92.39 384.52 Z M 93.34 382.87 93.31 383.04 93.24 383.21 93.21 383.41 93.16 383.6 93.07 383.77 92.96 383.88 92.86 383.95 92.85 383.95 92.78 383.94 92.73 383.87 92.75 383.77 92.82 383.63 92.82 383.51 92.76 383.42 92.69 383.37 92.64 383.34 92.62 383.34 92.48 383.31 92.36 383.23 92.29 383.16 92.33 383.03 92.38 382.93 92.44 382.89 92.53 382.86 92.66 382.9 92.81 382.94 92.96 382.97 93.04 382.97 93.13 382.9 93.18 382.86 93.22 382.8 93.31 382.8 93.34 382.87 Z M 93.6 382.24 93.44 382.32 93.23 382.31 93.12 382.2 93.1 382.02 93.12 381.82 93.16 381.55 93.16 381.32 93.13 381.16 93.09 381.06 93.04 380.93 93.03 380.8 93.1 380.7 93.17 380.69 93.25 380.73 93.33 380.86 93.45 381.05 93.61 381.21 93.71 381.48 93.76 381.66 93.74 381.91 93.71 382.12 93.69 382.14 93.6 382.24 Z M 297.53 310.17 297.44 310.25 297.27 310.19 297.12 310.04 296.94 309.73 296.76 309.43 296.47 309.11 296.18 308.79 296.13 308.53 295.92 307.95 295.78 307.16 295.79 306.93 295.82 306.68 295.83 306.03 295.89 305.64 296.07 304.92 296.36 304.34 296.83 303.45 297 303.14 297.48 302.45 297.98 301.87 298.35 301.55 298.92 301.15 299.53 300.74 300.08 300.44 300.48 300.25 300.87 300.06 301.4 299.73 302.01 299.26 302.34 298.97 302.78 298.69 303.21 298.52 303.48 298.48 303.74 298.49 304.17 298.52 304.66 298.64 304.82 298.68 305.08 298.77 305.26 298.92 305.43 299.28 305.5 299.57 305.45 299.85 305.28 300.41 304.96 301.26 304.69 301.82 304.46 302.31 304.15 303.15 303.52 304.32 303.05 304.97 302.32 305.94 301.37 306.98 301.06 307.22 299.93 308.14 298.49 309.19 297.91 309.61 297.64 309.88 297.53 310.17 Z M 321.05 275.16 320.92 275.19 320.86 275.19 320.87 275.14 320.91 275.03 321.1 274.82 321.24 274.66 321.33 274.52 321.4 274.35 321.49 274.02 321.54 273.77 321.57 273.63 321.81 272.67 321.84 272.28 321.84 272 321.83 271.77 321.82 271.24 321.9 270.78 321.97 270.35 322.09 269.82 322.21 269.46 322.39 268.91 322.62 268.2 322.76 267.77 322.94 267.3 323.17 266.89 323.36 266.53 323.6 266.01 323.83 265.52 324.06 265.09 324.3 264.65 324.43 264.37 324.56 264.02 324.66 263.71 324.75 263.45 324.88 263.1 325.04 262.76 325.16 262.49 325.31 262.11 325.5 261.7 325.67 261.23 325.85 260.74 326.15 260.12 326.32 259.63 326.44 259.29 326.69 258.68 326.99 257.98 327.17 257.58 327.22 257.39 327.27 257.18 327.31 256.81 327.38 256.44 327.55 256.07 327.74 255.72 327.92 255.32 328.05 255.03 328.13 254.8 328.23 254.32 328.37 253.9 328.65 253.24 328.91 252.55 329.09 251.97 329.31 251.45 329.4 251.12 329.52 250.69 329.71 250.03 329.97 249.34 330.16 248.72 330.37 248.12 330.57 247.41 330.75 247 330.84 246.78 330.93 246.47 331.04 246.05 331.14 245.74 331.28 245.37 331.43 244.96 331.53 244.66 331.66 244.29 331.92 243.85 332.07 243.58 332.35 243.02 332.6 242.57 333.05 241.75 333.23 241.39 333.48 240.95 333.74 240.3 333.99 239.86 334.12 239.61 334.3 239.24 334.54 238.7 334.83 238.2 335.09 237.53 335.37 236.95 335.67 236.53 335.97 236.14 336.22 235.91 336.33 235.83 336.44 235.79 336.67 235.75 336.92 235.57 337.26 235.34 337.43 235.25 337.56 235.23 337.7 235.25 337.8 235.32 337.87 235.44 337.88 235.56 337.77 236.03 337.76 236.41 337.72 236.68 337.65 236.9 337.61 237.17 337.59 237.38 337.52 237.59 337.46 237.82 337.3 238.02 337.2 238.21 337.05 238.58 336.84 239.09 336.62 239.48 336.32 240.04 336.1 240.53 335.78 241.1 335.5 241.59 335.24 242.17 335.09 242.59 334.84 243.11 334.67 243.49 334.5 243.77 334.27 244.18 334.12 244.57 334.05 244.77 333.89 245.38 333.81 245.56 333.73 245.78 333.63 246.04 333.4 246.41 333.16 246.97 333 247.41 332.88 247.7 332.75 248.09 332.59 248.53 332.49 248.87 332.37 249.19 332.17 249.59 332.01 249.92 331.89 250.29 331.77 250.72 331.74 251.06 331.64 251.37 331.42 251.93 331.26 252.45 331.08 252.92 330.96 253.36 330.84 253.82 330.69 254.27 330.56 254.64 330.52 254.91 330.43 255.23 330.41 255.47 330.37 255.72 330.2 256.27 329.94 256.91 329.75 257.44 329.5 257.99 329.26 258.42 328.93 258.97 328.59 259.43 327.99 260.26 327.53 260.79 327.21 261.15 326.87 261.59 326.47 262.11 326.17 262.51 325.87 262.91 325.57 263.39 325.4 263.79 325.19 264.4 324.9 265.07 324.72 265.48 324.38 266.37 324.18 266.83 324.03 267.21 323.97 267.48 323.9 267.75 323.73 268.11 323.58 268.42 323.46 268.78 323.27 269.18 323.14 269.42 322.85 270.18 322.59 270.85 322.37 271.49 322.18 272.04 321.96 273.1 321.88 273.43 321.81 273.81 321.6 274.49 321.5 274.73 321.35 274.94 321.21 275.06 321.05 275.16 Z M 456.06 131.23 455.91 131.26 455.77 131.24 455.62 131.18 455.46 131.09 455.42 131.04 455.39 130.95 455.39 130.77 455.44 130.59 455.48 130.46 455.55 130.36 455.66 130.23 455.82 130.1 455.98 129.98 456.03 129.9 456.04 129.8 456.03 129.66 455.96 129.46 455.8 129.04 455.69 128.62 455.6 128.37 455.37 127.89 455.18 127.46 455 126.86 454.9 126.34 454.87 126.06 454.81 125.3 454.79 125.12 454.66 124.62 454.54 124.18 454.45 123.72 454.39 123.15 454.35 122.7 454.32 122.13 454.24 121.75 454.15 121.13 454.05 120.63 453.95 120.11 453.78 119.43 453.73 119.2 453.67 118.93 453.61 118.81 453.52 118.7 453.39 118.58 453.23 118.51 453.01 118.44 452.71 118.42 452.54 118.35 452.36 118.2 452.21 117.98 452.14 117.81 452.09 117.58 451.97 117.34 451.74 116.95 451.56 116.72 451.49 116.59 451.48 116.47 451.52 116.36 451.66 116.25 451.94 116.11 452.24 115.99 452.39 115.95 452.84 115.94 453.18 115.98 453.56 116.11 453.97 116.32 454.2 116.48 454.51 116.77 454.9 117.13 455.15 117.43 455.46 117.85 455.67 118.17 455.97 118.74 456.26 119.53 456.59 120.3 456.99 121.09 457.08 121.28 457.32 121.93 457.28 122.64 457.24 123.35 457.19 124.07 457.18 124.79 457.19 125.53 457.25 126.27 457.33 127.02 457.36 127.26 457.4 127.46 457.5 127.81 457.73 128.65 457.93 129.52 457.89 129.71 457.8 129.89 457.64 130.09 457.39 130.31 456.59 130.92 456.31 131.11 456.06 131.23 Z M 37.16 41.32 37.17 41.45 37.09 41.49 36.84 41.49 36.66 41.46 36.36 41.42 36.13 41.42 35.86 41.43 35.46 41.45 35.25 41.41 35.13 41.33 35.12 41.26 35.12 41.13 35.11 40.92 35.1 40.8 35.06 40.58 34.93 40.33 34.73 40.06 34.61 39.91 34.58 39.82 34.62 39.76 34.69 39.71 34.75 39.67 34.85 39.66 35 39.65 35.13 39.64 35.28 39.68 35.59 39.85 35.62 39.87 35.68 39.9 35.85 39.99 36.17 40.15 36.43 40.32 36.6 40.45 36.73 40.62 36.99 41 37.08 41.16 37.16 41.32 Z M 308.9 9.99 308.55 10.47 308.05 11.07 308.02 11.15 308.04 11.17 308.02 11.19 307.97 11.18 307.94 11.23 307.93 11.34 307.86 11.48 307.78 11.59 307.72 11.65 307.64 11.7 307.61 11.74 307.58 11.76 307.5 11.69 307.39 11.84 307.09 12.01 306.99 12.07 306.9 12.05 306.78 12.08 306.44 12.07 306.07 12.06 305.68 12.02 305.43 11.93 305.35 11.79 305.34 11.56 305.43 11.38 305.5 11.07 305.69 10.86 305.78 10.73 305.83 10.72 306.13 10.73 306.15 10.75 306.23 10.76 306.32 10.7 306.46 10.62 306.62 10.53 306.75 10.45 306.75 10.42 306.75 10.4 306.78 10.41 307.09 10.15 307.41 9.39 307.85 7.73 308.13 6.79 308.49 6.12 309.13 5.06 309.53 4.35 309.93 3.69 310.01 3.11 310.22 2.57 310.8 1.87 311.38 1.26 311.57 1 311.72 1.78 311.82 2.47 311.86 4.29 311.78 5.84 311.47 6.5 311.01 7.36 310.15 8.35 309.51 9.13 309.28 9.41 309.32 9.43 309.31 9.44 309.31 9.45 309.2 9.6 308.9 9.99 Z" fill-rule="evenodd" id="553" fill="#F5F5F5" stroke="#757575"></path>
</g>
</svg>