<svg xmlns="http://www.w3.org/2000/svg" version="1.2" baseProfile="tiny" width="500" height="570" viewBox="0 0 800 717" stroke-linecap="round" stroke-linejoin="round">
<g id="PUDUCHERRY_DISTRICT_BDY">
<path d="M 510.81 709.87 510.6 709.92 510.57 709.91 510.55 709.91 510.5 709.84 510.43 709.73 510.44 709.66 510.47 709.63 510.52 709.59 510.53 709.57 510.61 709.54 510.61 709.54 510.82 709.54 510.88 709.57 510.95 709.67 510.92 709.81 510.92 709.82 510.89 709.84 510.87 709.86 510.81 709.87 Z M 502.49 704.77 502.44 704.79 502.4 704.77 502.39 704.74 502.4 704.71 502.41 704.7 502.43 704.67 502.42 704.65 502.42 704.61 502.43 704.58 502.46 704.58 502.48 704.58 502.5 704.59 502.51 704.64 502.52 704.68 502.51 704.75 502.49 704.77 Z M 500.42 702.91 500.42 702.91 500.37 702.91 500.37 702.79 500.21 702.79 500.2 702.78 500.2 702.66 500.2 702.66 500.35 702.66 500.36 702.66 500.37 702.54 500.37 702.54 500.44 702.54 500.45 702.63 500.49 702.67 500.5 702.69 500.49 702.78 500.49 702.78 500.41 702.79 500.41 702.79 500.42 702.91 Z M 500.11 700.53 499.95 700.53 499.95 700.4 500.12 700.39 500.11 700.53 Z M 504.57 694.74 504.58 694.78 504.61 694.77 504.67 694.77 504.73 694.79 504.81 694.83 504.86 694.89 504.93 695 504.94 695.05 504.94 695.15 504.95 695.18 504.99 695.18 505.03 695.16 505.08 695.08 505.11 695 505.16 694.92 505.2 694.9 505.25 694.91 505.28 694.94 505.29 694.98 505.3 695.03 505.34 695.17 505.44 695.19 505.53 695.19 505.54 695.21 505.54 695.27 505.66 695.3 505.73 695.32 505.75 695.39 505.76 695.39 505.8 695.37 505.85 695.34 505.88 695.33 505.96 695.32 506.01 695.35 506.06 695.38 506.15 695.4 506.23 695.41 506.27 695.4 506.34 695.34 506.39 695.31 506.44 695.31 506.61 695.34 506.66 695.35 506.82 695.37 506.9 695.36 506.96 695.35 507.04 695.3 507.12 695.25 507.17 695.23 507.23 695.23 507.32 695.24 507.35 695.26 507.33 695.29 507.28 695.33 507.23 695.4 507.2 695.43 507.21 695.45 507.27 695.48 507.38 695.51 507.5 695.53 507.6 695.59 507.7 695.66 507.77 695.7 507.81 695.7 507.82 695.69 507.83 695.67 507.83 695.65 507.83 695.62 507.82 695.59 507.8 695.55 507.77 695.47 507.83 695.45 507.89 695.42 507.95 695.4 508.01 695.39 508.07 695.39 508.12 695.4 508.16 695.43 508.18 695.47 508.17 695.5 508.17 695.55 508.2 695.61 508.32 695.79 508.36 695.88 508.4 695.98 508.42 696.05 508.42 696.13 508.33 696.18 508.26 696.21 508.21 696.21 508.11 696.18 508.08 696.18 508.07 696.21 508.06 696.24 508.07 696.28 508.11 696.33 508.18 696.39 508.31 696.47 508.36 696.51 508.33 696.59 508.37 696.61 508.48 696.61 508.5 696.62 508.52 696.64 508.54 696.66 508.56 696.69 508.64 696.75 508.68 696.78 508.69 696.79 508.7 696.83 508.73 696.93 508.77 696.96 508.91 697.05 509.01 697.12 509.05 697.13 509.1 697.14 509.22 697.13 509.28 697.14 509.32 697.15 509.47 697.19 509.6 697.15 509.67 697.15 509.63 696.91 509.62 696.85 509.61 696.82 509.62 696.78 509.64 696.75 509.68 696.72 509.72 696.7 509.77 696.68 509.84 696.66 509.87 696.64 509.9 696.59 509.95 696.52 509.98 696.5 510.03 696.47 510.09 696.47 510.14 696.52 510.16 696.57 510.18 696.64 510.2 696.66 510.21 696.66 510.22 696.65 510.23 696.64 510.23 696.61 510.23 696.56 510.24 696.42 510.17 696.4 510.17 696.4 510.18 696.36 510.2 696.27 510.22 696.23 510.25 696.23 510.28 696.22 510.29 696.17 510.28 696.14 510.26 696.12 510.22 696.09 510.19 696.05 510.19 696.03 510.21 696.01 510.29 695.95 510.35 695.94 510.38 695.96 510.4 696 510.42 696.06 510.45 696.03 510.47 695.96 510.49 695.93 510.47 695.89 510.42 695.84 510.32 695.79 510.15 695.7 510.12 695.65 510.11 695.61 510.12 695.56 510.17 695.45 510.25 695.36 510.33 695.26 510.45 695.2 510.51 695.18 510.58 695.14 510.71 695.09 510.81 695.09 510.93 695.11 511.08 695.15 511.23 695.19 511.31 695.18 511.39 695.13 511.41 695.11 511.45 695.07 511.49 694.97 511.52 694.9 511.52 694.84 511.48 694.8 511.43 694.69 511.52 694.7 511.53 694.68 511.56 694.63 511.59 694.6 511.63 694.61 511.64 694.61 511.67 694.62 511.73 694.67 511.78 694.74 511.88 694.9 511.9 694.94 512.05 695.18 512.12 695.25 512.21 695.3 512.26 695.3 512.29 695.29 512.31 695.26 512.33 695.21 512.35 695.13 512.37 695.03 512.42 694.99 512.49 694.98 512.54 695 512.59 695.03 512.64 695.09 512.71 695.18 512.77 695.25 512.82 695.28 512.87 695.29 513.08 695.3 513.11 695.29 513.13 695.25 513.14 695.21 513.12 695.09 513.14 694.99 513.19 694.9 513.21 694.86 513.26 694.82 513.37 694.8 513.41 694.79 513.41 694.79 513.47 694.77 513.56 694.73 513.72 694.74 513.9 694.79 514.08 694.84 514.09 694.84 514.14 694.85 514.26 694.89 514.33 694.89 514.47 694.88 514.5 694.88 514.54 694.88 514.54 694.9 514.54 695.03 514.54 695.1 514.53 695.26 514.52 695.27 514.52 695.27 514.48 695.42 514.46 695.58 514.81 695.59 514.83 695.61 514.84 695.62 514.86 695.68 514.86 695.69 514.88 695.71 514.91 695.71 514.94 695.72 515.02 695.71 515.14 695.69 515.23 695.67 515.28 695.66 515.33 695.65 515.46 695.74 515.51 695.75 515.52 695.75 515.55 695.75 515.8 695.76 515.87 695.77 515.88 695.78 515.9 695.81 515.94 695.92 515.95 695.98 515.94 695.99 515.94 696 515.94 696 515.93 696.02 515.92 696.04 515.91 696.06 515.87 696.11 515.8 696.26 515.8 696.29 515.8 696.32 515.82 696.41 515.83 696.43 515.82 696.46 515.81 696.5 515.81 696.5 515.8 696.57 515.8 696.59 515.8 696.61 515.84 696.69 515.89 696.79 515.95 696.88 515.95 697 515.95 697.01 515.95 697.04 516.18 697.11 516.17 697.38 516.14 697.72 516.15 697.92 516.17 698.05 516.15 698.35 516.15 698.69 516.15 698.79 516.16 698.94 516.12 699.24 516.1 699.48 516.12 699.68 516.08 699.89 516.06 700.09 516.07 700.18 516.08 700.3 516.05 700.53 516.04 700.83 516.04 701.01 516.04 701.12 516.05 701.23 516.03 701.6 516.03 701.71 516.03 701.82 516.03 702.07 516.03 702.41 516.02 702.98 516.01 703.14 515.99 703.26 515.96 703.69 515.96 703.74 515.95 703.81 515.96 703.99 515.97 704.21 515.95 704.43 515.95 704.52 516 704.78 516.02 705.17 516 705.43 515.95 705.58 515.98 705.8 515.96 705.87 515.94 705.94 515.99 706.04 515.97 706.21 515.96 706.38 515.97 706.59 515.93 706.9 515.92 707.1 515.92 707.26 515.89 707.54 515.88 707.68 515.85 707.85 515.82 708.04 515.82 708.38 515.82 708.38 515.84 708.58 515.85 708.74 515.85 708.76 515.82 708.92 515.77 708.95 515.86 709.04 515.79 709.16 515.85 709.22 515.88 709.31 515.88 709.41 515.85 709.52 515.85 709.68 515.87 709.86 515.9 709.97 515.9 710.07 515.87 710.2 515.84 710.29 515.85 710.51 515.87 710.67 515.85 710.83 515.83 711.04 515.81 711.17 515.8 711.33 515.74 711.64 515.74 711.8 515.71 712.05 515.71 712.05 515.69 712.2 515.68 712.26 515.72 712.45 515.73 712.51 515.74 712.57 515.73 712.75 515.78 712.99 515.82 713.26 515.82 713.46 515.81 713.58 515.81 713.97 515.79 714.28 515.79 714.63 515.85 714.98 515.85 715.15 515.79 715.57 515.73 715.78 515.79 715.95 514.67 715.93 514.37 715.97 513.92 715.96 513.62 715.98 513.43 716 513.39 715.76 513.36 715.55 513.33 715.41 513.31 715.27 513.28 715 513.29 714.91 513.31 714.8 513.28 714.8 513.24 714.8 513.23 714.75 513.23 714.69 513.26 714.69 513.34 714.68 513.34 714.67 513.24 714.18 513.18 713.86 513.13 713.7 513.08 713.3 512.96 713.37 512.95 713.47 512.85 713.49 512.74 713.63 512.64 713.63 512.6 713.64 512.58 713.65 512.56 713.67 512.55 713.68 512.38 713.77 512.31 713.78 512.24 713.79 512.18 713.75 512.1 713.65 512.06 713.62 512.05 713.6 512.02 713.57 512.04 713.36 511.82 713.29 511.76 713.31 511.71 713.32 511.7 713.31 511.7 713.3 511.67 713.29 511.58 713.26 511.55 713.25 511.53 713.25 511.45 713.26 511.36 713.26 511.36 713.26 511.26 713.19 511.21 713.13 511.18 713.07 511.12 713 510.97 712.94 510.96 712.94 510.92 712.9 510.85 712.78 510.84 712.78 510.79 712.73 510.7 712.65 510.68 712.62 510.66 712.57 510.66 712.57 510.66 712.52 510.69 712.49 510.69 712.47 510.69 712.44 510.69 712.35 510.65 712.21 510.62 712.16 510.61 712.13 510.61 712.09 510.59 712.06 510.59 712.04 510.59 711.91 510.59 711.88 510.61 711.38 510.73 711.37 510.73 711.36 510.74 711.33 510.8 711.34 510.84 711.35 510.87 711.36 510.86 711.45 510.86 711.5 510.86 711.57 510.9 711.68 510.98 711.76 511 711.8 511.01 711.86 511.08 712.01 511.11 712.08 511.34 711.97 511.61 711.82 511.77 711.69 511.87 711.62 511.9 711.62 511.98 711.63 512.02 711.61 512.05 711.58 512.08 711.57 512.18 711.55 512.27 711.54 512.44 711.54 512.49 711.53 512.61 711.49 512.65 711.48 512.7 711.46 512.69 711.21 512.69 710.95 512.67 710.92 512.59 710.91 512.54 710.9 512.52 710.85 512.51 710.83 512.47 710.71 512.46 710.69 512.44 710.62 512.43 710.59 512.42 710.53 512.42 710.46 512.4 710.32 512.38 710.31 512.36 710.3 512.15 710.31 512.15 710.31 511.74 710.31 511.72 710.29 511.62 710.23 511.49 710.2 511.31 710.19 511.31 710.15 511.05 710.15 511.01 709.87 511.03 709.73 511.04 709.67 511.05 709.63 511.07 709.58 511.16 709.59 511.2 709.59 511.25 709.6 511.33 709.57 511.42 709.57 511.51 709.58 511.61 709.59 511.69 709.57 511.75 709.54 511.8 709.55 511.84 709.55 511.9 709.56 512.03 709.62 512.11 709.61 512.15 709.59 512.17 709.55 512.23 709.45 512.28 709.47 512.36 709.5 512.45 709.59 512.49 709.58 512.52 709.56 512.54 709.52 512.56 709.49 512.66 709.55 512.66 709.56 512.67 709.57 512.69 709.56 512.71 709.53 512.72 709.5 512.76 709.45 512.88 709.45 513 709.44 513.08 709.41 513.14 709.37 513.18 709.27 513.17 709.24 513.17 709.2 513.17 709.2 513.14 709.16 513.03 709.08 512.97 709.05 512.87 709.04 512.75 709.08 512.6 709.11 512.5 709.1 512.33 709.03 512.14 708.92 511.96 708.84 511.83 708.8 511.77 708.8 511.72 708.8 511.55 708.8 511.46 708.79 511.37 708.75 511.25 708.68 511.14 708.61 511.08 708.59 511.04 708.6 511.01 708.62 510.77 708.73 510.66 708.73 510.57 708.71 510.52 708.69 510.44 708.66 510.43 708.6 510.41 708.5 510.39 708.45 510.38 708.42 510.33 708.36 510.32 708.34 510.24 708.28 510.2 708.3 510.16 708.33 509.98 708.33 509.98 708.33 509.96 708.38 509.85 708.39 509.83 708.49 509.81 708.51 509.76 708.52 509.71 708.53 509.71 708.63 509.71 708.72 509.69 708.72 509.6 708.75 509.55 708.71 509.5 708.67 509.45 708.66 509.39 708.66 509.32 708.66 509.25 708.66 509.08 708.7 509.08 708.68 509.08 708.66 509.09 708.64 509.18 708.49 509.2 708.45 509.15 708.3 508.97 708.25 508.96 708.22 508.91 708.04 508.86 707.96 508.8 707.93 508.67 707.88 508.6 707.82 508.56 707.81 508.54 707.84 508.52 707.89 508.51 707.95 508.54 708.24 508.53 708.35 508.51 708.36 508.47 708.37 508.42 708.38 508.41 708.42 508.38 708.43 508.17 708.43 508.15 708.44 508.09 708.5 508.07 708.5 507.99 708.56 507.96 708.55 507.86 708.5 507.84 708.57 507.82 708.59 507.78 708.59 507.76 708.59 507.74 708.53 507.7 708.47 507.65 708.43 507.58 708.37 507.57 708.35 507.58 708.26 507.6 708.15 507.61 708.04 507.6 707.89 507.59 707.82 507.61 707.78 507.63 707.75 507.68 707.74 507.88 707.72 508.26 707.73 508.31 707.72 508.34 707.71 508.37 707.66 508.41 707.61 508.46 707.58 508.54 707.58 508.58 707.6 508.65 707.66 508.67 707.68 508.68 707.66 508.75 707.54 508.78 707.46 508.81 707.38 508.88 707.35 508.95 707.36 508.98 707.35 508.99 707.33 508.8 707.2 508.76 707.16 508.71 707.02 508.67 706.82 508.67 706.69 508.68 706.6 508.83 706.71 508.97 706.84 509.08 706.93 509.17 706.86 509.17 706.86 508.94 706.63 508.85 706.5 508.81 706.42 508.74 706.34 508.65 706.26 508.57 706.21 508.49 706.18 508.44 706.17 508.4 706.17 508.29 706.18 508.18 706.22 508.1 706.26 508.03 706.31 507.94 706.34 507.74 706.4 507.58 706.43 507.54 706.42 507.52 706.41 507.44 706.34 507.39 706.26 507.36 706.17 507.34 706.14 507.31 706.12 507.25 706.1 507.02 706.1 506.97 706.32 507.12 706.36 507.1 706.43 507.23 706.46 507.23 706.55 506.93 706.53 506.96 707.39 506.96 707.41 506.96 707.6 506.74 707.61 506.61 707.62 506.42 707.6 505.54 707.64 505.56 707.87 505.72 707.88 505.75 707.91 505.77 707.95 505.79 707.96 505.87 707.97 505.88 708.1 505.84 708.09 505.79 708.07 505.64 708.06 505.59 708.06 505.43 708.07 505.41 708.09 505.47 708.1 505.47 708.12 505.46 708.14 505.44 708.15 505.39 708.16 505.37 708.16 505.35 708.15 505.3 708.13 505.23 708.09 505.17 708.08 505.05 708.08 504.93 708.08 504.73 708.06 504.7 708.14 504.67 708.22 504.48 708.18 504.48 708.18 504.5 708.15 504.53 708.09 504.54 708.07 504.54 708.02 504.54 708.02 504.5 707.98 504.47 707.95 504.43 707.93 504.43 707.88 504.43 707.84 504.61 707.73 504.61 707.79 504.6 707.83 504.66 707.82 504.67 707.78 504.67 707.73 504.69 707.69 504.76 707.7 504.78 707.69 504.79 707.67 504.79 707.66 504.79 707.65 504.74 707.57 504.77 707.52 504.82 707.57 504.85 707.56 504.88 707.59 504.89 707.58 504.91 707.57 504.92 707.54 504.92 707.52 504.93 707.48 504.97 707.46 504.97 707.46 505.03 707.42 505.11 707.42 505.17 707.42 505.21 707.43 505.2 707.28 505.23 707.28 505.26 707.28 505.28 707.23 505.35 707.22 505.36 707.21 505.36 707.21 505.35 707.18 505.33 707.15 505.31 707.14 505.29 707.12 505.25 707.11 505.2 707.1 505.19 707.09 505.17 707.07 505.15 707 505.13 706.97 505.09 706.97 505.07 707.01 505.03 707.07 505.04 707.1 505.07 707.12 505.23 707.13 505.21 707.18 505.14 707.28 505.08 707.31 505.07 707.31 505.04 707.31 505.04 707.29 505.04 707.27 505.09 707.26 505.12 707.23 505.11 707.21 505.1 707.21 505.1 707.21 505.08 707.21 505.07 707.21 505.02 707.22 505.01 707.13 504.96 707.13 504.96 707.23 504.95 707.23 504.92 707.24 504.92 707.31 504.91 707.34 504.91 707.36 504.89 707.37 504.88 707.39 504.81 707.39 504.76 707.39 504.69 707.38 504.65 707.56 504.63 707.63 504.57 707.61 504.58 707.55 504.61 707.45 504.64 707.34 504.67 706.95 504.67 706.95 504.74 706.97 504.73 707.03 504.74 707.03 504.77 707.03 504.77 707.04 504.77 707.06 504.81 707.07 504.84 707.07 504.85 707 504.87 706.96 504.83 706.78 504.83 706.77 504.82 706.76 504.76 706.64 504.71 706.58 504.69 706.55 504.65 706.51 504.64 706.45 504.64 706.43 504.63 706.35 504.64 706.23 504.65 706.19 504.68 706.14 504.69 706.11 504.71 706.08 504.75 706.03 504.87 705.9 504.93 705.8 505.04 705.68 505.11 705.64 505.13 705.63 505.18 705.61 505.22 705.6 505.25 705.59 505.26 705.59 505.28 705.58 505.28 705.57 505.29 705.57 505.29 705.56 505.3 705.56 505.3 705.55 505.29 705.54 505.29 705.54 505.29 705.53 505.26 705.49 505.22 705.44 505.16 705.41 505.07 705.36 505 705.33 504.97 705.3 504.9 705.22 504.81 705.17 504.72 705.17 504.61 705.2 504.56 705.21 504.5 705.2 504.38 705.21 504.26 705.22 504.24 705.23 504.23 705.28 504.18 705.48 504.08 705.47 503.97 705.46 503.83 705.45 503.74 705.44 503.71 705.45 503.68 705.45 503.58 705.48 503.27 705.42 503.01 705.39 502.94 705.38 502.95 705.23 503.15 705.22 503.14 705.13 503.13 705.03 503.14 704.91 503.16 704.9 503.18 704.88 503.2 704.82 503.16 704.8 503.12 704.88 503.06 704.89 503.02 704.91 502.97 704.99 502.94 705.05 502.81 705.01 502.79 704.97 502.82 704.88 502.9 704.87 502.99 704.86 502.95 704.46 502.94 704.36 502.91 704.14 502.79 704.14 502.77 704.14 502.75 704.14 502.51 704.19 502.49 704.33 502.45 704.33 502.39 704.34 502.37 704.24 502.41 704.23 502.43 704.22 502.43 704.2 502.42 704.16 502.47 704.13 502.48 703.97 502.35 703.98 502.24 704.05 502.34 704.17 502 704.16 501.98 704.02 502.06 703.83 501.98 703.83 501.91 703.83 501.88 703.78 501.72 703.73 501.69 703.76 501.63 703.81 501.5 703.84 501.49 703.78 501.45 703.76 501.39 703.85 501.32 703.83 501.32 703.83 501.35 703.76 501.37 703.72 501.33 703.73 501.29 703.74 501.23 703.7 501.2 703.7 501.16 703.69 501 703.71 500.95 703.69 500.88 703.66 500.82 703.64 500.75 703.64 500.7 703.57 500.75 703.46 500.74 703.29 500.78 703.27 500.8 703.25 500.85 703.02 500.94 703.02 501 702.92 501.01 702.9 501.08 702.91 501.1 703.01 501.11 703.02 501.12 703.03 501.23 703.04 501.29 703.04 501.29 702.78 501.28 702.74 500.96 702.75 500.96 702.82 500.96 702.86 500.91 702.86 500.81 702.86 500.82 702.8 500.83 702.77 500.79 702.77 500.74 702.77 500.72 702.85 500.71 702.85 500.65 702.86 500.64 702.9 500.54 702.91 500.55 702.79 500.69 702.75 500.72 702.7 500.79 702.67 500.9 702.66 501.02 702.65 501.03 702.58 500.9 702.48 500.87 702.48 500.78 702.52 500.79 702.41 500.74 702.37 500.81 702.23 500.8 702.21 500.8 702.18 500.73 702.24 500.69 702.22 500.7 702.18 500.63 702.16 500.67 702.09 500.71 702.12 500.73 702.04 500.74 702.02 500.78 701.97 500.82 701.93 500.83 701.92 500.91 701.9 500.97 701.87 501.04 701.84 501.12 701.84 501.28 701.88 501.3 701.86 501.3 701.86 501.33 701.81 501.45 701.79 501.45 701.79 501.45 701.67 501.44 701.61 501.45 701.59 501.48 701.55 501.53 701.52 501.56 701.41 501.6 701.38 501.87 701.32 502.2 701.23 502.17 701.09 502.25 700.81 502.14 700.75 502.14 700.61 502.15 700.49 502.15 700.22 502.04 700.2 502.04 700.2 501.92 700.18 501.92 700.28 501.77 700.24 501.76 700.37 501.83 700.38 501.81 700.44 501.8 700.54 501.75 700.52 501.65 700.49 501.66 700.64 501.67 700.94 501.58 700.9 501.5 700.96 501.4 700.93 501.34 701.01 501.31 701 501.3 700.99 501.34 700.92 501.3 700.91 501.25 700.93 501.16 700.96 501.04 700.95 501.05 700.91 501.05 700.86 500.98 700.89 500.95 700.94 500.85 700.89 500.83 700.94 500.77 700.91 500.77 700.96 500.73 700.96 500.71 700.97 500.69 700.9 500.68 700.88 500.64 700.88 500.62 700.87 500.61 700.89 500.58 700.92 500.46 700.93 500.44 700.89 500.42 700.83 500.33 700.93 500.31 700.84 500.29 700.83 500.27 700.83 500.25 700.89 500.18 700.83 500.14 700.8 500.12 700.64 500.12 700.58 500.32 700.61 500.33 700.42 500.24 700.41 500.23 700.35 500.27 700.33 500.27 700.29 500.13 700.27 500.07 700.34 500.05 700.24 500.21 700.15 500.2 699.9 500.23 699.62 500.24 699.49 500.27 699.29 500.26 699.18 500.16 699.08 500.12 699.03 500.11 698.87 500.14 698.87 500.16 698.88 500.2 698.88 500.24 698.88 500.27 698.82 500.29 698.79 500.34 698.79 500.35 698.79 500.36 698.79 500.36 698.9 500.39 698.9 500.46 698.8 500.57 698.8 500.59 698.72 500.68 698.72 500.76 698.73 500.74 698.82 500.87 698.83 500.91 698.76 500.96 698.77 501.01 698.79 501.21 698.76 501.25 698.76 501.3 698.76 501.36 698.75 501.43 698.64 501.49 698.63 501.48 698.7 501.55 698.69 501.58 698.78 501.65 698.77 501.67 698.73 501.74 698.78 501.92 698.77 501.97 698.77 501.98 698.77 501.98 698.84 501.98 698.94 501.99 698.96 502.01 699 502.22 698.96 502.27 698.97 502.33 698.98 502.42 699.02 502.45 699.15 502.46 699.2 502.49 699.35 502.56 699.38 502.62 699.34 502.63 699.26 502.77 699.13 502.8 699.15 502.86 699.19 502.95 699.11 503.07 699.19 503.12 699.16 503.23 699.22 503.31 699.29 503.32 699.32 503.28 699.39 503.3 699.55 503.3 699.55 503.23 699.57 503.2 699.58 503.2 699.77 503.19 699.89 503.19 699.99 503.19 700.14 503.2 700.3 503.21 700.33 503.27 700.36 503.33 700.34 503.35 700.23 503.38 700.21 503.44 700.2 503.59 700.17 503.63 700.12 503.67 700.1 503.71 700.1 503.8 700.14 503.88 700.16 503.93 700.16 503.96 700.17 504.04 700.15 504.07 700.12 504.13 700.07 504.16 700.05 504.23 700.05 504.31 700.07 504.4 700.1 504.43 700.1 504.46 700.09 504.48 700.08 504.51 700.05 504.53 700 504.57 699.94 504.6 699.93 504.66 699.93 504.72 699.93 504.76 699.88 504.8 699.84 504.83 699.84 504.86 699.83 504.9 699.86 504.94 699.91 505 699.94 505.04 699.94 505.09 699.94 505.14 699.92 505.17 699.89 505.23 699.89 505.27 699.91 505.32 699.95 505.37 699.97 505.39 699.95 505.41 699.94 505.42 699.91 505.42 699.88 505.4 699.86 505.34 699.82 505.31 699.79 505.28 699.76 505.28 699.74 505.28 699.71 505.26 699.58 505.2 699.47 505.18 699.41 505.15 699.34 505.14 699.31 505.14 699.2 505.15 699.14 505.16 699.15 505.21 699.25 505.28 699.12 505.24 699.08 505.15 699 505.15 699 505.07 698.97 505.01 698.93 504.98 698.88 504.96 698.79 504.92 698.64 504.89 698.47 504.87 698.43 504.86 698.43 504.83 698.45 504.77 698.48 504.74 698.47 504.68 698.44 504.64 698.43 504.63 698.42 504.61 698.4 504.55 698.35 504.5 698.36 504.43 698.4 504.36 698.45 504.34 698.46 504.32 698.47 504.29 698.45 504.29 698.41 504.29 698.37 504.3 698.31 504.33 698.27 504.34 698.2 504.32 698.07 504.24 697.95 504.19 697.85 504.09 697.86 504.07 697.79 504.07 697.76 504.31 697.74 504.41 697.73 504.43 697.55 504.61 697.53 504.76 697.51 504.77 697.39 504.77 697.33 504.79 697.12 504.77 697.06 504.76 697.06 504.72 697.05 504.61 697.07 504.6 697.06 504.58 697.04 504.56 697.03 504.52 697.01 504.45 697.02 504.44 697.04 504.43 697.06 504.41 697.08 504.39 697.12 504.37 697.13 504.36 697.13 504.31 697.13 504.09 697.14 504.1 696.86 504.11 696.67 504.1 696.56 504.06 696.51 503.98 696.5 503.95 696.5 503.92 696.49 503.87 696.47 503.83 696.46 503.77 696.46 503.7 696.46 503.66 696.46 503.59 696.48 503.56 696.48 503.52 696.49 503.46 696.5 503.45 696.5 503.43 696.48 503.44 696.47 503.48 696.45 503.51 696.4 503.52 696.38 503.53 696.34 503.56 696.26 503.56 696.23 503.55 696.1 503.54 696.06 503.54 696.03 503.53 696.01 503.51 695.95 503.52 695.82 503.56 695.7 503.57 695.67 503.58 695.63 503.58 695.59 503.56 695.56 503.52 695.49 503.53 695.49 503.54 695.36 503.58 695.32 503.45 694.89 503.39 694.82 503.37 694.75 503.41 694.71 503.49 694.69 503.55 694.68 503.6 694.67 503.74 694.71 503.79 694.71 503.88 694.7 504.04 694.67 504.07 694.68 504.12 694.71 504.18 694.74 504.22 694.75 504.24 694.75 504.25 694.72 504.28 694.66 504.31 694.64 504.35 694.61 504.42 694.61 504.45 694.6 504.52 694.62 504.55 694.65 504.56 694.68 504.57 694.74 Z M 505.26 706.09 505.22 706.43 505.29 706.36 505.32 706.56 505.37 706.56 505.37 706.62 505.53 706.63 505.54 706.68 505.27 706.72 505.27 706.77 505.2 706.77 505.19 707 505.35 706.99 505.36 706.87 505.42 706.87 505.44 706.76 505.55 706.76 505.57 706.92 505.4 706.93 505.4 707.01 505.46 707.01 505.49 706.97 505.6 706.98 505.65 707.07 505.78 707 505.87 706.97 505.84 706.85 505.79 706.86 505.78 706.82 505.81 706.78 505.78 706.71 505.69 706.77 505.64 706.66 505.65 706.54 505.46 706.53 505.46 706.47 505.39 706.46 505.39 706.39 505.41 706.3 505.54 706.1 505.49 705.93 505.52 705.82 505.41 705.7 505.37 706.03 505.26 706.09 Z M 505.79 707.04 505.75 707.11 505.66 707.11 505.65 707.25 505.71 707.26 505.72 707.35 505.86 707.34 505.87 707.2 505.76 707.19 505.76 707.16 505.88 707.16 506.05 707.19 506.07 707.09 506.16 707.1 506.18 707.02 506.06 707 506.04 707.08 506 707.07 506.01 706.97 505.92 706.99 505.84 707.02 505.79 707.04 Z" fill-rule="evenodd" id="598" fill="#228CC8" stroke="#757575" class="cursor-pointer" stroke-width="0.5" name="Karaikal"></path><text x="508.06500244140625" y="705.2999877929688" data-id="map_label" fill="#203D54" text-anchor="middle" class="label-text">KKL</text>
<path d="M 2.69 602.03 2.67 602.12 2.67 602.14 2.69 602.16 2.71 602.16 2.69 602.23 2.67 602.23 2.66 602.27 2.69 602.27 2.67 602.36 2.68 602.45 2.66 602.45 2.6 602.41 2.48 602.42 2.38 602.49 2.03 602.73 2.03 602.73 2 602.69 1.97 602.63 1.92 602.56 1.87 602.47 1.85 602.4 1.82 602.33 1.78 602.24 1.75 602.18 1.69 602.12 1.61 602.06 1.58 602.04 1.59 602.06 1.57 602.08 1.56 602.08 1.54 602.08 1.52 602.09 1.5 602.08 1.48 602.05 1.48 602.02 1.51 602.01 1.49 601.98 1.49 601.94 1.47 601.89 1.44 601.88 1.39 601.87 1.33 601.84 1.26 601.8 1.2 601.77 1.19 601.71 1.18 601.65 1.21 601.62 1.24 601.59 1.29 601.59 1.32 601.59 1.34 601.51 1.33 601.5 1.33 601.5 1.33 601.5 1.37 601.47 1.58 601.37 1.64 601.3 1.7 601.24 1.77 601.06 1.8 600.97 1.85 600.85 2.02 600.78 2.22 600.78 2.33 600.8 2.45 600.87 2.64 601.09 2.76 601.22 2.86 601.32 2.97 601.4 3.02 601.43 2.92 601.6 2.82 601.68 2.78 601.72 2.75 601.8 2.75 601.85 2.69 602.03 Z M 2.54 594.38 2.55 594.4 2.56 594.47 2.56 594.52 2.56 594.64 2.56 594.68 2.57 594.69 2.58 594.71 2.61 594.71 2.62 594.69 2.64 594.66 2.64 594.62 2.65 594.61 2.66 594.61 2.81 594.74 2.89 594.8 2.97 594.79 3.04 594.79 3.1 594.8 3.16 594.82 3.22 594.84 3.27 594.89 3.31 594.95 3.33 594.99 3.36 595.03 3.41 595.06 3.44 595.11 3.47 595.15 3.48 595.19 3.48 595.23 3.45 595.27 3.4 595.33 3.36 595.39 3.32 595.43 3.29 595.46 3.28 595.49 3.27 595.52 3.26 595.54 3.25 595.6 3.24 595.69 3.22 595.79 3.26 595.85 3.28 595.92 3.27 595.94 3.27 595.94 3.27 595.94 3.26 596 3.26 596.07 3.25 596.13 3.23 596.26 3.21 596.37 3.16 596.43 3.13 596.49 3.12 596.57 3.1 596.68 3.06 596.73 3.02 596.79 3.05 596.9 3.06 596.98 2.99 597.11 2.95 597.3 2.89 597.48 2.94 597.57 2.98 597.72 3.02 597.82 3.14 597.81 3.16 597.82 3.18 597.86 3.19 598.04 3.56 598.14 3.81 598.24 3.99 598.33 4.14 598.44 4.34 598.59 4.47 598.69 4.45 598.71 4.43 598.91 4.41 599.03 4.37 599.15 4.37 599.27 4.41 599.4 4.41 599.43 4.33 599.54 4.29 599.64 4.27 599.67 4.24 599.68 3.98 599.68 3.92 599.71 3.75 599.92 3.7 599.93 3.62 599.92 3.55 599.96 3.53 600 3.52 600.11 3.49 600.13 3.45 600.12 3.41 600.08 3.37 599.97 3.28 599.95 3.26 599.87 3.05 599.86 3.04 599.95 3.01 599.98 2.98 599.97 2.95 600 2.91 600 2.86 599.95 2.83 599.96 2.84 600 2.79 600.07 2.74 600.09 2.67 600.08 2.61 600.05 2.51 600.01 2.42 599.99 2.34 600.02 2.28 600.01 2.26 599.96 2.24 599.83 2.25 599.76 2.25 599.67 2.22 599.63 2.16 599.62 2.07 599.67 1.91 599.8 1.9 599.86 1.88 599.91 1.84 599.9 1.79 599.91 1.76 599.95 1.67 599.98 1.68 600.11 1.7 600.14 1.75 600.2 1.74 600.24 1.75 600.26 1.83 600.25 1.84 600.29 1.89 600.29 1.9 600.34 1.94 600.34 1.96 600.3 2 600.31 2.05 600.36 2.16 600.32 2.21 600.34 2.21 600.39 2.18 600.44 2.24 600.46 2.23 600.48 2.14 600.51 2.06 600.59 1.84 600.62 1.73 600.66 1.63 600.71 1.58 600.71 1.45 600.7 1.47 600.73 1.55 600.85 1.46 600.93 1.39 600.86 1.23 600.83 1.23 600.74 1.38 600.71 1.42 600.67 1.42 600.56 1.46 600.28 1.62 600.25 1.58 600.07 1.56 600.01 1.46 600.01 1.37 599.97 1.27 599.9 1.21 599.9 1.17 599.93 1.15 600 1.11 599.98 1.1 599.94 1.11 599.88 1.15 599.77 1.15 599.69 1.06 599.49 1.04 599.43 1.1 599.32 1.04 599.28 1.06 599.21 1.07 599.15 1.07 599.13 1.05 599.07 1.04 599.04 1.02 599 1.03 598.94 1.02 598.88 1.02 598.83 1 598.77 1.02 598.7 1.07 598.67 1.13 598.6 1.16 598.55 1.18 598.45 1.22 598.36 1.3 598.26 1.38 598.2 1.53 598.19 1.65 597.75 1.88 597.81 2 597.85 2.16 597.9 2.16 597.8 2.36 597.77 2.6 597.76 2.65 597.75 2.68 597.65 2.71 597.53 2.72 597.4 2.74 597.4 2.76 597.29 2.82 597.27 2.79 597.16 2.85 596.97 2.86 596.88 2.87 596.78 2.82 596.57 2.78 596.46 2.76 596.26 2.72 596.11 2.69 596.09 2.65 596.09 2.62 596.04 2.58 596.02 2.53 596.02 2.38 596.08 2.39 595.91 2.39 595.91 2.39 595.87 2.36 595.84 2.18 595.76 2.14 595.68 2.07 595.59 2.07 595.57 2.06 595.54 2.06 595.5 2.06 595.43 2.06 595.36 2.07 595.25 2.06 595.18 2.06 595.16 2.05 595.13 2.03 595.1 1.99 595.06 1.92 595.04 1.86 595.01 1.81 595 1.76 594.98 1.68 594.84 1.7 594.81 1.76 594.76 1.82 594.72 1.93 594.69 1.98 594.67 2.03 594.64 2.08 594.61 2.12 594.59 2.2 594.59 2.23 594.57 2.25 594.55 2.24 594.5 2.24 594.46 2.24 594.43 2.26 594.39 2.28 594.38 2.29 594.38 2.33 594.37 2.4 594.39 2.44 594.39 2.47 594.37 2.49 594.37 2.52 594.36 2.54 594.38 Z" fill-rule="evenodd" id="599" fill="#89CCEB" stroke="#757575" class="cursor-pointer" stroke-width="0.5" name="Mahe"></path><text x="2.7350001335144043" y="598.5449829101562" data-id="map_label" fill="#203D54" text-anchor="middle" class="label-text">MHE</text>
<path d="M 495.58 596.5 495.77 596.58 495.97 596.66 496.22 596.73 496.27 596.73 496.27 596.73 496.27 596.73 496.47 596.77 496.56 596.77 496.62 596.96 496.64 597.01 496.68 597.09 496.72 597.15 496.77 597.18 496.86 597.21 496.85 597.4 496.74 597.99 496.27 597.94 496.26 598.03 496.06 597.98 496.06 597.98 495.76 598.7 495.59 598.6 495.49 598.51 495.4 598.43 495.35 598.36 495.28 598.28 495.2 598.14 495.08 597.97 495.01 597.89 494.94 597.81 494.96 597.53 494.97 597.42 494.97 597.42 494.99 597.31 495.03 597.02 495.11 596.52 495.11 596.52 495.34 596.5 495.38 596.5 495.41 596.5 495.48 596.49 495.52 596.48 495.54 596.49 495.58 596.5 Z M 497.88 595.47 498.02 595.48 498.21 595.48 498.25 595.72 498.26 595.88 498.28 596.17 498.3 596.29 498.32 596.34 498.35 596.39 498.39 596.44 498.43 596.5 498.46 596.57 498.48 596.62 498.38 596.62 498.3 596.61 498.18 596.6 498.06 596.6 497.88 596.6 497.74 596.58 497.59 596.59 497.44 596.59 497.14 596.59 497.18 596.45 497.25 596.22 497.3 595.99 497.32 595.7 497.33 595.46 497.53 595.47 497.63 595.46 497.74 595.46 497.88 595.47 Z M 502.47 593.07 502.49 593.07 502.51 593.07 502.54 593.04 502.58 593 502.61 592.98 502.63 593 502.64 593.04 502.64 593.08 502.67 593.12 502.7 593.14 502.8 593.17 502.87 593.18 502.97 593.16 503.03 593.16 503.09 593.18 503.15 593.21 503.22 593.24 503.28 593.26 503.37 593.27 503.45 593.27 503.54 593.29 503.77 593.34 504.03 593.54 504.02 593.59 504.14 593.63 504.25 593.67 504.28 593.62 504.61 593.73 504.61 593.81 504.8 593.84 504.86 593.87 504.88 593.92 505.08 593.96 505.14 593.98 505.2 594.01 505.35 594.09 505.38 594.1 505.49 594.17 505.59 594.19 505.65 594.19 505.65 594.21 505.66 594.23 505.66 594.27 505.7 594.29 505.72 594.3 505.74 594.3 505.74 594.32 505.75 594.41 505.74 595.03 505.72 595.27 505.71 595.33 505.71 595.35 505.73 595.35 506.04 595.44 506.05 595.52 506.3 595.53 506.32 595.54 506.32 595.51 506.31 595.46 506.31 595.43 506.33 595.44 506.43 595.45 506.44 595.53 506.67 595.53 506.68 595.4 506.68 595.39 506.69 595.37 506.71 595.27 506.7 595.1 506.7 595.08 506.72 595.08 506.78 595.09 506.83 595.01 506.8 594.98 506.86 594.82 506.87 594.81 506.89 594.8 507.04 594.8 507.05 594.8 507.11 594.69 507.13 594.66 507.18 594.58 507.21 594.55 507.22 594.53 507.23 594.52 507.26 594.47 507.31 594.43 507.52 594.42 507.58 594.42 507.59 594.42 507.61 594.42 507.65 594.42 507.72 594.44 507.77 594.46 507.81 594.44 507.87 594.43 507.95 594.49 507.99 594.51 508.07 594.48 508.14 594.5 508.27 594.52 508.38 594.72 508.48 594.72 508.55 594.81 508.62 594.77 508.89 594.91 508.97 594.94 509.05 594.92 509.26 594.83 509.33 594.82 509.38 594.83 509.41 594.85 509.42 594.88 509.4 594.92 509.42 594.95 509.43 595.02 509.31 595.11 509.29 595.17 509.34 595.25 509.4 595.29 509.49 595.32 509.58 595.3 509.65 595.25 509.68 595.16 509.69 594.94 509.79 594.88 509.89 594.8 509.94 594.76 509.96 594.71 509.98 594.64 509.96 594.57 509.86 594.44 509.84 594.4 509.83 594.32 509.72 594.25 509.58 594.23 509.4 594.25 509.25 594.35 509.17 594.36 509.12 594.36 509.15 594.22 509.32 594.19 509.48 594.15 509.53 594.14 509.6 594.12 509.66 594.08 509.69 594.03 509.67 593.96 509.6 593.7 509.62 593.64 509.68 593.59 509.77 593.61 509.86 593.65 509.93 593.72 509.97 593.87 510 593.96 510.04 594.08 510.15 594.18 510.29 594.22 510.43 594.22 510.72 594.23 510.72 594.23 510.71 594.33 510.69 594.44 510.6 594.65 510.6 594.68 510.56 594.74 510.51 594.83 510.47 594.95 510.45 595.03 510.43 595.15 510.39 595.36 510.34 595.55 510.29 595.7 510.23 595.93 510.18 596.11 510.13 596.28 510.09 596.4 510.07 596.46 510.03 596.64 509.99 596.81 509.95 597.03 509.9 597.19 509.85 597.38 509.82 597.5 509.82 597.51 509.81 597.56 509.79 597.65 509.79 597.68 509.77 597.73 509.76 597.81 509.72 597.92 509.7 598.03 509.68 598.17 509.64 598.4 509.59 598.6 509.57 598.75 509.53 598.93 509.5 599.03 509.5 599.07 509.48 599.26 509.46 599.45 509.42 599.68 509.4 599.82 509.38 600 508.97 599.96 508.44 599.88 508.1 599.81 508.02 599.8 507.97 599.93 507.86 600.09 507.79 600.14 507.64 600.16 507.55 600.55 507.33 600.55 507.15 600.48 506.89 600.39 506.87 600.45 506.75 600.42 506.64 600.4 506.53 600.42 506.46 600.4 506.4 600.36 506.4 600.31 506.36 600.31 506.34 600.29 506.33 600.27 506.32 600.2 506.32 600.17 506.31 600.13 506.35 600.03 506.37 599.96 506.37 599.9 506.34 599.82 506.36 599.77 506.38 599.73 506.43 599.7 506.38 599.53 506.22 599.61 506.16 599.58 506.16 599.39 505.81 599.25 505.78 599.29 505.76 599.31 505.69 599.31 505.67 599.34 505.53 599.35 505.49 599.4 505.35 599.38 505.3 599.55 505.23 599.64 505.24 599.7 505.22 599.84 505.11 599.83 505.03 599.97 504.91 600.08 504.92 600.22 504.89 600.26 504.82 600.26 504.81 600.32 504.81 600.35 504.78 600.51 504.72 600.72 504.72 600.87 504.66 601.08 504.63 601.24 504.52 601.25 504.41 601.23 504.23 601.2 504.06 601.21 503.89 601.15 503.76 601.07 503.45 600.92 503.35 600.86 503.17 600.76 502.98 600.66 502.95 600.65 502.85 600.6 502.76 600.57 502.7 600.56 502.58 600.56 502.35 600.58 502.2 600.6 502.02 600.6 501.76 600.58 501.67 600.57 501.61 600.55 501.52 600.5 501.44 600.47 501.32 600.44 501.08 600.37 500.98 600.31 500.91 600.26 500.85 600.2 500.76 600.1 500.64 599.93 500.57 599.84 500.33 600.07 500.23 599.99 500.01 599.8 499.92 599.72 499.71 599.54 499.57 599.42 499.51 599.36 499.44 599.28 499.48 599.14 499.52 599.01 499.62 598.72 499.62 598.7 499.64 598.7 499.73 598.71 499.83 598.7 499.96 598.68 499.98 598.65 499.98 598.55 499.99 598.55 500.11 598.55 500.26 598.56 500.39 598.58 500.54 598.62 500.69 598.68 500.68 598.64 500.68 598.52 500.69 598.48 500.77 598.37 500.66 598.3 500.66 598.23 500.67 598.06 500.72 597.91 500.73 597.89 500.92 597.9 500.97 597.9 500.98 597.88 501.01 597.56 501.01 597.55 500.99 597.53 500.96 597.51 500.9 597.48 500.86 597.42 500.86 597.35 500.86 597.21 500.89 597.01 500.89 596.99 500.91 596.99 501.53 597.04 501.52 597.14 501.67 597.13 501.95 597.12 502.21 597.13 502.22 597.13 502.23 597.11 502.24 596.96 502.25 596.77 502.25 596.75 502.23 596.75 502.22 596.74 502.15 596.71 502.1 596.68 502.06 596.61 502.05 596.53 502.05 596.44 502.1 596.32 502.12 596.26 502.11 596.22 502.11 596.18 502.06 596.14 502 596.11 501.9 596.07 501.89 595.96 501.89 595.65 501.87 595.38 501.86 595.32 501.74 595.31 501.74 595.17 501.78 594.78 501.83 594.22 501.65 593.99 501.53 593.84 501.48 593.79 501.5 593.76 501.53 593.76 501.57 593.77 501.62 593.78 501.65 593.78 501.68 593.78 501.73 593.78 501.8 593.78 501.87 593.77 501.9 593.76 502 593.77 502.21 593.78 502.4 593.78 502.53 593.8 502.51 593.69 502.43 593.4 502.38 593.15 502.35 592.92 502.43 592.91 502.45 592.95 502.46 593.04 502.47 593.07 Z M 492.38 593.08 492.47 593.13 492.52 593.15 492.57 593.18 492.64 593.2 492.78 593.25 493.15 593.37 493.26 593.41 493.43 593.48 493.44 593.53 493.45 593.6 493.45 593.61 493.45 593.64 493.44 593.7 493.42 593.77 493.39 593.91 493.32 594.18 493.29 594.3 493.28 594.33 493.22 594.47 493.17 594.59 493.16 594.61 493.15 594.65 493.15 594.66 493.15 594.69 493.17 594.72 493.18 594.72 493.18 594.73 493.25 594.82 493.25 594.82 493.29 594.86 493.35 594.93 493.4 595 493.46 595.06 493.51 595.12 493.56 595.15 493.62 595.18 493.69 595.21 493.73 595.23 493.8 595.25 493.92 595.28 494.05 595.3 494.24 595.33 494.34 595.34 494.42 595.36 494.56 595.38 494.56 595.5 494.55 595.59 494.55 595.74 494.55 595.79 494.56 596.44 494.3 596.43 494.3 596.43 494.29 596.43 494.04 596.42 493.83 596.43 493.79 596.45 493.72 596.53 493.66 596.63 493.64 596.65 493.62 596.66 493.57 596.65 493.54 596.65 493.49 596.64 493.45 596.63 493.4 596.62 493.38 596.61 493.35 596.6 493.29 596.59 493.26 596.62 493.23 596.65 493.21 596.67 493.17 596.68 493.14 596.68 493.14 596.68 493.11 596.67 493.1 596.66 493.09 596.65 493.06 596.63 493.02 596.59 492.96 596.57 492.84 596.54 492.77 596.53 492.58 596.51 492.4 596.5 492.35 596.49 492.34 596.49 492.3 596.47 492.26 596.46 492.19 596.43 492.07 596.4 492.01 596.39 491.87 596.37 491.78 596.37 491.77 596.3 491.59 596.27 491.58 596.26 491.58 596.26 491.6 596.19 491.64 596.06 491.65 596 491.68 595.86 491.48 595.81 491.43 595.79 491.44 595.76 491.44 595.76 491.45 595.7 491.37 595.67 491.35 595.55 491.31 595.54 491.22 595.52 491.12 595.5 491.02 595.49 491 595.49 490.96 595.48 490.95 595.45 490.95 595.41 490.96 595.28 490.99 595.27 491.01 595.26 491.06 595.24 491.09 595.19 491.1 595.16 491.12 595.14 491.14 595.12 491.18 595.1 491.22 595.08 491.23 595.05 491.24 595.02 491.24 594.96 491.24 594.95 491.24 594.93 491.25 594.86 491.29 594.67 491.3 594.62 491.34 594.47 491.34 594.43 491.36 594.33 491.39 594.17 491.39 594.17 491.45 594.11 491.48 594.07 491.53 594 491.55 593.93 491.53 593.81 491.52 593.71 491.52 593.6 491.53 593.53 491.48 593.52 491.55 593.12 491.7 593.13 491.71 592.89 491.72 592.89 491.86 592.9 491.96 592.92 492.1 592.93 492.22 592.94 492.24 592.96 492.29 593.01 492.36 593.07 492.38 593.08 Z M 497.97 589.32 497.96 589.5 497.94 589.66 497.93 589.77 497.92 589.9 497.93 590.08 497.91 590.36 497.89 590.6 497.88 590.74 497.87 590.85 497.63 590.93 497.51 590.96 497.57 590.4 497.59 590.15 497.65 589.59 497.65 589.41 497.66 589.3 497.66 589.3 497.84 589.35 497.87 589.34 497.9 589.31 497.92 589.28 497.93 589.27 497.96 589.28 497.97 589.32 Z M 509.09 588.05 509.05 588.18 508.85 588.13 508.89 588 509.09 588.05 Z M 490.15 588.44 490.2 588.44 490.21 588.25 490.22 588.07 490.23 587.87 490.24 587.66 490.25 587.57 490.24 587.56 490.22 587.54 490.22 587.51 490.24 587.51 490.25 587.51 490.27 587.53 490.32 587.57 490.32 587.57 490.34 587.58 490.41 587.59 490.62 587.64 490.7 587.67 490.99 587.77 490.99 587.77 490.99 587.78 490.99 587.86 490.96 588.04 490.95 588.12 490.94 588.25 490.91 588.5 490.99 588.5 491.04 588.5 491.22 588.51 491.35 588.5 491.55 588.5 491.61 588.5 491.85 588.52 491.87 588.89 491.87 589.08 491.88 589.42 491.87 589.71 491.87 589.71 491.89 589.72 492.03 589.72 492.15 589.73 492.27 589.74 492.41 589.75 492.42 589.75 492.45 589.75 492.57 589.76 492.82 589.77 492.91 589.77 492.96 589.77 492.97 589.94 493.04 589.95 493.14 589.95 493.14 590.06 493.17 590.06 493.23 590.06 493.24 590.08 493.27 590.1 493.32 590.11 493.39 590.1 493.44 590.1 493.55 590.11 493.56 590.14 493.56 590.17 493.56 590.32 493.63 590.33 493.64 590.65 493.64 590.8 493.63 590.84 493.45 590.85 493.42 590.85 493.43 591.07 493.38 591.07 493.38 591.07 493.31 591.22 493.2 591.4 493.07 591.61 492.99 591.75 492.98 591.79 492.97 591.82 492.97 591.83 492.97 591.88 492.96 591.88 492.86 591.89 492.85 591.92 492.85 591.95 492.62 591.97 492.61 591.97 492.49 591.99 492.48 592.08 492.47 592.09 492.45 592.1 492.37 592.14 492.31 592.15 492.27 592.15 492.24 592.16 492.07 592.16 491.94 592.17 491.87 592.17 491.79 592.17 491.69 592.17 491.69 592.16 491.69 592.11 491.65 592.1 491.47 592.08 491.2 592.03 490.96 591.97 490.87 591.95 490.84 591.94 490.73 591.92 490.69 591.9 490.59 591.88 490.39 591.84 490.31 591.83 490.04 591.79 489.88 591.77 489.69 591.73 489.55 591.72 489.5 591.72 489.39 591.69 489.22 591.62 489.29 591.28 489.29 591.15 489.31 590.85 489.32 590.72 489.32 590.66 489.34 590.47 489.33 590.4 489.39 590.38 489.49 590.34 489.48 589.8 489.44 589.79 489.37 589.79 489.23 589.79 489.15 589.81 489.09 589.82 489.06 589.83 489.05 589.83 488.98 589.83 488.85 589.82 488.75 589.8 488.63 589.79 488.37 589.75 488.37 589.75 488.38 589.78 488.43 589.9 488.43 589.92 488.44 589.97 488.44 590 488.43 590.1 488.43 590.13 488.42 590.21 488.42 590.29 488.42 590.35 488.42 590.6 488.41 590.62 488.41 590.65 488.1 590.65 487.98 590.64 487.89 590.62 487.85 590.62 487.85 590.61 487.84 590.61 487.76 590.61 487.76 590.63 487.76 590.64 487.61 590.65 487.61 590.65 487.54 590.66 487.55 590.66 487.58 590.77 487.37 590.86 487.36 590.87 487.3 590.89 487.3 590.9 487.31 590.91 487.33 590.94 487.33 590.94 487.36 590.97 487.26 590.95 487.13 590.95 487.07 590.95 487.04 590.96 487 590.96 486.95 590.98 486.94 590.99 486.92 591.01 486.87 591.05 486.87 591.05 486.86 591.06 486.81 591.1 486.76 591.13 486.74 591.13 486.72 591.14 486.7 591.14 486.68 591.14 486.62 591.13 486.57 591.14 486.52 591.15 486.41 591.21 486.35 591.22 486.32 591.23 486.33 591.17 486.36 590.96 486.38 590.71 486.38 590.69 486.38 590.67 486.4 590.55 486.41 590.51 486.41 590.51 486.42 590.46 486.44 590.37 486.44 590.34 486.46 590.11 486.46 589.92 486.45 589.82 486.44 589.75 486.42 589.62 486.41 589.55 486.35 589.59 486.28 589.62 486.25 589.62 486.25 589.61 486.25 589.61 486.24 589.58 486.21 589.42 486.2 589.36 486.19 589.35 486.17 589.18 486.16 589.11 486.16 589.08 486.15 589.07 486.1 589.06 486.08 588.88 486.07 588.67 486.06 588.47 486.04 588.31 486.03 588.2 486.02 588.19 486.04 588.19 486.09 588.2 486.18 588.2 486.29 588.23 486.37 588.26 486.43 588.28 486.47 588.3 486.56 588.34 486.61 588.38 486.64 588.39 486.7 588.44 486.72 588.47 486.76 588.51 486.8 588.57 486.81 588.57 486.84 588.61 486.86 588.64 486.88 588.66 486.93 588.71 486.95 588.73 486.98 588.75 486.99 588.77 487.03 588.85 487.06 588.94 487.07 588.93 487.07 588.93 487.13 588.91 487.26 588.85 487.51 588.68 487.65 588.58 487.69 588.55 487.79 588.46 487.92 588.36 488 588.28 488.04 588.24 488.06 588.22 488.13 588.15 488.17 588.09 488.19 588.03 488.24 588.02 488.25 588.01 488.26 588.01 488.28 587.97 488.28 587.95 488.29 587.91 488.29 587.84 488.29 587.83 488.29 587.82 488.3 587.8 488.31 587.8 488.32 587.79 488.35 587.79 488.35 587.77 488.35 587.74 488.37 587.69 488.38 587.67 488.4 587.64 488.62 587.28 488.69 587.28 488.71 587.28 489.07 587.26 489.06 587.38 489.06 587.45 489.07 587.45 489.08 587.45 489.47 587.5 489.64 587.52 489.63 587.56 489.61 587.63 489.63 587.74 489.64 587.83 489.65 587.89 489.66 587.96 489.66 588.04 489.65 588.1 489.65 588.15 489.66 588.25 489.66 588.3 489.66 588.37 489.65 588.41 489.71 588.41 489.86 588.42 490.15 588.44 Z M 508.82 586.75 508.78 586.85 508.58 586.79 508.61 586.69 508.82 586.75 Z M 496.55 577.82 496.53 577.85 496.51 577.89 496.43 578.04 496.31 578.35 496.24 578.49 496.19 578.6 496.16 578.68 496.13 578.75 496.1 578.87 496.1 578.87 496.14 578.9 496.15 578.9 496.13 578.97 496.11 579.06 496.1 579.13 496.1 579.19 496.09 579.26 496.09 579.3 496.08 579.33 496.07 579.34 496.06 579.34 496.04 579.36 496.04 579.5 496.04 579.52 496.05 579.59 496.06 579.59 496.07 579.59 496.09 579.6 496.09 579.62 496.1 579.68 496.18 579.67 496.18 579.68 496.19 579.72 496.13 579.74 495.96 579.76 495.96 579.77 495.96 579.84 495.9 579.86 495.87 579.87 495.81 579.88 495.81 579.88 495.76 579.88 495.73 579.91 495.71 579.92 495.67 579.91 495.65 579.92 495.65 579.92 495.65 579.92 495.62 579.96 495.55 580.03 495.54 580.04 495.45 580.11 495.43 580.12 495.38 580.14 495.37 580.15 495.24 580.18 495.22 580.31 495.07 580.31 495.07 580.31 494.96 580.31 494.88 580.32 494.85 580.33 494.85 580.35 494.83 580.38 494.82 580.38 494.69 580.35 494.67 580.35 494.67 580.35 494.66 580.33 494.66 580.31 494.66 580.3 494.57 580.27 494.55 580.26 494.55 580.25 494.55 580.23 494.54 580.22 494.54 580.21 494.53 580.2 494.45 580.18 494.43 580.18 494.39 580.17 494.19 580.16 494.17 580.16 494.12 580.15 494.09 580.15 494.06 580.14 494 580.11 493.96 580.1 493.8 580.03 493.78 580.03 493.74 580.02 493.69 580.01 493.68 580.01 493.62 580.02 493.52 580.05 493.45 580.05 493.4 580.06 493.4 580.06 493.4 580.09 493.31 580.09 493.29 580.09 493.28 580.09 493.27 580.09 493.27 580.1 493.27 580.12 493.11 580.11 493.1 579.99 493.08 579.98 493.05 579.97 493.05 579.9 493.06 579.87 493.05 579.84 493.05 579.83 493.04 579.82 493.02 579.82 493 579.82 492.94 579.82 492.91 579.8 492.88 579.78 492.84 579.76 492.79 579.76 492.71 579.75 492.64 579.72 492.64 579.71 492.62 579.7 492.6 579.66 492.59 579.64 492.58 579.61 492.53 579.46 492.47 579.33 492.43 579.23 492.41 579.19 492.4 579.17 492.43 579.07 492.52 578.83 492.52 578.83 492.58 578.85 492.57 578.97 492.59 578.98 492.68 578.99 492.79 579.01 492.82 579.03 492.85 579.04 492.92 579.08 492.97 579.09 493.02 579.1 493.11 579.11 493.14 579.11 493.16 579.12 493.23 579.11 493.26 579.11 493.26 579 493.27 578.88 493.28 578.84 493.28 578.8 493.3 578.69 493.32 578.6 493.33 578.6 493.49 578.6 493.49 578.6 493.49 578.58 493.52 578.35 493.54 578.25 493.55 578.2 493.57 578.09 493.56 578.03 493.55 577.96 493.54 577.87 493.52 577.83 493.52 577.81 493.55 577.81 493.67 577.84 494.07 577.91 494.08 577.91 494.16 577.92 494.2 577.92 494.25 577.91 494.29 577.88 494.33 577.87 494.36 577.88 494.4 577.88 494.51 577.9 494.57 577.91 494.62 577.92 494.68 577.95 494.74 577.97 494.78 577.98 494.8 577.98 494.84 577.97 494.87 577.97 494.89 577.97 494.94 577.96 494.97 577.96 495 577.96 495.02 577.96 495.04 577.95 495.05 577.93 495.05 577.91 495.13 577.92 495.24 577.94 495.25 577.85 495.32 577.85 495.37 577.85 495.45 577.49 495.51 577.49 495.66 577.48 495.68 577.36 495.72 577.36 495.86 577.36 496.03 577.35 496.17 577.34 496.26 577.33 496.41 577.32 496.42 577.33 496.43 577.37 496.56 577.73 496.57 577.76 496.57 577.76 496.57 577.77 496.56 577.78 496.55 577.82 Z M 503.59 573.19 503.67 573.22 503.81 573.22 504.15 573.35 504.16 573.36 504.35 573.46 504.5 573.53 504.62 573.58 504.81 573.64 504.92 573.63 505.02 573.64 505.44 573.78 505.42 573.9 505.41 573.94 505.43 574.12 505.44 574.29 505.43 574.59 505.42 574.74 505.4 574.94 505.38 575.02 505.33 575.18 505.2 575.41 505.14 575.44 504.93 575.47 504.8 575.52 504.67 575.5 504.62 575.52 504.58 575.56 504.48 575.78 504.35 575.78 504.32 575.93 504.2 575.93 504.19 576 503.97 575.96 503.81 575.96 503.8 575.96 503.74 575.95 503.58 576.13 503.4 576.34 503.29 576.44 503.21 576.53 503.17 576.6 503.15 576.65 503.11 576.76 503.11 576.78 503 576.8 502.92 576.77 502.89 576.77 502.79 576.74 502.79 576.72 502.79 576.69 502.7 576.67 502.62 576.66 502.55 576.65 502.52 576.64 502.36 576.64 502.26 576.62 502.24 576.61 502.18 576.56 502.09 576.46 502.03 576.42 501.99 576.41 501.94 576.39 501.85 576.35 501.82 576.34 501.8 576.29 501.81 576.21 501.69 576.2 501.68 576.13 501.64 576.13 501.61 576.13 501.61 576.07 501.61 576.04 501.6 576 501.6 576 501.56 575.97 501.53 575.95 501.53 575.93 501.53 575.92 501.55 575.88 501.57 575.87 501.62 575.86 501.62 575.86 501.63 575.86 501.63 575.8 501.63 575.8 501.49 575.79 501.45 575.79 501.43 575.79 501.24 575.8 501.16 575.82 501.1 576.09 501.08 576.16 501.05 576.27 500.98 576.46 500.92 576.58 500.89 576.58 500.84 576.69 500.82 576.75 500.82 576.8 500.81 576.87 500.82 576.97 500.82 577.06 500.83 577.11 500.84 577.22 500.87 577.3 500.88 577.33 500.9 577.38 500.93 577.51 500.93 577.55 500.93 577.57 501.06 577.57 501.11 577.57 501.26 577.58 501.45 577.62 501.54 577.64 501.6 577.67 501.66 577.7 501.72 577.74 501.83 577.8 501.92 577.85 501.99 577.88 502.13 577.92 502.19 577.94 502.29 577.97 502.48 578.04 502.72 578.13 502.81 578.16 502.86 578.17 503 578.22 503.14 578.27 503.14 578.27 503.31 578.33 503.34 578.45 503.39 578.75 503.4 578.81 503.44 579.02 503.48 579.23 503.5 579.3 503.52 579.45 503.56 579.63 503.57 579.72 503.6 579.84 503.69 580.33 503.7 580.41 503.8 580.86 503.8 580.87 503.8 581.37 503.84 581.56 503.81 581.57 503.82 581.79 503.83 582.11 503.84 582.35 503.85 582.55 503.85 582.75 503.86 582.89 503.86 582.9 503.86 583.01 503.86 583.22 503.87 583.37 503.87 583.5 503.93 583.52 503.93 583.49 503.94 583.44 503.98 583.45 504.03 583.46 504.03 583.56 504.08 583.56 504.09 583.7 503.98 583.7 503.98 583.78 504.18 583.77 504.38 583.75 504.54 583.74 504.69 583.72 504.69 583.72 504.7 583.45 504.7 583.43 504.7 583.32 504.71 583.27 504.71 583.25 504.56 583.23 504.55 583.14 504.55 583.04 504.71 583.04 504.72 582.97 504.72 582.92 504.8 582.92 504.81 582.78 505.02 582.78 505.26 582.75 505.4 582.74 505.4 582.46 505.26 582.48 505.22 582.31 505.2 582.04 505.19 581.84 505.19 581.67 505.19 581.54 505.2 581.5 505.2 581.46 505.2 581.4 505.2 581.34 505.14 581.35 505.12 581.35 505.12 581.22 505.12 581.04 505.13 580.92 505.46 580.93 505.57 580.85 505.64 580.85 505.76 580.85 505.82 580.85 505.89 580.86 506.04 580.86 506.21 580.87 506.22 580.87 506.51 580.88 506.51 580.88 506.6 580.58 506.68 580.42 506.71 580.28 506.71 580.26 506.71 580.26 506.76 580.26 506.76 580.26 506.78 580.21 506.79 580.17 506.79 580.16 506.94 580.18 506.94 580.18 506.97 579.96 506.97 579.95 507.08 579.94 507.13 579.75 507.14 579.7 507.46 579.72 507.46 579.72 507.5 579.55 507.52 579.45 507.53 579.44 507.61 579.37 507.62 579.36 507.94 579.39 507.99 579.23 508.03 579.1 508.07 578.99 508.08 578.96 508.38 578.92 508.44 578.91 508.46 578.91 508.5 578.9 508.5 578.9 508.52 578.98 508.79 578.99 508.92 579.02 509.16 579.17 509.41 579.28 509.62 579.35 510.05 579.59 510.3 579.77 510.45 579.76 510.5 579.76 510.5 579.67 510.51 579.51 510.5 579.38 510.5 579.37 510.49 578.98 510.52 578.61 510.52 578.56 510.58 578.34 510.6 578.26 510.63 578.15 510.65 578.07 510.67 577.98 510.72 577.88 510.76 577.8 510.77 577.78 510.77 577.77 510.79 577.72 510.83 577.63 510.9 577.44 510.93 577.37 510.95 577.34 510.97 577.3 511.07 577.11 511.18 576.98 511.19 576.98 511.19 576.98 511.25 576.92 511.33 576.85 511.36 576.82 511.4 576.79 511.56 576.73 511.78 576.66 511.84 576.65 511.84 576.65 511.93 576.69 512.05 576.75 512.1 576.79 512.16 576.92 512.24 577.1 512.27 577.26 512.3 577.37 512.37 577.59 512.39 577.64 512.45 577.74 512.48 577.8 512.51 577.94 512.54 578.11 512.54 578.19 512.56 578.25 512.64 578.38 512.73 578.51 512.81 578.65 512.83 578.71 512.86 578.76 513 578.87 513.18 579.02 513.33 579.15 513.41 579.22 513.62 579.3 513.8 579.37 513.95 579.39 514.02 579.39 514.29 579.4 514.53 579.43 514.67 579.44 514.73 579.46 514.72 579.5 514.67 579.72 514.62 579.93 514.58 580.04 514.54 580.18 514.5 580.31 514.48 580.38 514.47 580.46 514.46 580.58 514.45 580.69 514.42 580.78 514.4 580.82 514.39 580.85 514.38 580.9 514.37 580.98 514.36 581.08 514.36 581.22 514.35 581.31 514.33 581.45 514.29 581.61 514.27 581.67 514.28 581.72 514.28 581.76 514.29 581.84 514.29 581.9 514.27 582 514.23 582.15 514.18 582.32 514.15 582.48 514.13 582.61 514.09 582.79 514.06 582.91 514.04 582.98 513.97 583.29 513.94 583.41 513.94 583.43 513.92 583.45 513.87 583.57 513.81 583.77 513.75 583.97 513.7 584.12 513.67 584.19 513.63 584.35 513.56 584.58 513.52 584.79 513.47 584.97 513.43 585.13 513.43 585.14 513.42 585.18 513.35 585.49 513.32 585.69 513.26 585.9 513.23 586.01 513.21 586.13 513.17 586.34 513.14 586.5 513.06 586.68 513.01 586.81 512.93 587.04 512.86 587.32 512.77 587.82 512.77 587.82 512.71 588.2 512.68 588.55 512.64 588.79 512.63 588.84 512.62 588.87 512.61 588.94 512.59 589.03 512.55 589.13 512.51 589.22 512.46 589.31 512.4 589.41 512.36 589.49 512.32 589.55 512.31 589.57 512.31 589.58 512.29 589.61 512.22 589.72 512.2 589.78 512.16 589.86 512.13 589.98 512.1 590.07 512.07 590.18 512.05 590.25 511.99 590.35 511.94 590.47 511.9 590.58 511.86 590.65 511.83 590.72 511.8 590.79 511.73 590.97 511.69 591.08 511.65 591.18 511.62 591.29 511.58 591.39 511.55 591.5 511.53 591.58 511.49 591.67 511.47 591.73 511.45 591.78 511.43 591.85 511.4 591.93 511.39 591.98 511.37 592.01 511.35 592.07 511.34 592.12 511.29 592.27 511.28 592.31 511.27 592.34 511.26 592.35 511.26 592.37 511.23 592.45 511.21 592.5 511.19 592.59 511.15 592.72 511.13 592.81 511.1 592.88 511.07 592.99 511.04 593.11 511.01 593.19 510.99 593.22 510.97 593.29 510.93 593.39 510.89 593.53 510.86 593.64 510.83 593.76 510.81 593.85 510.7 593.82 510.66 593.79 510.63 593.63 510.62 593.55 510.61 593.39 510.61 593.24 510.62 593.19 510.66 593.13 510.73 593.03 510.81 592.91 510.82 592.87 510.86 592.8 510.8 592.63 510.67 592.58 510.51 592.51 510.49 592.4 510.49 592.31 510.25 592.14 510.27 591.97 510.27 591.9 510.2 591.85 510.2 591.75 510.14 591.69 510.14 591.69 510.07 591.71 510.03 591.66 509.96 591.59 509.96 591.59 509.96 591.59 509.79 591.61 509.44 591.62 509.27 591.61 509.24 591.65 509.24 591.65 509.09 591.64 508.73 591.59 508.69 591.59 508.65 591.58 508.54 591.57 508.34 591.55 508.19 591.54 508.01 591.52 507.91 591.52 507.77 591.52 507.77 591.52 507.71 591.53 507.69 591.54 507.68 591.59 507.65 591.7 507.58 592.07 507.56 592.18 507.54 592.28 507.54 592.34 507.52 592.45 507.4 592.48 507.32 592.52 507.25 592.58 507.22 592.63 507.18 592.69 507.15 592.73 507.11 592.81 507.1 592.85 507.11 592.93 507.09 592.94 507.08 592.95 507.08 593 507.08 593.15 507.07 593.34 507.08 593.45 507.08 593.5 507.07 593.54 507.01 593.63 506.97 593.65 506.9 593.7 506.84 593.75 506.78 593.83 506.74 593.85 506.61 593.84 506.6 593.84 506.46 593.8 506.39 593.77 506.23 593.68 506.09 593.58 505.92 593.42 505.85 593.37 505.81 593.3 505.77 593.23 505.75 593.15 505.75 593.09 505.74 593.03 505.74 592.91 505.73 592.86 505.7 592.77 505.66 592.68 505.64 592.6 505.6 592.55 505.57 592.52 505.5 592.48 505.38 592.42 505.5 592.06 505.5 592 505.52 592 505.52 592 505.63 592.01 505.71 592.01 505.71 592.01 505.73 591.99 505.75 591.93 505.78 591.8 505.81 591.7 505.82 591.62 505.84 591.54 505.89 591.44 505.95 591.3 505.95 591.26 506 591.26 506.09 591.26 506.11 591.21 506.11 591.21 506.17 591.22 506.25 591.23 506.28 591.14 506.32 591.02 506.33 590.97 506.33 590.92 506.35 590.88 506.38 590.87 506.41 590.87 506.42 590.86 506.41 590.81 506.41 590.76 506.4 590.72 506.39 590.7 506.38 590.69 506.35 590.68 506.34 590.67 506.34 590.58 506.34 590.44 506.3 590.43 506.23 590.4 506.23 590.34 506.23 590.14 506.22 590.1 506.28 590.09 506.29 590 506.31 589.74 506.31 589.66 506.32 589.47 506.32 589.4 506.33 589.25 506.28 589.25 506.22 589.22 506.19 589.19 506.17 589.15 506.14 589.09 506.11 589.09 506.02 589.09 505.95 589.09 505.89 589.07 505.83 589.05 505.81 589.05 505.79 589.06 505.74 589.11 505.67 589.15 505.64 589.07 505.63 589.06 505.6 588.97 505.52 588.97 505.44 588.97 505.32 588.97 505.21 588.98 505.21 588.99 505.18 589.08 505.16 589.11 505.14 589.12 505.1 589.12 505 589.11 504.89 589.09 504.82 589.07 504.82 589.17 504.82 589.23 504.83 589.35 504.84 589.41 504.86 589.53 504.9 589.6 504.92 589.6 504.98 589.6 504.98 589.61 504.98 589.61 504.98 589.75 504.97 589.99 504.59 590.06 504.59 590.13 504.52 590.14 504.4 590.3 504.48 590.31 504.47 590.38 504.46 590.44 504.46 590.52 504.38 590.51 504.38 590.76 504.4 590.78 504.46 590.79 504.45 590.89 504.44 590.93 504.38 591.02 504.37 591.16 504.37 591.23 504.38 591.31 504.37 591.35 504.37 591.39 504.38 591.5 504.4 591.56 504.41 591.67 504.41 591.71 504.38 591.74 504.37 591.76 504.37 591.8 504.39 591.9 504.42 592.01 504.42 592.09 504.4 592.21 504.37 592.25 504.33 592.28 504.24 592.36 504.16 592.42 504.06 592.46 503.98 592.47 503.87 592.46 503.78 592.33 503.77 592.33 503.67 592.33 503.62 592.33 503.55 592.34 503.43 592.35 503.3 592.38 503.16 592.41 503.11 592.42 503.1 592.39 503.06 592.2 503.04 592.07 503.03 592.03 503.1 592.01 503.1 591.88 503.23 591.87 503.21 591.6 503.19 591.41 503.18 591.25 503.17 591.18 503.15 591.12 503.14 591.05 503.12 591 503.07 590.96 503.01 590.9 503 590.87 502.99 590.84 502.99 590.74 502.99 590.7 502.98 590.67 502.94 590.63 502.85 590.54 502.77 590.47 502.71 590.45 502.67 590.44 502.43 590.44 502.27 590.42 502.03 590.36 501.88 590.33 501.86 590.7 501.69 590.71 501.46 590.71 501.22 590.73 501.1 590.75 501.04 590.74 500.97 590.73 500.85 590.72 500.71 590.7 500.57 590.7 500.5 590.7 500.45 590.93 500.32 591.34 500.3 591.4 500.3 591.46 500.32 591.67 500.33 591.84 500.33 591.85 500.23 591.82 500.17 591.79 500.1 591.71 500.02 591.63 499.97 591.55 499.92 591.47 499.85 591.31 499.83 591.27 499.76 591.14 499.7 591.06 499.64 590.97 499.58 590.92 499.6 590.65 499.6 590.58 499.59 590.53 499.5 590.39 499.49 590.33 499.5 590.2 499.48 590.2 499.33 590.16 499.33 590.15 499.31 590.08 499.3 590.05 499.27 590.03 499.23 590.03 499.18 590.02 499.14 590 499.13 589.97 499.09 589.93 499.04 589.91 498.97 589.91 498.97 589.72 499 589.29 499.01 589.06 499.03 588.85 499.05 588.72 499.08 588.37 499.09 588.27 499.1 588.18 499.11 588.05 499.12 587.99 499.13 587.93 499.15 587.9 499.19 587.87 499.21 587.84 499.23 587.79 499.26 587.73 499.27 587.67 499.17 587.64 499.19 587.52 499.19 587.49 499.18 587.47 499.16 587.47 499.12 587.47 499.09 587.47 499.02 587.48 498.96 587.49 498.82 587.48 498.51 587.48 498.33 587.48 498.12 587.48 497.95 587.48 497.94 587.54 497.77 587.54 497.62 587.55 497.59 587.66 497.59 587.78 497.36 587.8 497.02 587.8 496.87 587.81 496.78 587.8 496.75 587.81 496.71 587.82 496.65 587.82 496.6 587.81 496.56 587.8 496.49 587.79 496.39 587.8 496.34 587.81 496.21 587.85 496.18 587.86 496.17 587.87 496.18 587.89 496.21 587.9 496.25 587.92 496.26 587.94 496.27 587.96 496.28 587.99 496.28 588.02 496.26 588.06 496.25 588.09 496.23 588.13 496.22 588.17 496.22 588.21 496.22 588.3 496.21 588.46 495.86 588.47 495.6 588.48 495.24 588.49 494.9 588.49 494.9 588.49 494.89 588.42 494.89 588.38 494.88 588.13 494.87 587.88 494.87 587.85 494.88 587.68 494.88 587.6 494.88 587.5 494.88 587.28 494.88 587.18 495.03 587.18 495.32 587.18 495.63 587.16 495.85 587.14 495.95 587.13 495.93 587.52 495.97 587.52 496.01 587.52 496.16 587.51 496.29 587.51 496.34 587.51 496.43 587.51 496.43 587.41 496.44 587.27 496.45 587.19 496.46 587.06 496.46 586.99 496.47 586.83 496.51 586.82 496.53 586.82 496.63 586.81 496.7 586.81 496.73 586.8 496.86 586.79 497.01 586.8 497.19 586.82 497.19 586.82 497.19 586.78 497.19 586.78 497.2 586.77 497.45 586.8 497.46 586.53 497.47 586.35 497.48 586.07 497.49 585.88 497.71 585.88 497.72 585.79 497.73 585.77 497.75 585.6 497.74 585.59 497.71 585.59 497.73 585.38 497.73 585.25 497.47 585.21 497.47 585.18 497.47 585.17 497.48 585.11 497.49 585.09 497.49 585.07 497.49 585.07 497.5 585.04 497.51 584.99 497.49 584.92 497.47 584.84 497.45 584.81 497.44 584.7 497.45 584.69 497.46 584.52 497.48 584.41 497.49 584.3 497.5 584.24 497.5 584.24 497.52 584.03 497.54 583.94 497.55 583.88 497.55 583.85 497.58 583.85 497.61 583.85 497.84 583.85 498.15 583.85 498.27 583.85 498.54 583.86 498.65 583.86 498.7 583.87 498.8 583.87 498.83 583.84 498.92 583.83 498.99 583.83 499.11 583.83 499.28 583.84 499.59 583.85 499.84 583.86 499.92 583.86 500 583.86 500.1 583.87 500.21 583.87 500.22 583.87 500.17 584.22 500.17 584.23 500.17 584.24 500.16 584.39 500.13 584.56 499.96 584.56 499.72 584.55 499.51 584.54 499.44 584.54 499.41 584.53 499.39 584.53 499.36 584.53 499.27 584.53 499.23 584.53 499.21 584.53 499.1 584.53 499.02 584.53 498.79 584.53 498.78 584.53 498.78 584.77 498.79 585.18 498.79 585.33 498.78 585.54 498.87 585.59 498.94 585.61 498.96 585.62 499.06 585.65 499.05 585.75 499.05 585.76 499.01 585.98 498.88 585.99 498.84 586.13 498.83 586.19 498.72 586.25 498.69 586.43 498.67 586.54 498.66 586.59 498.62 586.9 498.7 586.92 498.77 586.93 498.8 586.94 498.83 586.94 498.88 586.95 498.99 586.97 499.03 586.98 499.07 586.99 499.12 587.02 499.13 587.03 499.15 587.05 499.13 587.07 499.13 587.07 499.12 587.08 499.12 587.08 499.12 587.08 499.12 587.08 499.13 587.12 499.13 587.13 499.13 587.13 499.13 587.15 499.14 587.16 499.16 587.18 499.23 587.23 499.23 587.24 499.24 587.24 499.24 587.24 499.24 587.24 499.29 587.28 499.31 587.29 499.31 587.29 499.32 587.29 499.34 587.3 499.34 587.3 499.37 587.3 499.38 587.29 499.39 587.29 499.4 587.29 499.4 587.29 499.4 587.29 499.42 587.28 499.43 587.27 499.43 587.27 499.43 587.26 499.44 587.22 499.45 587.21 499.46 587.19 499.46 587.19 499.46 587.18 499.47 587.17 499.49 587.16 499.51 587.16 499.53 587.17 499.55 587.2 499.56 587.23 499.58 587.25 499.6 587.26 499.61 587.26 499.61 587.26 499.62 587.25 499.63 587.25 499.63 587.25 499.64 587.24 499.65 587.22 499.66 587.21 499.66 587.21 499.67 587.2 499.68 587.19 499.69 587.18 499.69 587.18 499.7 587.18 499.72 587.18 499.72 587.18 499.73 587.18 499.76 587.18 499.77 587.18 499.77 587.18 499.8 587.18 499.82 587.18 499.82 587.18 499.82 587.18 499.83 587.17 499.85 587.16 499.88 587.14 499.88 587.14 499.88 587.14 499.9 587.12 499.92 587.08 499.92 587.08 499.92 587.08 499.93 587.07 499.95 587.05 499.96 587.05 499.96 587.05 499.97 587.04 499.99 587.04 500 587.04 500 587.04 500.03 587.06 500.05 587.07 500.07 587.09 500.09 587.1 500.09 587.1 500.13 587.14 500.14 587.16 500.17 587.23 500.17 587.23 500.17 587.24 500.19 587.27 500.2 587.3 500.2 587.3 500.21 587.31 500.22 587.31 500.23 587.33 500.24 587.33 500.24 587.33 500.25 587.34 500.28 587.34 500.3 587.34 500.3 587.34 500.33 587.33 500.35 587.32 500.35 587.32 500.38 587.32 500.42 587.31 500.46 587.31 500.49 587.32 500.52 587.34 500.52 587.34 500.57 587.36 500.59 587.37 500.59 587.37 500.61 587.38 500.61 587.38 500.61 587.38 500.67 587.41 500.67 587.41 500.66 587.42 500.66 587.42 500.65 587.42 500.64 587.42 500.64 587.42 500.63 587.43 500.62 587.44 500.62 587.44 500.62 587.44 500.62 587.45 500.63 587.47 500.65 587.48 500.65 587.48 500.66 587.49 500.73 587.52 500.75 587.53 500.75 587.53 500.77 587.54 500.81 587.55 500.87 587.56 500.93 587.52 500.96 587.49 500.96 587.47 500.96 587.45 500.94 587.43 500.93 587.43 500.88 587.41 500.77 587.39 500.77 587.38 500.77 587.37 500.77 587.36 500.77 587.36 500.77 587.35 500.77 587.34 500.75 587.32 500.75 587.32 500.75 587.31 500.71 587.26 500.71 587.26 500.71 587.25 500.7 587.24 500.7 587.24 500.69 587.22 500.69 587.21 500.69 587.21 500.69 587.21 500.69 587.2 500.7 587.19 500.71 587.17 500.73 587.17 500.73 587.17 500.73 587.17 500.77 587.17 500.78 587.17 500.78 587.17 500.8 587.17 500.81 587.17 500.81 587.17 500.82 587.17 500.85 587.16 500.88 587.15 500.89 587.15 500.89 587.15 500.9 587.15 500.92 587.16 500.93 587.17 500.93 587.17 500.93 587.17 500.93 587.18 500.93 587.18 500.93 587.21 500.93 587.23 500.93 587.23 500.93 587.24 500.94 587.28 500.95 587.31 500.96 587.31 500.96 587.31 500.97 587.32 500.98 587.32 500.98 587.32 500.99 587.32 501.01 587.31 501.02 587.3 501.02 587.3 501.02 587.29 501.04 587.26 501.05 587.26 501.05 587.26 501.06 587.26 501.08 587.25 501.11 587.26 501.16 587.29 501.16 587.29 501.18 587.3 501.25 587.34 501.26 587.35 501.29 587.36 501.31 587.37 501.35 587.37 501.39 587.37 501.42 587.36 501.43 587.36 501.43 587.36 501.43 587.36 501.43 587.35 501.43 587.35 501.43 587.35 501.44 587.33 501.46 587.28 501.46 587.28 501.49 587.23 501.5 587.21 501.51 587.18 501.62 587.18 501.62 587.16 501.62 587.16 501.62 587.1 501.62 587.04 501.62 587.03 501.62 587 501.62 586.92 501.63 586.62 501.64 586.42 501.65 586.23 501.65 586.22 501.65 586.16 501.64 586.04 501.65 585.93 501.7 585.93 501.7 585.92 501.7 585.92 501.72 585.79 501.87 585.76 501.88 585.76 501.97 585.74 501.97 585.69 502.09 585.69 502.18 585.69 502.25 585.69 502.35 585.69 502.35 585.69 502.37 585.69 502.46 585.68 502.53 585.67 502.54 585.67 502.54 585.67 502.59 585.66 502.67 585.62 502.72 585.6 502.8 585.55 502.84 585.52 502.83 585.5 502.82 585.49 502.75 585.41 502.62 585.25 502.57 585.19 502.44 585.04 502.37 584.98 502.33 584.94 502.23 584.85 502.11 584.74 502.05 584.69 501.96 584.64 501.88 584.58 501.85 584.54 501.84 584.54 501.83 584.52 501.75 584.43 501.73 584.38 501.71 584.35 501.69 584.33 501.57 584.13 501.49 584.03 501.46 583.99 501.39 583.91 501.26 583.7 501.21 583.63 501.15 583.52 501.14 583.52 501.1 583.45 501.08 583.43 501.07 583.42 501.04 583.38 500.85 583.23 500.64 583.07 500.39 582.89 500.38 582.89 500.2 582.77 500.14 582.72 500.09 582.67 500.1 582.6 500.11 582.53 500.11 582.53 500.14 582.41 500.15 582.36 500.12 582.33 500.14 582.27 500.19 582.11 500.26 581.88 500.27 581.84 500.28 581.8 500.31 581.69 500.32 581.61 500.37 581.42 500.4 581.28 500.44 581.08 500.45 581.01 500.46 580.98 500.47 580.93 500.47 580.89 500.48 580.86 500.49 580.75 500.33 580.69 500.19 580.62 499.87 580.49 499.85 580.48 499.77 580.45 499.66 580.41 499.62 580.39 499.56 580.36 499.48 580.32 499.47 580.31 499.37 580.25 499.3 580.22 499.16 580.14 499.14 580.2 499.12 580.26 499.09 580.43 498.99 580.41 499 580.47 499 580.53 498.95 580.54 498.95 580.58 498.96 580.75 498.96 580.88 498.95 581.11 498.96 581.17 498.97 581.25 498.99 581.29 499 581.31 499.06 581.48 499.09 581.55 499.1 581.61 499.1 581.62 499.12 581.69 499.14 581.77 499.15 581.79 499.21 581.93 499.3 582.1 499.34 582.18 499.31 582.17 499.29 582.16 499.21 582.12 499.15 582.08 499.08 582.05 499.01 582.02 498.87 581.98 498.82 581.95 498.8 581.93 498.79 581.92 498.78 581.9 498.78 581.87 498.78 581.84 498.78 581.82 498.79 581.74 498.79 581.71 498.79 581.69 498.78 581.67 498.72 581.57 498.7 581.53 498.66 581.46 498.63 581.42 498.57 581.37 498.55 581.35 498.52 581.32 498.49 581.3 498.46 581.29 498.43 581.28 498.4 581.27 498.37 581.26 498.33 581.25 498.3 581.25 498.24 581.24 498.21 581.23 498.2 581.17 497.88 581.14 497.69 581.13 497.63 581.03 497.61 580.96 497.59 580.93 497.58 580.88 497.57 580.84 497.56 580.83 497.55 580.82 497.53 580.79 497.53 580.79 497.52 580.78 497.52 580.75 497.51 580.45 497.51 580.42 497.5 580.41 497.33 580.27 497.3 580.24 497.29 580.24 497.3 580.18 497.29 580.17 497.26 580.16 497.27 580.13 497.28 580.1 497.17 580.05 497.17 580.05 497.17 580.05 497.02 579.97 497.02 579.95 497.02 579.95 497.03 579.91 497.03 579.89 497.06 579.74 497.07 579.7 497.09 579.62 497.12 579.49 497.13 579.43 497.17 579.23 497.2 579.24 497.24 579.25 497.29 579.06 497.29 579.05 497.3 579.05 497.36 578.84 497.45 578.6 497.45 578.6 497.46 578.58 497.48 578.49 497.5 578.45 497.5 578.45 497.57 578.55 497.65 578.69 497.73 578.8 497.77 578.86 497.78 578.85 497.86 578.78 497.94 578.7 497.97 578.68 497.97 578.67 498.03 578.58 498.07 578.58 498.07 578.58 498.12 578.6 498.14 578.6 498.17 578.52 498.18 578.48 498.24 578.33 498.25 578.33 498.27 578.33 498.3 578.34 498.31 578.34 498.33 578.34 498.35 578.34 498.38 578.31 498.45 578.26 498.41 578.21 498.39 578.17 498.32 578.08 498.4 578.07 498.46 578.06 498.7 578.06 498.72 578.11 498.73 578.16 498.88 578.18 498.9 578.19 498.94 578.2 499.07 578.22 499.23 578.23 499.3 578.05 499.32 578.05 499.35 578.06 499.35 578.06 499.36 578.06 499.37 578.03 499.4 578.01 499.4 578.01 499.45 578.01 499.7 578.08 499.72 577.99 499.77 578 499.8 578 499.88 577.77 499.88 577.76 499.92 577.59 499.88 577.55 499.86 577.53 499.75 577.45 499.75 577.39 499.72 577.4 499.67 577.41 499.57 577.35 499.56 577.34 499.55 577.32 499.55 577.29 499.49 577.28 499.47 577.19 499.47 577.19 499.47 577.19 499.46 577.19 499.31 577.17 499.3 577.03 499.25 577.03 499.25 577.03 499.12 577.02 499.12 577.02 499.18 576.95 499.21 576.93 499.25 576.88 499.26 576.86 499.27 576.82 499.31 576.65 499.36 576.4 499.39 576.25 499.42 576.11 499.49 575.72 499.76 575.74 499.74 575.91 499.85 575.92 499.91 575.93 499.97 575.82 500.12 575.64 500.29 575.44 500.29 575.43 500.32 575.4 500.33 575.37 500.33 575.36 500.34 575.29 500.36 575.18 500.37 575.13 500.43 575.03 500.43 575.03 500.43 575.02 500.46 574.97 500.64 574.99 500.77 575 500.79 574.95 500.8 574.93 501.38 575.03 501.47 574.87 501.54 574.89 501.64 574.92 501.79 574.95 501.8 574.91 501.81 574.88 501.99 574.91 502.05 574.76 502.16 574.41 502.21 574.4 502.27 574.4 502.28 574.36 502.34 574.36 502.42 574.36 502.42 574.29 502.48 574.28 502.5 573.99 502.6 573.99 502.76 573.99 502.78 573.95 502.78 573.95 502.86 573.95 502.93 573.96 502.93 573.95 502.95 573.94 502.96 573.63 503.05 573.65 503.18 573.67 503.22 573.66 503.24 573.64 503.28 573.57 503.33 573.39 503.36 573.35 503.44 573.28 503.55 573.18 503.59 573.19 Z M 506.96 585.58 506.94 585.96 506.56 585.96 506.56 585.86 506.3 585.85 506.23 585.97 506.23 586.1 506.66 586.13 506.66 586.3 506.57 586.29 506.51 586.58 506.38 587.29 506.45 587.38 506.44 587.46 506.42 587.51 506.43 587.6 506.45 587.69 506.53 587.83 506.56 587.95 506.54 587.99 506.42 588.11 506.44 588.19 506.56 588.16 506.74 588.2 506.72 588.35 506.72 588.54 506.68 588.77 506.67 588.98 506.65 589.18 506.65 589.18 506.73 589.18 506.73 589.18 506.73 589.18 506.78 589.02 506.81 588.99 506.92 588.9 507.06 588.82 507.14 588.84 507.3 588.87 507.38 588.89 507.38 588.89 507.38 588.89 507.41 588.87 507.47 588.85 507.45 588.96 507.45 589.02 507.51 589.15 507.49 589.43 507.49 589.52 507.45 589.77 507.41 589.96 507.39 589.96 507.39 589.98 507.37 589.99 507.37 589.99 507.34 590 507.33 590.04 507.32 590.09 507.3 590.09 507.3 590.12 507.3 590.12 507.25 590.21 507.23 590.21 507.23 590.24 507.26 590.24 507.26 590.22 507.32 590.23 507.32 590.36 507.32 590.37 507.32 590.61 507.31 590.61 507.31 590.64 507.33 590.64 507.58 590.69 507.58 590.69 507.58 590.69 507.63 590.68 507.65 590.63 507.67 590.63 507.67 590.61 507.78 590.63 507.78 590.68 507.79 590.68 508.09 590.67 508.09 590.68 508.12 590.68 508.12 590.65 508.12 590.65 508.31 589.97 508.34 589.79 508.31 589.63 508.36 589.41 508.38 589.41 508.38 589.39 508.45 589.37 508.48 589.37 508.48 589.34 508.47 589.34 508.49 589.22 508.57 589.17 508.6 589.13 508.63 589.01 508.65 588.95 508.72 588.93 508.73 588.99 508.73 588.99 508.98 588.99 508.98 588.99 509 588.86 508.91 588.85 508.93 588.66 508.95 588.56 509.02 588.43 509.04 588.4 509.08 588.34 509.11 588.26 509.11 588.16 509.25 587.98 509.27 587.98 509.27 587.95 509.26 587.95 509.25 587.83 509.28 587.64 509.3 587.64 509.3 587.61 509.29 587.61 509.33 587.42 509.37 587.22 509.44 587.09 509.5 586.88 509.49 586.65 509.5 586.42 509.47 586.2 509.47 586.2 509.47 586.2 509.32 586.27 509.17 586.31 509.05 586.43 508.88 586.47 508.77 586.54 508.55 586.58 508.42 586.57 508.27 586.41 508.14 586.29 507.99 586.18 507.93 586.13 507.82 586.03 507.74 585.91 507.69 585.85 507.69 585.85 507.61 585.82 507.57 585.77 507.5 585.69 507.46 585.66 507.37 585.62 507.26 585.61 507.1 585.59 506.96 585.58 Z M 509.01 570.99 509.02 571.05 509.08 571.04 509.1 571.04 509.15 571.03 509.2 571.02 509.29 571.01 509.42 571 509.5 571.01 509.55 571.01 509.59 571.03 509.7 571.04 509.79 571.02 509.89 571.01 510.06 570.98 510.23 570.99 510.32 570.99 510.37 570.99 510.43 570.99 510.5 571.07 510.58 571.16 510.6 571.19 510.57 571.23 510.56 571.24 510.51 571.31 510.53 571.4 510.53 571.41 510.53 571.44 510.53 571.5 510.51 571.58 510.47 571.62 510.47 571.62 510.45 571.64 510.34 571.73 510.21 571.8 510.16 571.87 510.14 571.96 510.14 571.97 510.15 572.02 510.15 572.03 510.15 572.03 510.15 572.03 510.13 572.05 510.04 572.06 509.85 572.08 509.83 572.08 509.54 572.1 509.5 572.09 509.5 572.09 509.5 572.09 509.46 572.08 509.43 572.06 509.43 572.06 509.41 572.03 509.39 572 509.34 572.02 509.34 572.03 509.34 572.03 509.32 572.07 509.31 572.08 509.31 572.08 509.31 572.08 509.27 572.08 509.14 572.06 509.11 572.05 509.03 572.01 508.92 571.99 508.8 571.97 508.71 571.95 508.62 571.91 508.64 571.84 508.65 571.81 508.67 571.7 508.67 571.67 508.67 571.62 508.67 571.61 508.67 571.6 508.67 571.59 508.69 571.5 508.71 571.42 508.72 571.35 508.72 571.32 508.72 571.29 508.68 571.18 508.66 571.15 508.66 571.14 508.63 571.1 508.58 571.01 508.58 571 508.57 570.96 508.58 570.93 508.61 570.92 508.65 570.93 508.74 570.94 508.84 570.97 508.93 570.98 508.97 570.98 509.01 570.99 Z M 489.49 570.18 489.65 570.29 489.73 570.31 489.85 570.29 489.96 570.38 490.01 570.41 490.11 570.42 490.14 570.57 490.19 570.53 490.3 570.51 490.34 570.52 490.29 570.65 490.33 570.67 490.47 570.67 490.53 570.74 490.6 570.87 490.69 570.78 490.79 570.73 490.88 570.72 491.1 570.72 491.21 570.73 491.35 570.76 491.46 570.81 491.54 570.89 491.61 570.99 491.66 571.05 491.73 571.1 491.89 571.21 492 571.31 492.13 571.39 492.17 571.42 492.2 571.44 492.2 571.45 492.2 571.45 492.09 571.55 492.01 571.63 491.98 571.66 491.96 571.67 491.93 571.75 491.91 571.78 491.82 571.81 491.81 571.87 491.79 571.93 491.79 571.93 491.77 572.04 491.78 572.07 491.83 572.17 491.76 572.19 491.72 572.2 491.71 572.29 491.71 572.32 491.7 572.46 491.69 572.53 491.68 572.53 491.66 572.57 491.6 572.64 491.63 572.75 491.64 572.81 491.63 572.87 491.62 572.95 491.61 573.06 491.6 573.1 491.58 573.22 491.56 573.3 491.55 573.35 491.54 573.38 491.52 573.51 491.35 573.45 491.35 573.45 491.32 573.57 491.31 573.6 491.3 573.64 491.28 573.72 491.27 573.81 491.26 573.91 491.19 574.11 491.17 574.16 491.16 574.17 491.16 574.17 491.14 574.21 491.11 574.24 491.09 574.26 491.08 574.26 491.06 574.28 491.01 574.29 490.98 574.29 490.95 574.29 490.87 574.29 490.78 574.28 490.65 574.27 490.56 574.26 490.55 574.3 490.54 574.32 490.49 574.31 490.47 574.31 490.43 574.47 490.43 574.5 490.41 574.55 490.43 574.58 490.46 574.61 490.5 574.64 490.63 574.81 490.66 574.86 490.91 575 491.06 575.09 491.05 575.13 491.05 575.15 491.04 575.15 490.93 575.16 490.91 575.31 490.89 575.43 490.88 575.49 490.86 575.52 490.86 575.52 490.79 575.5 490.72 575.67 490.69 575.74 490.68 575.79 490.64 575.9 490.61 575.98 490.6 576.01 490.58 576.12 490.58 576.18 490.58 576.23 490.57 576.35 490.56 576.42 490.55 576.44 490.54 576.51 490.5 576.63 490.49 576.66 490.48 576.7 490.46 576.75 490.53 576.78 490.58 576.8 490.75 576.87 490.83 576.9 490.92 576.94 490.92 576.99 490.92 577.06 490.93 577.18 490.93 577.28 490.94 577.3 490.96 577.32 490.97 577.33 490.98 577.34 490.99 577.36 490.99 577.45 490.99 577.49 491 577.55 491.01 577.56 491.02 577.57 491.04 577.57 491.05 577.58 491.05 577.6 491.04 577.63 491.05 577.64 491.17 577.68 491.22 577.69 491.32 577.73 491.4 577.76 491.45 577.78 491.53 577.81 491.59 577.84 491.64 577.86 491.69 577.89 491.72 577.92 491.74 577.93 491.75 577.94 491.78 577.95 491.81 577.95 491.89 577.99 491.89 578.01 491.88 578.02 491.85 578.14 491.81 578.27 491.78 578.39 491.78 578.49 491.78 578.56 491.8 578.62 491.81 578.66 491.79 578.74 491.77 578.82 491.77 578.87 491.76 578.94 491.76 578.97 491.78 579.05 491.79 579.1 491.79 579.14 491.76 579.18 491.73 579.22 491.71 579.28 491.69 579.32 491.7 579.34 491.71 579.39 491.75 579.42 491.77 579.47 491.74 579.7 491.67 579.7 491.46 579.67 491.14 579.63 491.13 579.86 491.11 580.09 491.09 580.3 491.1 580.38 491.14 580.41 491.17 580.44 491.18 580.79 491.19 581.07 491.19 581.06 491.2 581.06 491.2 581.06 491.27 581 491.33 580.95 491.44 580.86 491.55 580.81 491.65 580.78 491.69 580.78 491.73 580.77 491.83 580.77 491.84 580.77 491.84 580.77 491.88 580.77 491.93 580.78 491.97 580.79 492.06 580.83 492.16 580.86 492.16 580.86 492.3 580.89 492.3 580.86 492.3 580.85 492.31 580.65 492.32 580.59 492.33 580.51 492.38 580.51 492.4 580.42 492.41 580.33 492.61 580.34 492.8 580.34 492.81 580.34 492.95 580.35 492.95 580.36 492.95 580.39 492.91 580.43 492.85 580.43 492.85 580.46 492.84 580.48 492.84 580.48 492.87 580.51 492.88 580.53 492.93 580.59 492.93 580.6 492.93 580.6 492.94 580.67 492.95 580.7 492.96 580.71 492.96 580.71 492.96 580.72 492.98 580.73 492.99 580.73 493.04 580.74 493.08 580.76 493.09 580.77 493.09 580.77 493.09 580.94 493.09 581.09 493.09 581.09 493.11 581.1 493.17 581.1 493.18 581.11 493.18 581.14 493.19 581.14 493.25 581.14 493.3 581.14 493.3 581.14 493.3 581.15 493.3 581.16 493.3 581.23 493.3 581.3 493.3 581.3 493.32 581.31 493.33 581.32 493.33 581.32 493.34 581.5 493.33 581.67 493.33 581.67 493.64 581.69 493.76 581.69 493.75 581.53 493.85 581.55 493.97 581.57 494.14 581.6 494.22 581.61 494.36 581.63 494.36 581.63 494.39 581.87 494.39 581.87 494.45 581.87 494.47 581.87 494.47 581.87 494.48 581.91 494.48 581.93 494.41 581.94 494.41 581.98 494.44 582.11 494.46 582.17 494.48 582.21 494.43 582.21 494.41 582.21 494.41 582.34 494.42 582.34 494.52 582.35 494.52 582.35 494.5 582.56 494.49 582.56 494.48 582.56 494.42 582.57 494.42 582.83 494.36 582.83 494.35 582.98 494.32 583.02 494.31 583.32 494.31 583.48 494.32 583.63 494.3 583.84 494.3 583.95 493.97 583.96 493.8 583.97 493.56 583.96 493.55 584.17 493.36 584.19 493.37 584.32 493.37 584.32 493.56 584.33 493.56 584.33 493.56 584.42 493.56 584.58 493.25 584.58 492.95 584.59 492.78 584.6 492.77 584.6 492.77 584.69 492.77 585.01 492.76 585.19 492.75 585.2 492.61 585.21 492.5 585.21 492.29 585.22 492.11 585.22 492.05 585.22 491.85 585.22 491.85 585.22 491.67 585.22 491.33 585.21 491.11 585.21 490.99 585.21 490.99 585.3 490.97 585.52 490.94 585.89 490.82 585.87 490.74 585.89 490.53 585.96 490.48 585.98 490.44 585.98 490.29 585.98 490.21 585.98 490.05 585.99 489.92 586 489.84 585.98 489.77 585.97 489.72 585.97 489.65 585.95 489.57 585.93 489.37 585.84 489.25 585.8 489.12 585.78 489.12 585.78 489.11 585.78 489.15 585.59 489.19 585.44 489.22 585.34 489.24 585.22 489.24 585.14 489.26 585.08 489.28 585.03 489.31 584.95 489.34 584.86 489.37 584.64 489.39 584.51 489.42 584.33 489.46 583.98 489.49 583.86 489.48 583.8 489.47 583.76 489.46 583.74 489.43 583.66 489.43 583.66 489.38 583.58 489.32 583.52 489.27 583.49 489.23 583.48 489.18 583.48 489.14 583.46 489.05 583.42 488.76 583.24 488.57 583.14 488.31 583 488.31 583 488.32 582.85 488.34 582.67 488.36 582.49 488.36 582.49 488.31 582.48 488.31 582.48 488.31 582.46 488.33 582.28 488.33 582.28 488.28 582.27 488.28 582.27 488.29 582.18 488.31 581.95 488.31 581.79 488.31 581.79 488.25 581.79 488.25 581.79 488.25 581.79 488.26 581.67 488.31 581.43 488.33 581.27 488.36 581.02 488.36 580.92 488.36 580.91 488.36 580.92 488.45 580.93 488.48 580.93 488.62 580.95 488.66 580.95 488.69 580.95 488.71 580.94 488.73 580.94 488.78 580.93 488.85 580.93 488.85 580.93 488.91 580.93 488.97 580.95 488.98 580.95 489.06 580.94 489.1 580.91 489.1 580.91 489.13 580.89 489.19 580.85 489.21 580.84 489.29 580.8 489.33 580.78 489.39 580.75 489.43 580.73 489.49 580.7 489.49 580.69 489.5 580.45 489.52 580.22 489.52 580.02 489.53 579.69 489.53 579.54 489.54 579.33 489.54 579.07 489.54 578.95 489.49 578.94 489.48 578.91 489.46 578.85 489.44 578.8 489.42 578.76 489.38 578.7 489.36 578.65 489.35 578.6 489.34 578.56 489.33 578.52 489.3 578.44 489.29 578.39 489.29 578.32 489.31 578.23 489.34 578.12 489.39 577.92 489.28 577.89 489.25 577.88 489.03 577.81 488.97 577.8 488.94 577.79 488.87 577.79 488.8 577.78 488.8 577.72 488.79 577.7 488.69 577.7 488.34 577.7 488.34 577.65 488.33 577.63 488.34 577.59 488.35 577.57 488.38 577.55 488.65 577.32 488.79 577.2 488.95 577.05 489.02 576.99 489.05 576.97 489.05 576.94 489.04 576.84 489 576.83 489 576.83 489 576.66 488.97 576.66 488.95 576.66 488.96 576.49 488.99 576.48 489.01 576.48 489.01 576.47 489.03 576.27 488.61 576.2 488.6 576.01 488.49 576.01 488.48 576.01 488.48 575.94 488.48 575.9 488.38 575.89 488.27 575.88 488.26 575.84 488.26 575.8 488.21 575.8 488.21 575.76 488.21 575.67 488.25 575.67 488.25 575.64 488.26 575.61 488.25 575.54 488.2 575.54 488.18 575.54 488.18 575.43 488.17 575.33 488.17 575.33 488.36 575.34 488.75 575.36 488.87 575.36 488.94 575.36 488.95 575.34 488.97 575.3 488.99 575.21 489.04 575.03 489.06 574.84 489.07 574.79 489.07 574.78 489.09 574.71 489.09 574.7 489.14 574.53 489.19 574.37 489.2 574.34 489.26 574.03 489.22 574.03 489.11 574.02 488.99 574.02 488.92 574.02 488.64 574.01 488.47 574.02 488.41 573.9 488.41 573.75 488.43 573.5 488.43 573.49 488.43 573.48 488.45 573.33 488.56 572.98 488.61 572.72 488.63 572.58 488.62 572.55 488.6 572.44 488.71 572.38 488.95 572.3 489.02 572.28 489.1 572.25 489.14 572.23 489.21 572.21 489.27 572.17 489.34 572.11 489.39 572.06 489.48 571.94 489.59 571.8 489.53 571.73 489.5 571.63 489.47 571.54 489.48 571.34 489.49 571.25 489.39 571.26 489.34 571.25 489.33 571.2 489.38 570.83 489.28 570.75 489.28 570.68 489.21 570.63 489.2 570.59 489.22 570.48 489.15 570.42 489.17 570.35 489.13 570.29 489.16 570.23 489.18 570.19 489.36 570.19 489.49 570.18 Z M 497.67 570.16 497.72 570.17 497.76 570.1 497.89 570.13 497.93 570.14 497.97 570.14 498.05 570.15 498.06 570.16 498.07 570.16 498.07 570.19 498.19 570.2 498.26 570.21 498.33 570.22 498.33 570.25 498.38 570.27 498.4 570.28 498.41 570.29 498.46 570.3 498.49 570.4 498.53 570.53 498.54 570.6 498.55 570.73 498.55 570.83 498.54 570.88 498.53 570.91 498.51 571.01 498.49 571.15 498.47 571.26 498.45 571.37 498.44 571.4 498.44 571.45 498.43 571.5 498.43 571.55 498.43 571.62 498.42 571.75 498.36 571.75 498.35 571.75 498.35 571.88 498.33 571.95 498.32 571.98 498.3 572 498.29 572.03 498.28 572.05 498.26 572.11 498.24 572.21 498.23 572.34 498.22 572.38 498.21 572.42 498.26 572.46 498.34 572.53 498.33 572.77 498.32 572.88 498.32 572.88 498.32 572.91 498.37 572.92 498.4 572.93 498.39 573.11 498.53 573.12 498.54 573.19 498.62 573.21 498.71 573.23 498.76 573.25 498.78 573.27 498.8 573.28 498.79 573.36 498.91 573.37 498.97 573.48 498.98 573.51 499 573.59 499.13 573.62 499.34 573.66 499.36 573.66 499.38 573.67 499.4 573.81 499.43 573.81 499.51 573.93 499.52 573.93 499.69 574 499.72 574.01 499.82 574.07 499.82 574.11 499.81 574.17 499.86 574.19 499.85 574.31 499.93 574.32 500 574.34 500.11 574.36 500.1 574.53 500.09 574.58 500.11 574.6 500.13 574.61 500.15 574.63 500.19 574.66 500.21 574.68 500.16 574.95 500.36 574.95 500.35 575.04 500.27 575.03 500.14 575.03 500.12 575.1 500.15 575.11 500.18 575.11 500.17 575.19 500.16 575.25 500.12 575.26 500.07 575.26 499.9 575.24 499.76 575.22 499.76 575.22 499.74 575.21 499.65 575.18 499.37 575.05 499.32 575.03 499.06 574.91 498.91 574.83 498.86 574.79 498.84 574.78 498.82 574.77 498.75 574.75 498.72 574.75 498.69 574.74 498.67 574.82 498.47 574.81 498.3 574.8 498.28 574.89 498.22 574.88 498.21 574.97 498.2 575.02 498.19 575.07 498.05 575.05 498.04 575.07 498.03 575.1 497.85 575.07 497.81 575.07 497.74 575.06 497.67 575.06 497.55 575.06 497.39 575.06 497.38 575.11 497.38 575.17 497.37 575.17 497.31 575.17 497.3 575.24 497.3 575.26 497.25 575.25 497.25 575.27 497.25 575.3 497.15 575.31 497.02 575.29 497.02 575.3 497.01 575.33 496.97 575.32 496.95 575.32 496.77 575.29 496.71 575.27 496.45 575.18 496.45 575.17 496.44 575.17 496.29 575.1 496.27 575.14 496.25 575.21 496.2 575.27 496.16 575.33 496.14 575.35 496.11 575.37 496.03 575.4 496.03 575.5 496.02 575.53 496.02 575.56 495.99 575.62 495.96 575.7 495.94 575.71 495.92 575.73 495.88 575.8 495.87 575.82 495.81 575.83 495.79 575.95 495.78 576.02 495.77 576.02 495.75 576.09 495.71 576.06 495.69 576.05 495.64 576 495.58 575.94 495.48 575.83 495.41 575.75 495.35 575.65 495.3 575.51 495.26 575.44 495.25 575.41 495.14 575.27 495.05 575.12 495.03 575.08 495.01 575.04 494.98 574.99 494.96 574.94 494.95 574.89 494.94 574.85 494.92 574.68 494.68 574.72 494.6 574.85 494.54 574.91 494.5 574.94 494.39 574.98 494.34 575 494.25 575.06 494.17 575.13 494.15 575.16 494.13 575.18 494.07 575.19 493.95 575.21 493.87 575.23 493.84 575.23 493.75 575.24 493.68 575.26 493.67 575.26 493.61 575.33 493.58 575.34 493.56 575.35 493.51 575.34 493.48 575.34 493.45 575.34 493.44 575.34 493.43 575.35 493.39 575.38 493.37 575.39 493.36 575.38 493.35 575.37 493.35 575.35 493.35 575.34 493.36 575.28 493.33 575.26 493.28 575.23 493.19 575.21 493.14 575.2 493.12 575.17 493.11 575.16 493.1 575.15 493.06 575.14 493 575.15 492.91 575.12 492.91 575.1 492.89 574.99 492.9 574.81 492.93 574.66 492.94 574.62 492.96 574.52 492.97 574.51 493.02 574.29 493.03 574.23 493.08 573.91 493.03 573.88 493.03 573.87 493.02 573.82 493.02 573.72 493.02 573.72 493.01 573.64 493.02 573.61 493.02 573.6 493.03 573.56 493.03 573.56 493.04 573.55 492.98 573.48 492.99 573.46 493.03 573.32 493.2 573.1 493.2 573.07 493.21 572.99 493.21 572.9 493.22 572.9 493.26 572.9 493.25 572.85 493.25 572.85 493.24 572.8 493.28 572.77 493.28 572.77 493.33 572.71 493.33 572.7 493.42 572.64 493.46 572.6 493.74 572.67 494.07 572.75 494.43 572.83 494.59 572.86 494.61 572.87 494.59 572.86 494.6 572.78 494.64 572.59 494.67 572.54 494.68 572.52 494.77 572.34 494.8 572.28 494.84 572.19 494.85 572.17 494.85 572.16 494.83 572.08 494.82 572.03 494.86 571.95 495.01 571.69 495.07 571.58 495.11 571.51 495.23 571.51 495.35 571.52 495.46 571.53 495.8 571.56 495.82 571.56 495.82 571.56 495.93 571.48 495.96 571.46 495.96 571.46 496.02 571.47 496.06 571.48 496.08 571.37 496.13 571.25 496.17 571.12 496.23 570.98 496.25 570.92 496.25 570.9 496.35 570.91 496.39 570.92 496.42 570.83 496.55 570.84 496.58 570.75 496.59 570.73 496.72 570.73 496.81 570.73 496.83 570.65 496.86 570.54 496.92 570.34 496.94 570.28 496.97 570.17 497.02 570.07 497.02 569.98 497.02 569.9 497.29 569.89 497.31 569.89 497.29 569.97 497.44 569.99 497.44 570 497.45 570.01 497.46 570.06 497.46 570.09 497.52 570.11 497.62 570.14 497.67 570.16 Z M 516.7 573.3 516.66 573.39 516.61 573.37 516.48 573.31 516.3 573.22 516.02 573.09 515.93 573.04 515.84 573 515.78 572.98 515.73 572.96 515.49 572.88 515.37 572.84 515.28 572.8 515.21 572.77 515.17 572.76 515.11 572.74 515.07 572.73 515.06 572.72 515 572.69 514.93 572.66 514.83 572.62 514.77 572.57 514.77 572.53 514.78 572.44 514.78 572.38 514.78 572.33 514.79 572.25 514.81 572.14 514.83 572.05 514.85 572.01 514.86 571.97 514.9 571.86 514.94 571.71 514.97 571.58 514.98 571.54 515 571.44 515.04 571.35 515.04 571.34 515.1 571.26 515.13 571.22 515.14 571.2 515.14 571.18 515.14 571.16 515.13 571.03 515.13 570.94 515.13 570.94 515.14 570.83 515.14 570.76 515.14 570.72 515.14 570.62 515.13 570.43 515.14 570.36 515.14 570.34 515.14 570.34 515.15 570.26 515.15 570.22 515.15 570.16 515.15 570.04 515.16 569.99 515.17 569.93 515.19 569.84 515.19 569.77 515.19 569.76 515.22 569.68 515.23 569.64 515.23 569.61 515.24 569.6 515.25 569.56 515.3 569.47 515.32 569.41 515.36 569.27 515.39 569.17 515.43 569.08 515.48 568.98 515.52 568.92 515.55 568.88 515.59 568.75 515.61 568.68 515.64 568.59 515.65 568.55 515.68 568.43 515.69 568.39 515.7 568.35 515.74 568.27 515.76 568.19 515.79 568.12 515.8 568.06 515.81 567.97 515.83 567.93 515.92 567.95 516.02 567.98 516.21 568.05 516.33 568.09 516.5 568.16 516.68 568.23 516.87 568.28 517.13 568.38 517.39 568.44 517.53 568.5 517.65 568.54 517.76 568.58 517.84 568.6 518.05 568.67 518.29 568.79 518.52 568.91 518.62 569.01 518.67 569.05 518.61 569.21 518.44 569.61 518.32 569.82 518.26 569.95 518.12 570.28 517.99 570.54 517.95 570.62 517.77 570.98 517.52 571.5 517.37 571.84 517.23 572.15 517.07 572.46 516.94 572.78 516.82 573.07 516.7 573.3 Z" fill-rule="evenodd" id="600" fill="#165FB1" stroke="#757575" class="cursor-pointer" stroke-width="0.5" name="Pondicherry"></path><text x="502.34498596191406" y="584.5899963378906" data-id="map_label" fill="#203D54" text-anchor="middle" class="label-text">PON</text>
<path d="M 788.45 3.84 788.89 4.15 789.55 4.96 790.31 5.08 792.37 4.84 792.63 4.83 792.68 4.83 794.52 4.75 796.46 4.31 796.94 2.91 797.39 2.13 797.91 1.87 798.12 2.01 798.38 2.18 798.78 3.01 798.95 4 799 4.26 798.63 5.3 798.12 6.27 797.03 7.31 796.02 7.85 794.69 8.18 793.4 8.3 792.61 8.11 792.6 8.11 790.38 6.57 790.02 6.42 789 5.99 787.52 6.26 786.49 6.19 784.81 5.28 784.28 4.25 784.93 3.88 785.9 3.97 786.8 2.85 787.99 1.97 788.42 1.42 789.17 1 789.65 1.15 789.43 1.81 788.33 3.44 788.45 3.84 Z" id="601" fill="#89CCEB" stroke="#757575" class="cursor-pointer" stroke-width="0.5" name="Yanam"></path><text x="791.6400146484375" y="4.650000095367432" data-id="map_label" fill="#203D54" text-anchor="middle" class="label-text">YAN</text>
</g>
</svg>