<svg xmlns="http://www.w3.org/2000/svg" version="1.2" baseProfile="tiny" width="500" height="570" viewBox="0 0 800 306" stroke-linecap="round" stroke-linejoin="round">
<g id="DADRA_NAGAR_HAVELI_DISTRICT_BDY">
<path d="M 683.25 147.3 683.75 147.31 684.12 147.3 684.52 147.42 684.89 147.53 685.64 147.81 685.94 147.91 686.42 148.05 686.93 148.1 687.05 148.09 687.45 148.07 688.07 147.97 688.64 147.89 688.84 147.89 688.84 147.89 689.04 147.89 689.21 147.88 689.43 147.93 689.64 148 689.83 148.21 689.98 148.42 690.11 148.62 690.08 149.13 689.96 149.69 689.76 150.44 689.7 150.73 689.69 151.08 689.71 151.35 689.73 151.63 689.82 151.96 689.91 152.32 690.02 152.57 690.14 152.76 690.38 152.98 690.63 153.2 691.06 153.46 691.57 153.94 691.89 154.27 692.33 154.75 692.2 154.86 691.96 155.12 691.82 155.24 691.68 155.35 691.48 155.56 691.23 155.75 690.93 155.93 690.89 156.1 690.85 156.2 690.6 156.38 690.55 156.48 690.49 156.56 690.48 156.63 690.44 156.73 690.16 156.69 689.88 156.8 689.73 156.83 689.59 156.84 689.35 156.81 689.13 156.72 688.88 156.59 688.02 156.19 687.88 156.17 687.72 156.11 687.65 156.08 687.51 155.83 687.45 155.75 687.17 155.62 686.79 155.51 686.7 155.48 686.62 155.44 686.59 155.33 686.6 155.18 686.57 155.1 686.38 154.84 686.19 154.67 686.07 154.59 685.97 154.31 685.81 154.17 685.36 153.94 685.29 153.93 685.26 153.97 685.07 154.29 684.91 154.61 684.53 155.02 684.44 155.16 684.25 155.36 683.56 155.9 683.44 156.06 683.29 156.4 683.11 156.96 683.08 157.07 682.91 157.69 682.85 157.84 682.71 158.12 681.62 159.8 681.57 159.83 680.4 160.18 680.22 160.27 680.15 160.4 680.08 160.69 680.07 160.88 679.95 161.08 679.87 161.25 679.79 161.33 679.6 161.42 679.54 161.46 679.52 161.53 679.48 161.74 679.46 161.81 679.4 161.83 679.23 161.82 679.2 161.86 679.19 161.93 679.15 162.14 679.08 162.22 678.99 162.36 678.93 162.53 678.83 162.64 678.75 163.06 678.73 163.38 678.87 163.53 679 163.6 679.09 163.62 679.8 163.99 680.02 164 680.25 164.05 680.52 164.25 680.59 164.27 680.76 164.24 680.99 164.29 681.11 164.23 681.24 164.12 681.34 164.1 681.5 164.17 681.6 164.24 681.87 164.34 682.15 164.37 682.32 164.49 682.54 164.5 682.61 164.54 682.68 164.65 682.67 164.75 682.7 164.82 682.93 165.16 683.03 165.36 683.1 165.46 683.12 165.47 683.2 165.48 683.52 165.46 683.64 165.47 683.75 165.45 683.93 165.29 684.04 165.23 684.36 165.23 684.53 165.16 684.61 165.1 684.68 165 684.73 164.86 684.81 164.56 684.85 164.51 684.93 164.47 685.17 164.45 685.24 164.48 685.42 164.49 685.64 164.55 686.02 164.57 686.27 164.56 686.36 164.52 686.53 164.5 686.61 164.48 686.76 164.23 686.91 163.92 687.09 163.64 687.16 163.6 687.37 163.57 687.53 163.48 687.71 163.47 687.97 163.51 688.06 163.54 688.15 163.69 688.3 163.78 688.79 163.81 689.22 163.88 689.58 163.9 689.75 163.89 690.18 163.81 690.42 163.72 690.47 163.62 690.47 163.54 690.59 163.17 690.66 163.08 690.82 163.02 690.9 163.01 691 162.99 691.12 162.98 691.18 162.98 691.32 163.03 691.42 163.11 691.85 163.25 692.17 163.23 692.27 163.26 692.34 163.31 692.38 163.37 692.53 163.41 692.78 163.47 693.13 163.98 693.56 164.52 693.53 164.6 693.53 164.7 693.58 164.88 693.89 165.19 694.42 165.43 694.69 165.6 694.79 165.64 694.82 165.69 694.69 165.97 694.56 166.24 694.18 166.83 693.99 167.17 693.92 167.34 693.92 167.4 694.19 167.43 694.42 167.47 694.44 167.53 694.37 167.94 694.23 168.59 694.12 168.97 694.02 169.03 693.89 169.02 693.64 169.09 693.36 169.13 693.28 169.2 693.15 169.39 693.01 169.65 692.85 169.85 692.45 170.15 692.11 170.36 691.73 170.55 691.68 170.55 691.65 170.48 691.54 170.36 691.48 170.35 691.38 170.38 691.32 170.43 691.24 170.56 691.08 170.73 691.02 170.8 690.78 170.98 690.63 171.04 690.46 171.13 690.36 171.17 690.31 171.21 690.19 171.24 690.01 171.18 689.83 171.17 689.78 171.18 689.71 171.25 689.65 171.25 689.46 171.11 689.23 170.9 689.19 170.91 689.12 170.96 689.09 170.95 689.01 170.92 688.88 170.82 688.69 170.88 688.54 170.97 688.4 171.03 688.28 171.14 688.24 171.22 688.21 171.38 688.02 171.52 687.94 171.57 687.7 171.55 687.61 171.53 687.53 171.55 687.45 171.58 687.37 171.54 687.36 171.54 687.17 171.5 687.14 171.53 687.14 171.61 687.15 171.69 687.15 171.94 687.19 172.26 687.19 172.66 687.24 173.39 687.31 173.97 687.35 174.08 687.45 174.21 687.93 174.55 688.15 174.81 688.42 175.09 688.46 175.15 688.41 175.76 688.36 176.03 688.33 176.07 688.34 176.14 688.66 176.4 689.31 176.97 689.63 177.08 689.8 177.16 690.07 177.38 690.96 177.88 691.45 178.17 691.55 178.26 691.58 178.31 691.58 178.36 691.52 178.41 691.49 178.49 691.41 178.64 691.16 178.97 691.08 179.04 690.95 179.11 690.76 179.15 690.4 179.27 690.09 179.46 689.74 179.81 689.6 180.08 689.53 180.31 689.4 180.9 689.26 180.89 688.92 180.84 688.34 180.79 688.12 180.79 687.9 180.78 687.61 180.82 687.24 180.83 686.74 180.88 686.18 181.05 685.91 181.16 685.64 181.27 685.28 181.47 684.98 181.59 684.62 181.7 684.52 181.7 684.31 181.63 684.23 181.61 684.13 181.56 683.43 181.37 682.71 181.06 682.08 180.97 681.42 180.85 681.13 180.73 680.78 180.6 680.76 180.58 680.6 180.27 680.56 180.03 680.56 179.89 680.59 179.79 680.57 179.72 680.57 179.72 680.37 179.53 680.32 179.5 680.23 179.49 680 179.51 679.91 179.54 679.45 179.53 679.34 179.55 679.28 179.59 679.18 179.73 679.1 179.75 678.66 179.74 678.47 179.76 678.2 179.82 678.09 179.88 677.86 180.04 677.6 180.3 677.5 180.5 677.48 180.52 677.22 180.44 677.04 180.36 676.86 180.27 675.69 179.85 674.66 179.53 674.51 179.48 673.96 179.29 673.43 179.25 673.29 179.27 672.84 179.54 672.44 179.69 672.24 179.73 671.87 179.75 671.75 179.74 670.87 179.64 670.54 179.69 670.16 179.99 669.25 180.83 669.04 180.99 668.52 181.56 668.12 181.79 667.79 181.91 667.54 182 667.33 182.04 667.04 182.05 666.72 181.94 666.69 181.93 666.49 181.82 666.23 181.71 665.97 181.6 665.84 181.51 665.15 181.24 665.08 181.21 664.25 180.76 664.04 180.61 663.47 180.33 662.69 180.04 662.24 179.91 661.54 179.63 661.21 179.55 661.02 179.48 660.36 179.44 659.97 179.47 659.71 179.52 659.71 179.52 659.71 179.52 659.73 179.49 659.74 179.47 659.91 179.11 660.02 178.89 659.99 178.6 660 178.15 660.36 177.62 660.84 176.99 661.38 176.27 661.64 175.93 662.12 175.06 662.51 174.36 663.05 173.15 663.26 172.36 663.32 171.85 663.36 171.45 663.47 170.85 663.57 170.35 663.69 169.55 663.93 168.42 664.26 167.77 664.5 167.15 664.49 166.34 664.53 165.65 664.69 165.01 664.77 164.46 664.65 163.99 664.86 163.19 665.27 162.75 665.39 162.71 665.4 162.6 665.41 162.26 665.47 161.96 665.61 161.66 666.28 161.11 666.19 160.38 666.19 159.93 666.28 159.33 666.26 159.27 666.16 159.09 666.14 158.33 666.15 158.07 666.18 157.6 666.22 157.24 666.64 156.2 666.69 156.1 667.45 154.76 667.95 153.82 668.35 152.77 669.24 151.54 669.88 150.88 670.76 149.96 671.01 149.76 671.07 149.71 671.38 148.94 671.98 148 672.59 147.3 673.35 146.79 674.31 146.13 674.39 146.08 675.12 145.62 675.48 144.85 675.67 144.34 675.99 143.99 676.01 143.69 675.91 143.19 675.93 143.13 676.03 142.77 676.14 142.56 676.1 142.19 676.11 141.86 676.05 141.56 676.78 141.6 677 142.28 677.18 142.72 677.34 142.9 677.59 143.03 677.86 143.25 678.2 143.47 678.32 143.58 678.43 143.76 678.6 143.86 678.91 143.96 679.21 144.24 679.36 144.48 679.53 145.01 679.62 145.53 679.78 145.98 679.9 146.3 679.92 146.31 680.19 146.55 680.45 146.69 680.6 146.74 680.97 146.87 681.52 147.03 682.19 147.12 682.78 147.27 683.25 147.3 Z" id="463" fill="#4FC0E4" stroke="#757575" class="cursor-pointer" stroke-width="0.5" name="Daman"></path><text x="677.2650146484375" y="161.80500030517578" data-id="map_label" fill="#203D54" text-anchor="middle" class="label-text">DMN</text>
<path d="M 20.45 8.35 20.61 8.54 20.73 8.63 20.85 8.72 21.01 8.77 21.21 8.8 21.44 8.83 21.69 8.81 22.09 8.83 22.36 8.84 22.6 8.89 22.76 8.98 22.97 9.17 23.11 9.33 23.13 9.35 23.43 9.69 23.71 9.92 24.11 10.19 24.4 10.4 24.57 10.54 24.83 10.67 25.17 10.71 25.4 10.66 25.68 10.6 25.9 10.51 26.1 10.44 26.31 10.37 26.59 10.32 26.98 10.23 27.25 10.18 27.51 10.12 27.78 10.07 28.05 10.09 28.56 10.14 29.08 10.15 29.57 10.17 29.87 10.14 30.26 10.11 30.62 9.99 31.13 9.9 31.44 9.76 31.83 9.67 32.06 9.61 32.28 9.56 32.46 9.59 32.64 9.7 32.79 9.85 33.04 10.21 33.25 10.53 33.38 10.81 33.39 10.98 33.41 11.21 33.4 11.36 33.39 11.71 33.48 11.98 33.57 12.16 33.65 12.28 33.77 12.34 33.91 12.41 34.15 12.43 34.49 12.44 34.82 12.47 35.19 12.53 35.51 12.62 35.98 12.75 36.5 12.95 36.76 13.07 36.93 13.13 37.2 13.27 37.34 13.43 37.59 13.71 37.86 14.06 38.08 14.29 38.29 14.5 38.62 14.8 38.83 14.94 38.92 15.03 39.06 15.15 39.21 15.18 39.3 15.18 39.42 15.09 39.51 14.88 39.65 14.36 39.74 13.95 39.95 13.2 40.01 13 40.11 12.74 40.24 12.38 40.31 12.18 40.45 11.96 40.63 11.75 40.82 11.62 41.04 11.53 41.33 11.49 41.61 11.46 41.98 11.45 42.1 11.42 42.25 11.31 42.36 11.19 42.43 11.04 42.59 10.84 42.77 10.73 42.94 10.69 43.19 10.69 43.46 10.7 43.66 10.66 43.91 10.5 44.03 10.37 44.19 10.17 44.35 9.99 44.51 9.78 44.54 9.66 44.59 9.61 44.6 9.59 44.79 9.51 45.01 9.46 45.16 9.41 45.34 9.32 45.49 9.21 45.71 9.07 45.85 8.92 45.92 8.66 45.94 8.55 45.95 8.49 46.02 8.44 46.2 8.43 46.2 8.43 46.2 8.43 46.34 8.46 46.39 8.47 46.63 8.53 46.87 8.6 46.93 8.62 46.94 8.63 46.95 8.63 46.98 8.65 47.12 8.81 47.16 8.85 47.87 9.56 48 9.69 48.05 9.74 48.62 10.33 48.51 10.38 48.26 10.41 47.9 10.43 47.45 10.51 46.78 10.74 46.31 10.96 46.03 11.02 46 11.48 45.78 11.58 45.46 11.71 45.14 11.9 44.94 12.12 44.84 12.26 44.69 12.43 44.39 12.67 44.08 13.02 43.71 13.52 43.45 14.02 43.31 14.53 43.29 14.73 43.33 15.02 43.44 15.47 43.82 15.99 44.06 16.3 44.13 16.46 44.14 16.6 44.13 16.67 44.16 16.7 44.26 16.71 44.36 16.72 44.43 16.74 44.43 16.79 44.42 16.82 44.42 16.84 44.59 16.98 44.86 17.14 45.01 17.36 45.08 17.58 45.05 17.7 44.96 17.81 45.01 17.86 45.04 17.91 45.04 18 45.01 18.09 44.94 18.16 44.9 18.16 44.89 18.14 44.85 18.12 44.82 18.13 44.79 18.16 44.74 18.21 44.67 18.27 44.62 18.34 44.63 18.38 44.64 18.48 44.6 18.58 44.57 18.65 44.61 18.69 44.63 18.74 44.6 18.77 44.53 18.76 44.49 18.74 44.44 18.83 44.38 18.89 44.33 18.9 44.27 18.96 44.26 18.97 44.15 19.02 44.08 19.02 44.01 19.06 43.94 19.11 43.88 19.18 43.78 19.34 43.68 19.5 43.55 19.64 43.43 19.69 43.33 19.72 43.28 19.75 43.13 19.74 43.06 19.77 42.97 19.79 42.89 19.83 42.85 19.86 42.79 19.9 42.74 19.93 42.66 19.94 42.61 19.94 42.58 19.92 42.57 19.88 42.55 19.85 42.53 19.8 42.5 19.77 42.46 19.77 42.42 19.78 42.36 19.8 42.3 19.85 42.23 19.89 42.14 19.97 42.07 20.03 41.97 20.09 41.9 20.12 41.81 20.2 41.75 20.23 41.7 20.24 41.64 20.23 41.6 20.2 41.55 20.15 41.49 20.11 41.43 20.05 41.32 19.98 41.25 19.93 41.18 19.88 41.11 19.84 41.05 19.82 41.01 19.81 40.98 19.83 40.95 19.85 40.92 19.88 40.88 19.93 40.87 20.01 40.85 20.08 40.81 20.15 40.76 20.21 40.71 20.26 40.65 20.3 40.59 20.29 40.56 20.25 40.54 20.22 40.49 20.2 40.44 20.17 40.39 20.17 40.34 20.17 40.28 20.21 40.18 20.28 40.12 20.34 40.05 20.42 40.01 20.44 40 20.45 39.97 20.49 39.9 20.51 39.83 20.55 39.74 20.59 39.66 20.63 39.59 20.67 39.45 20.74 39.33 20.8 39.24 20.85 39.17 20.91 39.03 21 38.96 21.04 38.89 21.08 38.79 21.11 38.72 21.15 38.64 21.2 38.59 21.22 38.53 21.23 38.46 21.25 38.44 21.27 38.42 21.3 38.38 21.36 38.34 21.42 38.3 21.46 38.26 21.49 38.23 21.5 38.17 21.53 38.09 21.55 38.02 21.59 37.99 21.62 37.93 21.69 37.83 21.81 37.74 21.9 37.72 21.99 37.63 22.15 37.61 22.17 37.49 22.22 37.49 22.23 37.45 22.32 37.35 22.35 37.3 22.34 37.24 22.2 37.09 21.94 36.98 21.68 36.81 21.57 36.65 21.57 36.44 21.66 36.39 21.79 36.4 22.03 36.34 22.15 36.24 22.21 36.19 22.19 36.17 22.11 36.15 21.87 36.17 21.62 36.13 21.49 36.06 21.41 35.93 21.42 35.8 21.47 35.6 21.6 35.43 21.66 35.42 21.65 35.41 21.62 35.38 21.58 35.43 21.44 35.45 21.28 35.39 21.17 35.35 21.1 35.34 21.07 35.27 20.88 35.26 20.84 35.24 20.67 35.13 20.6 35.12 20.59 35.03 20.39 34.85 20.3 34.71 20.27 34.55 20.3 34.26 20.47 34.18 20.5 34.09 20.54 33.7 20.49 33.57 20.57 33.47 20.73 33.38 20.8 33.33 20.83 33.19 20.87 33.02 20.91 32.83 20.94 32.74 20.94 32.66 20.94 32.65 20.93 32.59 20.89 32.53 20.84 32.45 20.82 32.27 20.83 32.22 20.8 32.18 20.77 32.15 20.74 32.12 20.7 32.09 20.65 32.07 20.54 32.05 20.42 31.97 20.37 31.88 20.38 31.81 20.41 31.74 20.4 31.64 20.38 31.52 20.39 31.45 20.42 31.33 20.54 31.27 20.63 31.21 20.69 31.07 20.74 30.86 20.76 30.56 20.9 30.41 20.98 30.24 21.07 30.04 21.16 29.86 21.25 29.6 21.32 29.43 21.38 29.25 21.42 29.04 21.38 28.91 21.36 28.78 21.29 28.57 21.15 28.46 20.99 28.44 20.93 28.43 20.87 28.44 20.71 28.43 20.64 28.42 20.57 28.36 20.55 28.18 20.63 28.09 20.66 27.96 20.58 27.91 20.5 27.9 20.42 27.89 20.32 27.85 20.26 27.82 20.25 27.79 20.27 27.74 20.36 27.58 20.53 27.56 20.59 27.51 20.67 27.42 20.68 27.36 20.66 27.3 20.57 27.21 20.53 27.15 20.56 27.05 20.55 26.92 20.53 26.76 20.45 26.62 20.37 26.56 20.34 26.42 20.38 26.32 20.46 26.28 20.49 26.21 20.51 26.09 20.44 26.02 20.4 25.98 20.31 25.92 20.28 25.81 20.26 25.61 20.15 25.53 20.07 25.43 20.02 25.34 19.99 25.17 19.95 24.94 19.85 24.85 19.77 24.76 19.76 24.61 19.75 24.41 19.73 24.29 19.69 24.15 19.62 24.07 19.5 24.03 19.42 24.04 19.33 24.1 19.28 24.19 19.19 24.27 19.05 24.27 18.94 24.18 18.82 24.03 18.72 23.73 18.61 23.45 18.49 23.05 18.33 22.53 18.14 22.23 18.04 21.97 17.97 21.72 17.91 21.48 17.85 21.07 17.82 20.76 17.81 20.39 17.85 20.01 17.91 19.68 17.99 19.36 18.04 19.27 18.03 19.23 18.06 18.97 18.1 18.71 18.15 18.53 18.16 18.32 18.17 18.1 18.22 17.88 18.27 17.65 18.35 17.32 18.55 17.13 18.7 16.99 18.84 16.79 19.02 16.66 19.12 16.58 19.18 16.34 19.5 16.13 20.07 16.12 20.43 16.22 20.69 16.26 20.8 16.28 20.91 16.24 21.02 16.11 21.08 16 21.14 15.93 21.19 15.93 21.25 15.99 21.28 16.05 21.25 16.1 21.23 16.19 21.22 16.45 21.23 16.6 21.2 16.67 21.19 16.7 21.22 16.73 21.3 16.64 21.44 16.45 21.6 16.12 21.7 16 21.76 15.88 21.89 15.76 22.02 15.59 22.09 15.4 22.15 15.22 22.12 14.99 22.03 14.85 21.98 14.74 21.93 14.74 21.84 14.77 21.74 14.82 21.67 14.87 21.62 14.93 21.51 14.93 21.43 14.86 21.3 14.79 21.21 14.66 21.11 14.51 21.08 14.38 21.1 14.29 21.12 14.2 21.15 14.16 21.19 14.19 21.26 14.32 21.35 14.37 21.42 14.33 21.47 14.31 21.54 14.2 21.59 14.1 21.6 13.9 21.57 13.61 21.51 13.37 21.51 13.26 21.51 13.14 21.5 13.02 21.55 12.88 21.6 12.7 21.63 12.55 21.64 12.35 21.66 11.95 21.71 11.85 21.77 11.81 21.76 11.7 21.75 11.4 21.8 11.21 21.8 10.97 21.8 10.81 21.81 10.73 21.8 10.56 21.78 10.47 21.74 10.33 21.65 10.25 21.62 10.1 21.61 10.03 21.6 9.81 21.42 9.79 21.32 9.79 21.23 9.84 21.15 9.94 21.08 10 21.01 10.04 20.91 10.11 20.84 10.19 20.78 10.29 20.76 10.37 20.74 10.45 20.72 10.5 20.69 10.54 20.61 10.54 20.54 10.49 20.39 10.44 20.24 10.37 20.11 10.25 19.96 10.15 19.88 10.1 19.85 10 19.71 9.87 19.57 9.75 19.42 9.6 19.32 9.34 19.15 9.05 18.96 8.66 18.73 7.82 18.33 7.54 18.23 7.39 18.19 7.11 18.09 6.84 18.01 6.74 18 6.53 18 6.19 17.94 5.74 17.87 5.32 17.83 4.88 17.83 4.31 17.75 4.09 17.71 3.66 17.63 3.52 17.61 3.3 17.62 3.08 17.62 3 17.67 2.88 17.71 2.79 17.75 2.7 17.78 2.55 17.82 2.45 17.83 2.36 17.85 2.35 17.85 2.33 17.86 2.38 17.98 2.37 18.37 2.18 18.7 2.12 18.76 2.06 18.74 2.01 18.72 1.87 18.69 1.43 18.55 1.23 18.47 1.17 18.44 1.09 18.36 1.02 18.24 1 17.86 1 17.85 1 17.85 1 17.78 1.05 17.27 1.11 17.03 1.21 16.75 1.33 16.34 1.36 15.99 1.54 15.18 1.58 14.88 1.69 14.34 1.82 14 1.93 13.84 2.11 13.61 2.47 13.3 2.63 13.18 2.73 13.04 2.87 12.89 2.89 12.75 3.04 12.67 3.09 12.32 3.09 12.31 3.11 12.08 3.18 11.72 3.37 11.37 3.49 11.22 3.62 11.07 3.79 10.92 3.97 10.75 4.14 10.62 4.39 10.47 4.61 10.35 4.83 10.24 5.15 10.13 5.53 9.97 5.67 9.94 6.09 9.83 6.39 9.77 6.68 9.75 6.79 9.75 7.2 9.74 7.29 9.74 7.4 9.73 7.89 9.73 8.35 9.75 8.67 9.73 9.11 9.72 9.49 9.7 9.76 9.64 9.89 9.62 10.2 9.54 10.71 9.42 11.07 9.3 11.49 9.18 11.85 9.12 12.01 9.08 12.13 9.05 12.33 8.98 12.59 8.83 12.79 8.74 12.92 8.66 13.22 8.53 13.38 8.47 13.53 8.43 13.97 8.43 14.34 8.44 14.69 8.44 14.98 8.43 15.02 8.43 15.18 8.43 15.27 8.38 15.41 8.36 15.54 8.32 15.64 8.27 15.77 8.13 15.9 7.96 16 7.83 16.09 7.69 16.14 7.62 16.17 7.57 16.28 7.45 16.38 7.3 16.56 7.15 16.75 7.02 16.93 6.89 17.07 6.8 17.28 6.66 17.43 6.63 17.52 6.58 17.72 6.53 17.91 6.49 18.17 6.44 18.38 6.39 18.55 6.35 18.7 6.35 18.8 6.41 18.93 6.49 19.16 6.72 19.28 6.87 19.35 6.97 19.49 7.09 19.59 7.15 19.72 7.18 19.92 7.22 19.99 7.23 20.14 7.35 20.18 7.51 20.21 7.78 20.27 7.98 20.34 8.16 20.45 8.35 Z M 100 5.31 99.96 5.37 99.91 5.42 99.81 5.48 99.74 5.5 99.67 5.5 99.55 5.46 99.42 5.36 99.37 5.34 99.33 5.34 99.24 5.35 99.02 5.45 98.66 5.58 98.51 5.59 98.38 5.58 98.21 5.53 98.11 5.43 98.11 5.33 98.11 5.31 98.16 5.2 98.23 5.11 98.34 5 98.52 4.9 98.63 4.78 98.69 4.69 98.71 4.61 98.71 4.47 98.68 4.21 98.67 4.19 98.65 4.12 98.64 4.04 98.64 3.95 98.64 3.9 98.67 3.87 98.7 3.84 98.74 3.83 98.79 3.82 98.85 3.83 98.89 3.87 98.93 3.91 98.95 4.04 98.94 4.15 98.94 4.26 99 4.4 99.08 4.58 99.19 4.69 99.35 4.78 99.54 4.82 99.62 4.83 99.8 4.87 99.93 4.91 99.99 4.95 100.02 5.02 100.04 5.11 100.03 5.2 100 5.31 Z M 97.5 1.02 97.7 1.03 97.92 1.03 98.29 1.04 98.34 1.04 98.3 1.13 98.22 1.46 98.06 2.5 98 2.88 97.9 2.95 97.97 4.01 98.08 4.23 98.09 4.36 98.1 4.52 98.03 4.64 97.97 4.74 97.73 4.88 97.64 4.93 97.6 5.02 97.58 5.2 97.62 5.32 97.61 5.36 97.6 5.59 97.59 5.7 97.48 5.81 97.46 5.82 97.44 5.82 97.41 5.81 97.38 5.81 97.38 5.78 97.2 5.72 97.14 5.62 96.82 5.51 96.78 5.51 96.78 5.35 96.77 5.03 96.77 4.89 96.78 4.71 96.85 4.32 96.91 4 96.91 3.96 97 3.47 97.04 3.26 97.06 3.12 97.08 3.02 97.13 2.78 97.17 2.56 97.18 2.53 97.22 2.36 97.23 2.32 97.17 2.14 97.14 2 97.14 1.96 97.14 1.93 97.18 1.89 97.19 1.87 97.22 1.81 97.22 1.8 97.23 1.75 97.23 1.7 97.21 1.68 97.16 1.58 97.16 1.57 97.16 1.5 97.16 1.46 97.21 1.41 97.24 1.36 97.28 1.29 97.28 1.24 97.28 1.21 97.26 1.15 97.23 1.11 97.18 1 97.5 1.02 Z" fill-rule="evenodd" id="464" fill="#89CCEB" stroke="#757575" class="cursor-pointer" stroke-width="0.5" name="Diu"></path><text x="50.52000045776367" y="11.675000190734863" data-id="map_label" fill="#203D54" text-anchor="middle" class="label-text">DIU</text>
<path d="M 713.6 196.85 714.2 196.92 714.74 196.91 715.29 196.94 715.52 196.94 715.65 196.93 715.89 196.9 716.06 196.93 716.28 196.99 716.34 197.01 716.43 197.03 716.91 197.14 717.19 197.2 717.43 197.26 717.67 197.26 718 197.26 718.49 197.23 718.79 197.22 719.08 197.2 719.11 197.2 719.16 197.22 719.16 197.44 719.15 197.67 719.15 197.91 719.15 198.42 719.17 198.81 719.2 198.98 719.3 199.27 719.47 199.64 719.66 200.21 719.78 200.56 720.09 201.37 720.14 201.62 720.12 201.86 720.11 201.91 720.11 202.02 720.07 202.18 720.06 202.23 720.06 202.28 720.04 202.37 719.99 202.4 719.77 202.59 719.59 202.75 719.36 202.93 719.19 203.06 719.03 203.19 718.95 203.25 718.89 203.31 718.88 203.31 718.71 203.47 718.64 203.6 718.56 203.7 718.55 203.71 718.44 203.86 718.34 204.07 718.27 204.25 718.18 204.44 718.14 204.56 718.01 204.64 717.77 204.75 717.33 204.99 717.26 205.03 717.06 205.14 716.85 205.32 716.85 205.32 716.69 205.59 716.58 205.74 716.6 205.91 716.67 206.26 716.71 206.51 716.76 206.75 716.77 206.88 716.75 206.96 716.66 207.02 716.64 207.04 716.53 207.16 716.41 207.25 716.34 207.41 716.34 207.5 716.34 207.67 716.34 207.87 716.25 208.22 716.24 208.39 716.15 208.65 716.1 208.91 715.87 209.36 715.75 209.6 715.75 209.62 715.67 210.02 715.46 209.98 715.24 209.94 715.11 209.84 714.97 209.73 714.85 209.59 714.66 209.3 714.4 208.84 714.23 208.33 714.05 207.83 713.79 207.35 713.62 207.07 713.4 206.86 713 206.49 712.54 206.14 712.21 205.92 712.08 205.78 711.65 205.51 711.13 205.22 710.97 205.12 710.69 204.87 710.55 204.76 710.3 204.48 709.92 203.83 709.75 203.43 709.75 203.36 709.82 203.28 709.85 203.24 710.02 203.05 710.2 202.9 710.42 202.65 710.71 202.2 710.85 202 711.07 201.51 711.2 201.17 711.28 200.64 711.31 200.44 711.36 200.11 711.4 199.95 711.47 199.88 711.55 199.85 711.76 199.7 712.04 199.5 712.23 199.31 712.49 198.76 712.51 198.71 712.71 198.23 712.83 197.69 712.93 197.01 712.96 196.84 713.08 196.84 713.14 196.84 713.6 196.85 Z M 760.33 189.09 760.61 189.48 760.76 189.68 760.79 189.99 760.82 190.64 760.81 191.04 761.03 191.05 761.05 191.05 761.56 191.01 761.86 191.07 761.92 191.31 761.94 191.42 761.98 191.56 762.19 191.95 762.5 192.51 762.84 192.88 762.91 193.21 762.87 193.44 762.76 193.59 762.54 193.67 762.52 193.74 762.72 194.19 762.73 194.22 763.13 194.66 763.53 194.9 763.63 195.13 763.61 195.27 763.57 195.49 763.63 195.74 763.82 196.36 763.77 196.93 763.85 196.94 764.07 196.97 764.32 197 764.59 197.23 764.86 197.44 764.81 197.57 764.63 198.08 764.16 198.71 763.81 199.14 763.63 199.86 763.4 200.75 763.49 201.07 763.64 201.77 763.65 202.23 763.38 202.77 763.1 203.3 762.49 204.29 762.04 204.97 761.77 205.53 761.56 205.95 761.53 206.75 761.36 207.21 760.94 208.07 760.85 208.67 760.51 209.32 760.57 209.41 760.69 209.59 761.3 210.48 761.55 210.4 763.06 209.41 763.33 209.29 763.75 209.3 763.68 209.48 764.35 209.79 764.76 209.7 765.58 209.35 766.14 209.1 766.69 209.34 767.23 209.62 767.51 209.64 767.69 209.64 767.93 209.91 768 209.86 768.22 209.78 768.57 209.89 768.94 209.83 769.21 209.56 769.48 209.53 769.7 209.52 769.78 208.88 769.73 208.67 769.58 208.3 769.83 207.85 769.97 207.52 770.14 207.15 770.13 206.7 770.45 205.92 770.68 205.2 770.79 204.87 771.04 204.89 771.04 204.89 771.2 204.91 771.88 204.87 772.58 205.2 773.01 205.22 774.03 205.28 774.46 205.22 774.66 205.05 775.68 205.15 776.82 205.23 778.15 205.22 778.21 205.31 778.27 205.4 778.34 205.76 778.38 205.95 778.64 206.38 778.87 206.53 779.12 206.59 779.32 206.89 779.77 207.41 780.37 208.28 780.72 208.63 780.96 208.84 781.13 208.92 781.82 208.57 782.26 208.35 782.87 208.37 783.17 208.37 783.25 208.84 783.33 209.44 783.25 210.26 783.03 210.85 782.89 211.21 782.25 212.55 782.18 212.8 782.23 212.9 782.4 213.27 782.79 213.95 782.9 214.36 783.05 215.27 783.07 215.56 782.97 216.63 782.81 217.17 782.43 218.03 782.21 218.14 781.9 218.3 781.27 218.53 780.74 218.7 780.71 218.71 780.71 218.71 780.31 218.74 780.06 218.9 779.86 218.85 779.67 218.64 779.41 218.48 779.16 218.37 779.01 218.21 778.93 218 778.81 217.67 778.56 217.39 778.45 217.04 778.37 216.62 778.33 216.08 778.27 215.64 778.2 215.18 778.01 214.87 777.88 214.87 777.5 215.01 777.48 215.03 777.39 215.11 776.52 215.62 775.92 216.03 775.45 216.53 775.27 216.86 775.21 217.29 774.96 218.16 774.53 218.71 774.49 219.08 774.47 220.42 774.24 220.73 773.63 221.34 773.38 221.55 773.12 221.57 772.77 221.55 772.72 221.54 772.69 221.54 772.31 221.39 772.21 221.36 771.68 221.11 771.62 221.09 770.93 220.83 770.63 220.75 770.63 220.77 770.64 221 770.49 221.54 770.34 221.82 770.33 222 770.33 222.39 770.29 222.76 770.12 223.12 769.78 223.43 769.75 223.6 769.73 223.84 769.6 224.05 769.2 225.01 769.14 225.14 768.94 225.52 768.57 225.88 768.29 225.95 767.99 225.96 767.52 225.99 767.2 226.14 766.65 226.45 766.33 226.56 765.96 226.55 765.43 226.56 764.53 226.52 764.38 226.57 764.26 226.68 763.76 227.4 763.46 227.83 762.97 228.36 762.58 228.64 762.34 228.74 762.31 228.91 762.22 229.03 762 229.17 761.96 229.19 761.83 229.22 761.85 229.25 761.91 229.5 761.93 229.56 761.96 230.01 761.75 230.56 761.5 230.88 761.22 231.19 760.78 231.3 760.45 231.46 760.21 231.71 759.91 232.19 759.69 232.55 759.45 232.88 759.34 232.99 759.17 233.05 758.78 233.13 758.71 233.16 758.65 233.18 758.47 233.24 758.27 233.48 758.2 233.72 758.14 234.41 758.22 234.63 758.37 234.79 758.52 234.86 758.53 235.01 758.51 235.05 758.4 235.13 758.31 235.2 758.29 235.38 758.6 235.75 758.74 235.97 758.69 236.2 758.4 236.47 758.28 236.56 758.25 236.71 758.25 236.9 758.25 236.92 758.24 236.92 757.89 236.95 756.98 236.95 756.12 237.14 755.31 237.68 755.28 237.7 755.21 237.64 755.08 237.61 754.94 237.59 754.93 237.59 754.78 237.59 754.72 237.59 754.56 237.57 754.55 237.55 754.45 237.51 754.4 237.45 754.31 237.4 754.16 237.36 753.99 237.32 753.79 236.99 753.61 236.43 753 236.07 752.62 235.98 751.76 235.87 750.64 235.65 749.54 235.59 748.95 235.44 748.9 235.43 747.69 236.4 747.34 236.6 746.63 236.75 746.45 236.9 746.24 237.29 746.1 237.94 746.01 238.25 745.61 238.33 745.1 238.46 744.68 239.37 744.53 239.9 744.44 240.18 744.4 240.32 744.36 240.47 744.05 241.03 743.42 242.05 743.32 242.23 743.21 242.44 743.12 243.29 743.12 243.58 742.98 244.01 742.91 244.19 742.51 244.91 742.11 245.43 741.64 245.92 741.21 246.42 741.18 246.42 741.06 246.27 740.96 246.37 740.94 246.39 740.84 246.49 740.84 246.61 740.84 246.61 740.84 246.73 741.39 247.62 741.94 248.26 742.27 248.56 742.88 248.9 743.77 249.22 744.42 249.21 744.42 249.46 744.68 250.53 744.88 251.67 744.96 252.17 745.12 252.8 745.15 253.17 745.11 254.03 745.25 255.24 745.04 256.29 744.92 256.94 744.92 256.97 744.93 257.29 745.04 257.99 745.06 258.12 744.66 258.57 744.34 259 744.23 259.13 744.23 259.16 744.16 259.77 744.16 260.39 744.08 260.95 744.39 261.34 744.79 261.67 745.14 261.97 745.23 262.05 745.43 262.21 745.74 262.37 745.94 262.44 746.55 262.8 747.57 263.44 748.18 263.69 748.5 263.52 748.58 263.48 748.79 263.18 748.81 263.04 748.87 262.49 749.01 261.68 749.1 261.6 749.34 261.34 749.53 260.98 749.56 260.87 749.65 260.5 749.76 259.82 749.85 259.72 750.16 259.38 750.17 259.21 750.18 259.02 750.24 258.41 750.36 258.17 750.39 258.1 750.44 257.95 750.66 257.37 750.69 257.34 750.87 257.12 752.29 257.55 753.33 258.14 753.5 258.32 753.67 258.84 753.92 259.43 754.32 260.61 754.43 260.88 754.27 261.35 754.28 261.68 754.43 262.01 754.44 262.04 754.74 262.17 754.98 262.27 755 262.27 755.18 262.37 755.28 262.37 755.28 262.37 755.28 262.37 755.41 262.43 755.63 262.55 756.05 262.64 756.62 263.2 756.92 263.32 757.27 263.59 757.52 263.69 758.05 263.72 758.47 263.65 758.47 263.65 759.07 263.52 759.76 263.31 760.07 263.18 760.55 263.25 761.35 263.84 761.5 264.17 761.98 264.98 762.36 265.45 762.85 265.54 763.06 265.45 763.16 265.18 763.35 264.63 763.42 264.13 763.1 263.49 762.97 263.19 762.89 262.96 763.06 262.46 763.24 261.77 763.29 261.75 763.65 261.57 763.84 261.34 763.96 261.22 764.45 261.24 764.59 261.17 764.6 260.94 764.6 260.92 764.46 260.75 764.42 260.47 764.43 259.89 764.55 259.66 764.56 259.64 765.2 259.08 765.7 258.79 766.03 259.01 766.15 259.02 766.47 258.86 767.37 258.17 767.84 257.88 768.72 259.1 769.18 259.42 769.46 259.46 769.46 259.46 769.52 259.47 769.91 259.4 770.42 259.26 770.58 259.08 770.76 258.9 770.85 258.65 770.97 258.33 771.02 258.24 771.37 257.6 771.81 257.21 772.56 256.67 772.51 256.51 772.35 256.07 772.03 255.34 771.82 254.84 771.76 254.31 771.68 254.02 771.61 254.01 770.95 253.93 770.3 253.76 769.99 252.71 769.62 251.17 769.66 250.5 769.66 249.2 769.67 248.31 769.83 247.32 770 246.13 770.09 246.1 771.18 245.69 771.6 245.54 771.72 246.27 771.89 246.68 773.04 247.34 773.47 247.5 774.07 247.6 774.79 248.07 774.95 248.21 776.24 247.32 776.25 247.32 776.62 247.13 776.79 247.31 778.08 249.2 778.22 249.25 779.48 248.18 781.23 246.62 782.24 245.82 782.29 245.88 782.35 245.94 782.37 246.15 782.4 246.8 782.3 247.73 782.39 248.05 782.47 248.14 782.48 248.16 782.53 248.28 782.64 248.41 782.71 248.58 782.72 248.62 782.76 248.86 782.77 248.9 783.07 249.33 783.16 249.45 783.45 249.35 784.12 249.23 785 249.22 785.18 249.36 785.68 249.83 785.84 250.2 785.81 250.62 785.81 250.62 785.52 251.28 785.45 251.41 785.3 251.69 785.67 251.88 785.92 251.89 786.13 251.84 786.48 251.33 786.65 251.11 786.91 251.12 787.24 251.32 787.54 251.15 787.55 251.15 787.84 251.08 788.22 251.04 788.67 251.02 789.03 251.06 789.51 250.99 789.66 250.9 789.84 250.72 789.94 250.57 790.14 250.16 790.42 250.36 790.7 250.55 791.02 250.77 791.31 250.77 791.4 250.75 792 251.08 792.29 251.25 792.53 251.37 792.57 251.41 792.72 251.57 792.82 251.65 792.85 251.68 793.01 251.83 793.17 252.03 793.25 252.13 793.37 252.25 793.95 253.09 794.36 253.32 795.05 253.76 795.15 253.82 795.35 253.71 795.71 253.34 796.83 253.98 797.52 254.1 798.05 254.22 798.92 254.81 798.95 255.61 798.99 256.29 799 256.43 798.88 256.57 798.8 256.66 798.76 256.85 798.7 257.15 798.66 257.42 798.65 257.44 798 258.88 797.62 259.58 797.43 259.95 796.08 261.03 795.59 261.51 795.11 261.88 794.32 262.57 793.62 262.33 792.79 262.08 791.76 262.04 790.05 262.24 788.86 262.27 788.84 262.27 788.5 263.17 788.29 264.21 788.27 264.32 788.09 264.63 787.54 264.93 787.31 265.17 787.21 265.28 787.16 265.74 787.02 266.73 787 267.12 786.76 268.41 786.76 268.76 786.76 269.35 786.8 270.45 786.83 270.97 786.91 272.03 787.11 272.79 787.29 273.08 787.38 273.45 787.39 273.63 787.4 273.68 787.33 273.8 787.22 274.02 787.19 274.28 787.22 274.41 787.24 274.49 787.26 274.61 787.32 274.82 787.3 274.97 787.55 275.29 787.86 275.65 788.18 275.8 788.4 275.82 788.72 275.71 789.2 275.67 789.51 275.83 789.91 275.87 790.51 276.15 790.86 276.29 791.16 276.84 791.3 277.07 791.53 277.11 791.69 277.21 791.83 277.39 792.11 278.25 792.22 278.41 792.42 278.73 792.66 278.84 793.04 279 793.4 278.89 794.33 278.84 794.54 278.76 795.14 278.95 796.41 279.25 796.39 279.77 796.39 280.02 796.38 280.04 796.36 280.07 796.18 280.98 796.05 281.88 795.81 282.53 795.8 282.54 795.79 282.55 795.66 283.74 795.68 283.93 795.74 284.41 795.36 286.05 795.17 286.95 795.17 286.98 795.17 287.02 795.09 287.38 794.92 288.29 794.73 289.47 794.73 289.48 794.73 289.5 794.56 290.53 794.49 290.82 794.38 291.44 794.37 291.5 794.37 291.5 794.3 291.62 793.32 292.67 793.29 292.71 792.56 293.38 792.06 293.73 791.54 293.82 790.93 293.93 790.86 293.94 790.54 294 790.25 294.05 789.99 294.43 789.9 294.55 789.79 294.72 789.78 294.72 789.76 294.71 788.76 294.31 787.45 293.83 787.21 293.81 786.92 293.79 786.91 294.3 787.02 295.07 787.08 295.52 787.08 295.55 787.09 295.58 787.01 295.72 786.77 295.87 786.81 296.24 786.64 296.64 786.54 296.86 786.55 297.56 786.35 298.33 786.38 299.15 786.38 299.15 786.38 299.15 785.86 300.45 785.76 300.68 786.25 301.48 786.26 301.5 786.27 301.51 786.79 301.92 787.02 301.84 787.74 302.42 787.43 303.62 787.35 303.93 787.29 304.11 787.25 304.27 787.2 304.2 787.15 304.12 786.64 304.12 786.47 303.87 786.18 303.8 786.02 303.98 785.98 304 785.93 304.03 785.65 303.97 785.59 303.95 785.53 303.92 785.32 303.98 785.26 304.18 785.22 304.22 785.17 304.26 784.77 304.05 784.63 303.89 784.4 303.97 784.3 304.1 784.25 304.11 784.2 304.12 784.14 304.14 783.82 304.27 783.76 304.26 783.69 304.26 783.35 304.3 783.24 304.36 783.19 304.57 783.18 304.57 783.16 304.58 782.97 304.65 782.86 304.98 782.81 305 782.79 305 782.77 305 782.73 304.99 782.72 304.97 782.62 304.67 782.5 304.24 782.39 303.86 782.38 303.84 782.38 303.82 782.38 303.81 782.36 303.42 782.35 303.17 782.31 303.16 782.28 303.16 781.89 303.3 781.54 303.41 781.32 303.32 781.1 303.22 780.81 303.17 780.81 303.17 780.78 303.16 780.76 303.16 780.36 303.05 780.32 303.04 780.3 303.04 780.26 302.96 780.26 302.96 780.11 302.76 780.11 302.76 780.09 302.72 780.07 302.69 779.96 302.53 779.93 302.49 779.9 302.45 779.72 302.22 779.47 301.79 779.42 301.7 779.41 301.7 779.35 301.62 779.07 301.67 779.01 301.67 779 301.68 778.97 301.68 778.93 301.69 778.92 301.69 778.87 301.7 778.79 301.71 778.6 301.75 778.52 301.76 778.48 301.77 778.43 301.77 778.41 301.75 778.41 301.75 778.33 301.65 778.31 301.62 778.3 301.59 778.3 301.58 778.3 301.56 778.29 301.55 778.16 301.14 778.06 300.79 777.97 299.95 777.96 299.86 777.96 299.83 777.96 299.83 777.96 299.8 777.96 299.8 777.92 299.78 777.73 299.7 777.7 299.69 777.7 299.68 777.69 299.67 777.67 299.65 777.39 299.3 777.37 299.27 777.34 299.23 777.18 299.17 777.04 299.12 776.41 298.86 775.81 298.77 775.62 298.63 775.58 298.6 775.57 298.59 775.54 298.48 775.54 298.46 775.54 298.45 775.58 298.35 775.86 297.74 775.83 297.72 775.79 297.69 775.39 297.72 775.09 296.83 775.04 296.33 775.01 296.03 774.83 296.1 774.75 295.84 774.42 295.49 774.15 295.21 774.15 295.13 774.15 295.05 774.65 294.72 775.13 294.31 775.19 294.2 775.18 294.14 775.17 294.08 775.04 293.98 774.6 293.83 774.4 293.56 774.22 293.33 773.96 293.29 773.46 292.9 773.34 292.8 773.13 292.98 773.09 294.29 773.09 294.32 772.68 294.58 772.38 294.64 771.46 293.85 771.44 293.92 771.43 293.94 771.41 293.92 771.4 293.91 771.38 293.9 771.29 293.78 771.18 293.64 771.11 293.1 771.12 292.33 771.08 292.27 771.04 292.21 770.74 292.11 770.69 292.1 770.39 292.16 770.21 292.6 770.19 292.65 769.99 292.72 769.65 292.61 769.28 292.62 769.22 292.59 769.15 292.55 768.9 291.94 768.9 291.65 769.09 291.41 769.19 291.18 769.38 290.5 769.37 290.3 769.26 290.1 769.04 289.89 768.6 289.75 768.31 289.83 768.23 289.85 768 289.91 767.46 290.74 767.16 291.15 767.07 291.34 767 291.49 766.79 291.48 766.24 291.23 765.91 290.82 765.86 290.75 765.53 290.64 765.23 290.76 765.07 290.99 764.81 291.86 764.88 292.25 764.81 292.44 764.75 292.61 764.65 292.76 763.54 292.37 763.18 292.33 763.15 292.33 762.91 292.42 762.91 293.6 762.86 293.66 762.81 293.72 762.12 293.67 761.43 293.38 761.24 293.23 761.22 293.25 761.18 293.27 761.17 293.28 761.14 293.3 761 293.42 760.58 293.71 760.41 293.93 760.39 293.92 760.37 293.9 760.31 294.13 760.38 294.4 760.33 294.73 760.28 294.94 760.28 294.94 760.34 295.04 760.17 294.95 760.1 294.84 760.06 294.61 760.08 294.45 760.08 294.41 760.08 294.3 760.02 294.21 760.01 294.2 760 294.14 759.98 294.09 759.19 293.47 758.86 293.7 758.48 293.95 758.35 293.84 758.34 293.85 758.47 293.75 758.68 293.41 758.35 292.48 758.28 292.23 758.39 291.99 758.46 291.33 758.54 290.62 758.68 289.69 758.68 289.67 758.69 289.65 758.57 288.95 758.09 288.47 757.78 288.15 757.59 287.94 757.58 287.94 757.58 287.93 757.34 287.53 756.83 287.56 756.82 287.55 756.81 287.55 756.36 287.6 755.53 287.61 755.27 287.62 754.29 287.48 754.02 287.44 753.98 287.44 753.94 287.4 753.78 287.29 753.22 287.06 752.53 287.2 752.2 287.27 751.75 287.22 751.01 287.16 750.94 287.2 750.87 287.24 750.3 286.84 750.29 286.83 750.28 286.82 750.23 286.81 750.12 286.79 749.99 286.77 750 286.66 749.91 285.8 749.77 285.86 749.71 285.86 749.65 285.87 749.53 285.89 749.52 285.88 749.5 285.86 749.47 285.88 749.47 285.88 749.21 285.88 748.94 285.66 748.78 285.53 748.69 285.5 748.61 285.47 748.15 285.31 747.5 285.25 746.9 285.15 746.85 285.14 746.8 285.13 746.35 285.05 745.65 284.92 745.48 284.79 745.3 284.66 745.27 284.64 745.23 284.61 745.17 284.56 745.14 284.54 744.52 284.09 744.26 283.9 744.25 283.89 744.16 283.82 741.44 283.59 741.36 283.58 741.26 283.57 741.24 283.57 741.24 283.57 741.22 283.57 741.1 284.02 740.97 284.55 740.93 284.69 740.8 285.15 740.3 287.15 740.24 287.38 740.11 287.89 739.88 288.86 739.84 289.07 739.77 289.7 739.74 289.96 739.39 293.58 739.22 295.48 739.17 296.16 739.16 296.39 738.99 296.72 738.63 296.47 738.18 296.14 737.9 295.95 737.64 295.97 737.26 296 736.8 296.03 736.44 296.06 736.19 295.93 735.96 295.81 735.69 295.68 735.44 295.55 735.05 295.17 734.81 294.95 734.58 294.56 734.57 294.54 734.56 294.53 734.33 294.1 733.77 292.98 733.36 292.2 733.16 291.98 733.14 291.96 733.12 291.95 732.86 291.71 732.7 291.46 732.46 290.89 732.41 290.77 732.41 290.77 732.41 290.76 732.31 290.55 731.84 290.05 731.83 290.04 731.83 290.03 731.72 289.97 731.66 289.92 731.64 289.91 731.63 289.9 731.31 289.68 731.3 289.68 731.29 289.68 730.71 289.33 730.48 289.15 730.48 289.15 730.47 289.13 729.95 288.57 729.88 288.02 729.7 287.3 729.51 286.61 729.5 286.61 729.5 286.6 729.34 286.41 729.17 286.23 729.15 286.2 729.1 286.13 728.93 285.9 728.82 285.75 728.79 285.71 728.79 285.71 728.75 285.66 728.43 285.53 728.39 285.52 728.37 285.51 728.31 285.51 728.3 285.51 728.26 285.46 728.19 285.36 728.16 285.31 728.13 285.27 728.05 285.16 728.04 285.15 728.03 285.14 728.03 285.14 728.02 285.13 727.85 284.97 727.84 284.96 727.65 284.79 727.43 284.57 727.4 284.55 727.38 284.53 727.19 284.39 727 284.24 726.82 284.1 726.83 284.08 726.84 284.06 726.81 283.81 726.8 283.78 726.8 283.74 726.79 283.6 726.79 283.58 726.78 283.57 726.77 283.55 726.77 283.52 726.73 283.33 726.75 283.21 726.75 283.21 726.77 283.18 726.8 282.92 726.8 282.89 726.8 282.87 726.79 282.87 726.78 282.68 726.63 282.27 726.61 282.21 726.61 282.21 726.59 282.15 726.53 282 726.52 281.98 726.51 281.96 726.42 281.8 726.33 281.65 726.31 281.62 726.29 281.59 726.29 281.58 726.2 281.37 726.19 281.34 726.18 281.32 726.03 280.99 725.86 280.64 725.79 280.63 725.79 280.63 725.76 280.6 725.76 280.6 725.72 280.57 725.72 280.54 725.72 280.52 725.67 280.48 725.59 280.39 725.57 280.38 725.53 280.34 725.49 280.29 725.44 280.22 725.34 280.08 725.33 280.06 725.32 280.06 725.28 279.99 725.28 279.99 725.27 279.99 725.22 279.91 725.2 279.89 725.16 279.82 725.12 279.77 725.11 279.77 724.97 279.62 724.96 279.6 724.92 279.58 724.8 279.52 724.77 279.5 724.77 279.5 724.71 279.45 724.7 279.45 724.7 279.45 724.67 279.44 724.64 279.43 724.56 279.35 724.54 279.33 724.53 279.32 724.51 279.3 724.32 279.11 724.29 279.09 724.26 279.04 724.16 278.88 724.15 278.86 724.13 278.84 724.07 278.79 723.99 278.74 723.91 278.71 723.88 278.7 723.83 278.7 723.73 278.71 723.73 278.69 723.71 278.68 723.69 278.67 723.64 278.62 723.62 278.6 723.58 278.64 723.57 278.67 723.52 278.73 723.5 278.76 723.5 278.67 723.5 278.65 723.43 278.62 723.29 278.55 723.25 278.53 723.23 278.52 723.24 278.52 723.24 278.52 723.22 278.49 723.21 278.48 723.18 278.48 723.14 278.47 723.06 278.38 723.03 278.36 723.01 278.34 722.93 278.34 722.84 278.34 722.81 278.35 722.8 278.34 722.77 278.28 722.67 278.14 722.63 278.09 722.64 278.03 722.64 278.03 722.64 278.03 722.64 278.01 722.64 278 722.65 277.99 722.65 277.97 722.64 277.96 722.62 277.94 722.64 277.72 722.64 277.71 722.64 277.69 722.64 277.66 722.64 277.51 722.64 277.46 722.64 277.41 722.64 277.18 722.64 276.98 722.64 276.88 722.64 276.86 722.61 276.82 722.59 276.8 722.54 276.73 722.54 276.65 722.54 276.65 722.54 276.61 722.54 276.54 722.55 276.34 722.55 276.33 722.52 276.22 722.48 276.07 722.44 275.92 722.43 275.87 722.41 275.83 722.38 275.7 722.32 275.5 722.29 275.44 722.26 275.39 722.25 275.28 722.24 275.14 722.22 275.11 722.21 275.11 722.35 274.52 722.43 274.14 722.75 273.88 722.8 273.84 722.86 273.79 722.88 273.77 723.08 273.61 723.12 273.59 723.16 273.58 723.27 273.56 723.38 273.55 723.42 273.53 723.47 273.52 723.49 273.51 723.51 273.51 723.64 273.52 723.72 273.52 723.75 273.51 723.78 273.5 723.89 273.51 724.06 273.53 724.1 273.51 724.13 273.5 724.31 273.4 724.68 273.26 724.89 273.13 725.06 273.11 725.14 273.08 725.22 273.05 725.3 273.01 725.73 272.83 725.77 272.83 725.81 272.82 725.9 272.8 725.9 272.78 725.9 272.76 725.9 272.76 725.97 272.7 726.4 272.56 726.41 272.56 726.45 272.55 726.45 272.55 726.49 272.53 726.84 272.33 727.03 272.21 727.04 272.2 727.19 272.03 727.22 272.01 727.25 271.98 727.06 271.6 726.95 271.13 726.93 271.07 726.89 270.92 726.87 270.58 726.79 270.32 726.56 270.1 726.38 270.07 726.01 270.35 725.93 270.33 725.85 270.31 725.62 270.09 724.94 269.65 724.53 269.53 724.39 269.38 724.25 269.04 724.19 268.69 724.16 268.58 724.07 268.22 724.02 267.87 723.96 267.86 723.91 267.85 723.89 267.84 723.8 267.77 723.79 267.76 723.76 267.74 723.73 267.74 723.71 267.73 723.7 267.72 723.68 267.71 723.24 267.39 723.19 267.35 723.13 267.3 722.66 266.98 722.63 266.98 722.58 266.98 722.51 266.97 722.07 266.88 722.08 266.95 722.06 266.99 722.03 267.07 721.86 267.24 721.82 267.28 721.82 267.28 721.78 267.32 721.68 267.44 721.55 267.59 721.54 267.61 721.5 267.68 721.49 267.69 721.43 267.74 721.12 267.97 720.99 268.27 720.87 268.68 720.85 268.73 720.84 268.77 720.85 268.96 721 269.33 721.12 269.56 721.19 270 721.16 270.19 721.13 270.67 721.12 270.69 721.11 270.71 720.97 270.95 720.8 271.23 720.79 271.26 720.78 271.29 720.77 271.32 720.69 271.5 720.67 271.58 720.65 271.66 720.58 271.86 720.53 272.28 720.51 272.49 720.5 272.5 720.49 272.57 720.49 272.57 720.47 272.65 720.42 273.04 720.4 273.13 720.4 273.16 720.39 273.18 720.3 273.57 720.24 273.83 720.13 274.3 720 274.85 719.91 275.22 719.84 275.49 719.83 275.49 719.82 275.52 719.81 275.53 719.76 275.62 719.76 275.63 719.68 275.86 719.64 275.96 719.61 275.96 719.51 275.97 719.32 276 718.97 276.03 718.9 276.04 718.9 276.04 718.82 276.05 718.58 276.07 718.44 276.09 718.44 276.09 718.23 276.1 716.95 276.25 716.1 276.37 715.39 276.48 715.11 276.7 714.86 276.9 714.78 276.96 714.71 277.13 714.7 277.16 714.56 277.51 713.64 277.18 713.01 277 712.65 276.7 712.29 276.4 712.27 276.38 712.24 276.36 712.17 276.09 712.09 275.81 711.88 274.98 711.79 274.61 711.77 274.35 711.74 273.95 711.74 273.92 711.74 273.9 711.74 273.86 711.71 273.44 711.71 273.41 711.7 273.38 711.56 273.29 711.4 273.19 711.37 273.13 711.35 273.08 711.33 273.05 710.95 273.01 710.65 272.97 710.59 272.96 710.58 272.96 710.58 272.95 710.58 272.94 710.58 272.93 710.36 272.74 710.13 272.54 710.04 272.42 710.04 272.4 710.09 272.35 710.14 272.3 710.04 272.23 710.01 272.21 710.03 272.19 710.04 272.17 710.04 272.13 709.97 271.78 709.92 271.54 709.92 271.52 709.91 271.49 709.69 271.32 709.65 271.28 709.64 271.28 709.64 271.27 709.4 270.82 709.38 270.77 709.37 270.75 709.34 270.7 709.33 270.68 709.22 269.72 709.31 269.35 709.45 268.76 709.5 268.52 709.51 268.49 709.51 268.49 709.51 268.46 709.55 268.34 709.59 268.27 709.62 268.21 709.79 267.93 709.95 267.64 709.97 267.62 709.99 267.56 710.03 267.49 710.15 267.29 710.4 266.84 710.62 266.44 710.88 265.93 710.98 265.73 710.99 265.7 711.01 265.66 711.19 265.29 711.38 265.03 711.44 264.94 711.57 264.77 711.77 264.48 711.91 264.28 711.95 264.23 711.99 264.17 712.12 263.99 712.26 263.78 712.31 263.71 712.35 263.64 712.61 263.16 712.63 263.12 712.64 263.1 712.74 262.94 713.01 262.5 713.02 262.49 713.29 262.04 713.41 261.85 713.47 261.75 713.75 261.25 713.78 261.19 713.84 261.09 713.91 260.96 714.4 260.09 714.4 260.08 714.4 260.07 714.38 258.86 714.33 258.34 714.32 258.31 714.29 257.94 714.25 257.53 714.27 257.13 714.27 257.1 714.29 256.69 714.32 256.29 714.32 256.23 714.31 255.91 714.32 255.71 714.32 255.67 714.33 255.61 714.41 255.1 714.42 255.07 714.45 254.91 714.48 254.77 715.12 253.85 715.14 253.83 715.15 253.82 715.59 253.39 715.59 253.2 715.59 252.56 715.05 252.26 715.04 252.26 715.03 252.26 714.7 252.31 714.29 252.36 713.95 252.22 713.68 252.11 713.4 251.81 713.12 251.64 712.95 251.52 712.94 251.51 712.92 251.51 712.73 251.53 712.7 251.53 712.68 251.54 712.66 251.54 712.46 251.52 712.43 251.52 712.39 251.51 712.36 251.51 712.34 251.51 712.02 251.58 711.66 251.65 711.31 251.72 711.3 251.73 711.28 251.73 711.16 251.76 710.97 251.82 710.97 251.81 710.92 251.81 710.9 251.81 710.89 251.81 710.88 251.85 710.72 251.64 710.52 251.37 710.19 250.4 710.28 250.11 710.27 249.87 710.32 249.62 710.3 249.58 710.27 249.54 710.4 249.24 710.41 249.22 710.44 249.22 710.5 249.21 710.58 248.83 710.62 248.23 710.52 247.91 710.51 247.89 710.51 247.88 710.47 247.72 710.46 247.71 710.45 247.7 710.34 247.46 710.28 247.34 710.27 247.32 710.26 247.3 710.25 247.04 710.24 246.69 710.23 246.69 710.22 246.67 710.21 246.62 710.16 246.34 710.13 246.2 710.13 246.18 710.12 246.17 710.1 245.75 710.18 245.47 710.19 245.46 710.16 245.42 710.14 245.4 710.13 245.39 710.12 245.32 710.11 245.11 710.13 244.99 710.13 244.92 710.13 244.89 710.13 244.86 710.12 244.83 710.3 244.53 710.37 244.05 710.41 243.88 710.44 243.78 710.57 243.53 710.56 243.53 710.56 243.52 710.59 243.48 710.61 243.43 710.56 243.03 710.67 242.84 710.76 242.67 711.04 242.2 710.89 241.86 710.94 241.77 711.02 241.64 711.19 241.79 711.34 241.53 711.49 241.27 711.64 240.95 711.96 240.31 711.98 240.23 712 240.12 712.04 239.02 712.16 238.6 712.35 237.93 712.46 237.5 712.54 237 712.67 236.28 712.55 235.96 712.34 235.58 712.04 235.31 711.6 234.88 710.91 234.19 710.45 233.28 710.21 232.3 709.21 231.84 709.07 231.62 708.78 231.18 707.1 230.35 706.33 229.99 705.91 229.79 704.29 228.97 703.24 228.49 702.35 228.46 702.31 228.58 701.46 228.54 701.15 228.53 700.83 228.52 700.84 228.35 700.68 228.31 700.8 228.03 700.8 228.03 700.8 228.02 700.49 227.73 700.36 227.81 700.27 227.67 700.24 227.43 700.13 226.62 699.9 226.42 699.55 226.13 699.47 226.05 699.45 225.85 699.4 225.63 699.39 225.59 699.38 225.5 699.37 225.42 699.29 225.36 699.28 225.34 699.12 225.15 699 224.95 698.96 224.7 698.95 224.61 698.92 224.47 698.76 224.12 698.64 223.94 698.5 223.71 698.39 223.58 698.18 223.59 698.03 223.63 697.96 223.63 697.91 223.6 697.87 223.44 697.87 223.39 697.79 223.37 697.72 223.37 697.08 223.26 697.02 223.2 696.89 223.13 696.86 223.09 696.83 223 696.79 222.81 696.74 222.71 696.72 222.59 696.73 222.51 696.8 222.32 696.83 222.24 696.82 222 696.79 221.91 696.77 221.86 696.68 221.71 696.65 221.53 696.65 221.44 696.65 221.35 696.59 221.28 696.51 221.19 696.31 221.08 696.17 221.06 696.08 221.03 696.05 220.95 696.01 220.81 696.02 220.65 696.01 220.5 695.96 220.41 695.86 220.3 695.77 220.22 695.75 220.23 695.73 220.28 695.74 220.39 695.66 220.45 695.61 220.43 695.59 220.32 695.58 220.16 695.5 219.95 695.35 219.75 695.24 219.64 695.25 219.56 695.26 219.41 695.31 219.3 695.28 219.12 695.07 218.92 694.9 218.79 694.84 218.78 694.77 218.73 694.75 218.63 694.78 218.41 694.84 218.14 694.81 218.05 694.75 218.03 694.72 217.99 694.77 217.88 694.85 217.79 694.88 217.74 694.95 217.63 695.02 217.55 695.05 217.46 695.05 217.4 694.99 217.28 694.95 217.22 694.94 217.15 694.98 217.06 695.01 217 695.07 216.92 695.1 216.88 695.15 216.87 695.22 216.87 695.36 216.88 695.44 216.86 695.61 216.82 695.74 216.81 695.89 216.81 696.08 216.84 696.22 216.78 696.36 216.7 696.45 216.55 696.47 216.46 696.5 216.37 696.55 216.25 696.56 216.16 696.58 216.05 696.61 215.98 696.7 215.95 696.7 215.95 696.78 215.93 696.82 215.92 696.84 215.67 696.85 215.47 696.87 215.11 696.88 214.97 696.92 214.97 696.96 214.97 697.14 214.99 697.37 215 697.57 214.99 697.76 214.95 697.9 214.88 697.97 214.83 698 214.5 698.01 214.25 698.02 214.13 698.03 214.08 698.08 214.03 698.16 213.98 698.29 213.93 698.38 213.92 698.42 213.94 698.52 214.04 698.55 214.09 698.62 214.1 698.71 214.07 698.79 214.04 698.83 213.94 698.94 213.92 699.15 213.89 699.34 213.86 699.91 213.66 700.02 213.6 700.06 213.53 700.1 213.43 700.11 213.42 700.18 213.48 700.21 213.54 700.27 213.52 700.53 213.36 700.67 213.28 700.89 213.15 700.99 213.01 701.17 212.78 701.26 212.54 701.35 212.31 701.47 212.06 701.56 211.84 701.63 211.66 701.65 211.53 701.72 211.4 701.76 211.26 701.8 211.1 701.85 210.99 701.9 210.88 701.96 210.79 702.11 210.67 702.2 210.58 702.3 210.52 702.41 210.47 702.51 210.44 702.64 210.46 702.68 210.5 702.78 210.48 702.89 210.48 703 210.48 703.11 210.44 703.18 210.44 703.26 210.36 703.34 210.29 703.38 210.26 703.42 210.23 703.5 210.23 703.69 210.27 703.76 210.28 704.27 210.36 704.54 210.53 704.77 210.65 705.03 210.72 705.31 210.77 705.52 210.9 705.55 211 705.57 211.26 705.73 211.52 705.82 211.64 705.92 211.79 706.12 211.99 706.19 212.1 706.4 212.17 706.47 212.34 706.55 212.51 706.61 212.64 706.74 212.63 706.96 212.71 707.13 212.92 707.23 213.05 707.34 213.05 707.55 212.93 707.69 212.96 707.73 213.09 707.89 213.21 707.9 213.21 707.93 213.38 708.01 213.48 708.23 213.56 708.32 213.69 708.38 213.76 708.55 213.88 708.8 214.03 708.91 214.25 708.95 214.37 709.03 214.4 709.33 214.37 709.61 214.37 709.79 214.39 710.02 214.39 710.07 214.39 710.12 214.48 710.1 214.74 710.07 214.91 709.97 215.45 709.99 216.06 710.11 216.33 710.24 216.58 710.33 216.71 710.5 216.71 710.65 216.84 710.72 216.89 710.81 216.89 710.88 216.8 710.99 216.7 711.08 216.7 711.18 216.72 711.23 216.76 711.26 216.82 711.21 216.91 711.03 217.03 711.04 217.07 711.11 217.08 711.23 217.09 711.31 217.11 711.3 217.15 711.16 217.19 711.11 217.24 711.09 217.29 711.1 217.34 711.18 217.35 711.28 217.29 711.44 217.25 711.47 217.4 711.61 217.54 711.66 217.69 711.8 217.71 711.85 217.72 712.07 217.76 712.16 217.86 712.14 218.25 712.17 218.57 712.17 218.98 712.23 219.21 712.42 219.3 712.78 219.41 712.97 219.55 713.24 219.81 713.51 219.95 713.79 219.97 714.84 220.16 715.28 220.2 715.93 219.91 715.99 219.72 716.16 219.48 716.55 219.34 717.53 219.07 718.11 218.95 718.48 218.41 719.1 218.03 718.96 217.45 718.89 217.19 718.83 216.95 718.8 215.94 718.82 215.34 718.95 214.79 719.12 213.84 719.1 213.1 719.09 212.98 719.11 212.98 719.57 212.94 719.64 212.93 720.21 213.2 720.41 213.39 720.52 213.48 720.69 213.19 721.02 212.72 721.03 212.71 721.23 212.49 721.52 212.41 721.56 212.41 721.66 212.39 722.12 212.27 722.74 212.17 722.94 212.18 723.34 212.1 723.72 212.09 724.04 212.2 724.35 212.48 724.52 212.7 724.91 212.67 725.4 212.45 725.64 212.35 725.79 212.3 725.99 212.33 726.23 212.44 726.35 212.56 726.38 212.63 726.39 212.65 726.49 212.77 726.79 212.97 727.08 213.22 727.26 213.42 727.37 213.42 727.39 213.41 727.75 213.31 728.11 213.22 728.37 213.13 728.84 212.93 729.09 212.76 729.11 212.64 729.19 212.45 729.45 211.99 729.46 211.97 729.46 211.91 729.46 211.78 729.37 211.56 729.4 211.4 729.4 211.2 729.37 211.03 729.33 210.63 729.35 210.33 729.38 210.12 729.45 209.96 729.58 209.81 729.71 209.64 729.79 209.43 729.75 209.17 729.5 209.04 729.44 208.89 729.36 208.53 729.31 208.17 729.18 207.7 729.2 207.13 729.21 206.95 729.27 206.45 729.26 206.11 729.22 205.94 729.06 205.74 728.85 205.55 728.83 205.54 728.48 205.38 728.34 205.3 728.29 205.23 728.28 205.18 728.26 205.13 728.22 205.1 728.19 205.05 728.17 205.02 728.13 204.97 728.1 204.93 728.1 204.89 728.11 204.84 728.13 204.8 728.14 204.8 728.15 204.8 728.24 204.82 728.27 204.84 728.4 204.92 728.63 204.94 728.7 204.95 728.73 204.94 728.76 204.94 728.82 204.93 729.01 204.93 729.28 204.94 729.45 204.97 729.56 205.03 729.53 205.17 729.53 205.23 729.54 205.33 729.57 205.35 729.62 205.26 729.67 205.17 729.75 205.12 729.78 205.18 729.78 205.29 729.79 205.35 729.81 205.42 729.91 205.38 729.94 205.38 730.18 205.3 730.2 205.3 730.29 205.41 730.26 205.46 730.26 205.48 730.2 205.56 730.11 205.7 730.02 205.86 730.02 205.98 730.09 206.06 730.12 206.09 730.24 206.17 730.54 206.16 730.61 206.09 730.72 205.96 730.84 205.9 731.22 205.89 731.59 205.79 731.74 205.86 731.82 206.08 731.79 206.33 731.78 206.42 731.66 206.64 731.61 206.79 731.72 206.83 731.72 206.83 731.7 206.99 731.7 207.05 731.6 207.79 731.48 208.73 731.44 209 731.23 210.31 731.23 210.37 731.03 211.42 730.98 211.76 730.97 211.83 731.01 211.83 731.09 211.85 731.45 211.98 732.27 212.15 732.84 212.23 733.19 212.32 733.51 212.72 733.71 212.97 733.87 213.02 734.8 213.24 735.83 213.34 736.8 213.19 737.47 213.02 737.68 212.92 737.95 212.47 737.98 212.25 737.83 211.84 737.87 211.56 738.12 210.4 738.31 208.8 738.31 208.8 738.31 208.78 738.35 208.28 738.49 207.61 738.79 206.74 738.93 206.09 739.12 205.07 739.16 204.84 739.15 204.6 739.12 203.55 739.36 202.78 739.54 202.34 739.97 201.67 740.4 201.07 740.66 200.58 741.26 200.74 741.86 201.02 742.5 201.28 742.89 201.3 743.22 201.28 744.02 201.13 744.98 200.87 746 200.59 747.13 200.05 747.95 199.75 748.47 199.71 749.02 199.55 749.33 199.52 749.6 199.59 749.82 199.84 750.1 200.39 750.51 200.98 750.5 201.25 750.78 201.35 751.27 201.54 752.21 201.87 752.84 202.1 752.9 201.91 753.19 201.24 753.39 201.06 753.99 200.65 754.35 200.43 754.98 199.86 755.53 199.17 755.61 198.89 755.93 198.18 756.01 197.66 756.2 197.19 756.56 196.59 756.86 196.12 756.83 195.78 757.32 195.18 757.73 194.83 757.75 194.29 757.78 193.81 757.78 193.73 757.72 193.65 757.43 193.26 757.24 192.65 757.21 192.46 757.33 192.23 757.47 192.01 757.6 191.68 757.6 191.33 757.67 190.98 757.72 190.64 757.75 190.4 757.66 190.01 757.52 189.62 757.58 189.41 757.69 189.27 757.93 189.1 758.26 188.98 758.3 188.97 758.69 188.92 759.07 189.15 759.16 189.14 759.45 189.01 759.95 188.56 760.19 188.89 760.33 189.09 Z M 720.71 240.92 720.86 240.92 721.76 240.65 721.8 240.39 721.81 240.37 721.85 240.37 722.68 240.49 723.67 240.65 723.99 240.7 724.23 240.74 724.26 240.74 724.62 240.71 724.69 240.43 724.74 240.21 724.91 239.56 725.14 238.86 725.22 238.47 725.29 238.42 725.4 238.35 725.8 237.99 726.33 237.51 726.54 237.13 726.93 236.37 727.13 235.93 727.37 235.52 727.34 235.48 726.9 234.94 726.44 234.37 725.91 233.94 725.33 233.43 724.98 233.17 724.79 233 724.62 232.87 724.39 232.69 724.28 232.63 724.09 232.49 723.5 232.31 722.93 232.15 722.32 231.96 721.92 231.84 721.22 231.64 721.05 231.59 720.71 231.74 718.89 232.52 717.42 233.16 716.45 234.79 715.99 235.59 715.88 235.77 715.79 235.93 715.67 236.12 715.64 237.25 715.62 238.07 715.61 238.49 715.97 238.87 717.02 239.91 717.36 240.16 718.02 240.56 718.6 240.91 719.55 240.92 720.71 240.92 Z" fill-rule="evenodd" id="465" fill="#165FB1" stroke="#757575" class="cursor-pointer" stroke-width="0.5" name="Dadra And Nagar Haveli"></path><text x="746.8599853515625" y="246.77999877929688" data-id="map_label" fill="#203D54" text-anchor="middle" class="label-text">DNH</text>
</g>
</svg>