<svg xmlns="http://www.w3.org/2000/svg" version="1.2" baseProfile="tiny" width="500" height="570" viewBox="0 0 800 834" stroke-linecap="round" stroke-linejoin="round">
<g id="CHANDIGARH_DISTRICT_BDY">
<path d="M 381.41 7.97 384.51 13.4 384.52 13.4 386.21 16.74 389.3 21.63 390.02 22.51 392.57 25.61 395.77 29.39 397.7 30.88 398.65 31.6 398.76 31.69 402.68 33.17 404 33.52 406 33.94 407.44 34.29 415.79 35.55 418.93 36.57 422.82 38.08 425.37 39.32 429.2 40.66 430.6 41.47 432.34 41.77 434.23 41.49 436.44 41.28 436.89 41.27 437.92 41.25 438.67 41.21 438.68 41.21 440.82 47.75 441.55 50.14 442.88 54.5 443.62 56.4 450.75 74.6 450.76 74.62 451.08 75.5 454.86 85.99 456.2 89.66 457.9 94.32 460.05 100.66 460.45 101.89 462.25 107.5 455.84 107.56 449.2 108.6 443.04 109.07 437.79 110.26 432.06 111.03 424.9 112.3 421.11 113.83 419.25 114.58 422.1 120.39 423.66 123.58 428.82 135.84 433.93 147.16 439.51 160.19 439.8 160.86 440.3 160.91 443.57 160.93 454.94 160.24 458.69 160.01 468.69 160.42 477.07 160.77 478.65 160.83 479.6 161.4 484.21 172.45 484.23 172.49 485.1 173.85 508.15 159.94 509.67 159.48 522.38 159.27 522.58 157.8 522.62 157.54 521.86 153.69 521.61 153.14 527.98 149.86 531.7 148.2 533.04 146.52 533.71 145.34 534.61 143.88 535.27 142.97 536.01 141.04 536.61 139.51 537.27 137.85 537.98 137.44 539.62 136.48 542.7 133.77 543.09 132.99 544.06 131.07 549.4 128.2 553.57 126.3 556.15 125.08 557.93 124.25 561.39 122.76 561.87 123.09 562.48 123.42 563.07 124.27 564.03 124.21 565.51 124.12 567.7 123.39 568.2 123.11 568.09 122.23 567.98 121.36 569 120.75 569.24 120.61 570.06 120.28 570.36 120.09 571.41 119.41 571.53 119.33 572.56 118.68 573.84 120.04 575.63 118.9 576.46 118.16 577.55 117.26 578.56 116.23 579.36 115.38 580.05 114.73 580.1 114.58 581.99 109.61 583.71 107.62 585.57 108.39 586.07 108.6 588.32 107.72 591.28 106.31 593.13 106.73 596.82 107.78 600.08 108.71 600.08 108.71 601.93 107.65 605.12 105.31 607.24 103.55 607.95 102.96 613.16 108.82 615.95 113.25 618.35 117.05 632.48 116.28 632.75 116.27 632.92 116.37 634.82 117.42 635.58 117.85 636.1 118.14 634.45 126.05 633.52 130.57 632.83 133.93 633.01 134.04 636.65 136.28 638.61 137.48 640.5 139.72 640.56 142.96 640.6 145.58 638.3 149.71 635.62 154.5 632.24 160.56 622.82 166.45 612.79 171.62 608.19 173.22 607.56 173.44 603.43 174.89 596.39 177.34 595.56 177.75 593.84 178.59 576.75 187.84 571.76 189.12 560.53 199.58 570.46 212.35 585.4 234.89 603.13 261.96 614.15 277.67 615.57 279.68 620.58 277.24 627.27 271.04 628.25 268.83 628.95 263.42 629.57 256.96 630.27 249.68 631.35 246.78 636.56 241.42 638.17 239.76 639.54 237.27 641.77 227.93 642.48 227.22 664.52 227.7 665.96 227.04 666.84 219.78 667.89 218.1 672.7 215.88 676.77 212.96 686.48 222.39 690.11 226.21 697.43 233.85 714.86 250.91 720.11 254.91 728.13 262.28 733.31 267.7 737.08 273.15 737.39 273.81 738.63 276.49 739.15 280.79 740.6 288.36 743.28 289.17 745.27 289.22 745.72 289.23 745.36 292.32 744.52 293.52 741.46 294.38 737.92 294.33 733.53 294.84 730.52 295.76 724.23 297.56 722.23 298.13 719.51 299.08 718.81 299.41 716.41 300.48 716.08 311 716.17 314.02 715.97 315.35 715.7 317.1 714.52 318.96 714.06 319.68 713.78 320.89 713.65 321.46 713.71 322.08 713.82 323.04 713.96 323.97 714.37 326.71 714.68 327.9 715.13 329.61 715.38 332.84 715.61 334.46 715.79 335.7 717.3 338.69 718.32 341.49 718.82 344.29 720.32 349.8 721.37 351.96 721.38 351.96 722.88 351.18 727.93 347.55 730.45 345.26 731.28 345.01 731.28 345.02 732.13 346.9 731.23 347.62 730.09 348.42 727 350.58 719.5 356.01 712.41 360.66 709.28 362.95 708.98 363.17 708.98 363.17 706.17 364.48 701.91 366.46 704.34 372.07 704.34 372.07 704.7 372.02 710.4 371.29 712.76 375.7 718.14 383.57 719.71 385.87 725.97 395.01 726.3 396.19 727.37 397.77 728.11 398.93 730.16 402.11 732.47 406.09 732.81 405.94 734.45 405.21 736.04 404.63 736.37 404.56 736.87 404.45 737.47 404.31 737.84 404.34 739.01 404.43 740.29 404.97 741.03 405.35 741.1 405.14 741.3 404.57 741.91 404.34 742.13 404.52 743.04 405.31 743.68 405.45 744.3 405.59 744.61 405.71 748.05 407.04 754.96 409.95 756.66 410.67 758.33 411.39 765.64 421.88 766.12 421.74 775.79 419.03 777.36 418.72 779.02 418.4 779.16 418.37 779.25 418.4 781.54 418.99 786.31 420.3 786.88 420.34 789.14 420.47 789.15 420.48 793.35 427.6 793.45 427.75 793.45 427.76 792.48 428.36 792.05 428.62 791.3 429 788.88 430.24 786.75 431.4 785.34 431.64 783.21 431.5 783.2 431.5 783.95 433.65 784.27 434.56 784.88 436.4 785.6 438.58 788.26 445.25 789.56 448.51 789.98 449.69 792.36 456.34 793.54 458.92 795.68 463.63 797.42 468.68 797.79 469.77 799 472.26 797.64 472.5 797.28 472.57 796.82 472.74 794.89 473.49 791.94 474.52 789.5 475.37 786.4 476.25 784.81 476.7 784.43 476.92 783.77 477.29 780.31 478.96 777.82 480.98 775.17 483.54 774.6 484.12 773.36 485.39 774.66 488.46 774.8 489.93 774.8 489.94 773.01 490.65 772.25 491.18 772.14 491.26 772.14 491.26 772.19 491.54 772.21 491.67 772.26 492.3 772.3 493.03 772.25 493.17 772.14 493.46 771.93 493.53 771.47 493.67 770.89 493.7 770.89 493.7 769.17 495.36 766.04 498.38 766.03 498.39 767.62 502.37 769.3 505.33 770.2 506.79 771.27 508.54 773.81 511.53 773.82 511.54 774.45 511.22 774.94 510.98 779.97 508.62 783.39 507.24 787.53 505.9 792.52 503.91 793.54 503.59 797.28 502.39 798.5 505.16 797.33 506.02 795.85 507.09 791.64 510.64 790.84 510.96 790.79 510.98 790.54 511.07 787.88 512.03 784.27 513.43 783.46 513.74 783.46 513.75 784.01 514.28 784.24 514.5 787.42 517.87 787.64 518.13 790.33 521.26 791.02 522.55 791.85 524.11 791.86 525.75 791.88 526.82 791.89 528.17 791.9 529.5 791.48 530.43 791.17 531.1 789.63 532.64 788.76 533.52 787.69 534.62 786.67 536.38 786.01 538.35 785.78 541.39 785.35 543.38 784.49 544.96 784.04 545.79 783.78 546.07 783.34 546.55 781.68 548.45 780.82 549.44 777.31 553.07 776.04 554.27 775.32 554.94 774.63 555.64 773.97 556.31 773 557.14 772.49 557.58 771.66 558.68 770.93 559.64 769.74 562.84 769.12 564.62 768.81 565.87 768.42 567.46 767.83 568.63 767.54 569.2 766.96 569.89 766.36 570.6 765.35 571.23 763.74 571.6 761.88 571.62 761.13 571.94 760.84 572.07 760.84 572.07 760.57 572.31 759.4 573.35 758.04 574 757.72 574.15 755.84 575.3 755.14 575.6 753.84 576.18 751.84 577.58 750.08 578.77 747.55 580.49 745.96 581.01 743.71 581.35 743.68 581.35 743.58 581.39 742.65 581.75 741.04 582.18 738.75 582.84 737.04 583.44 735.4 584.54 734.84 584.9 734.21 585.31 732.44 586.89 732.43 586.9 730.83 588.68 729.28 590.36 727.84 591.7 726.6 592.5 725.85 592.99 723.81 594.59 720.94 596.41 720.27 596.83 719.22 597.83 719.21 597.83 718.64 599.2 718.43 600.91 718.22 601.87 718.11 602.43 718.12 602.63 718.16 603.39 718.82 604.87 718.94 605.84 718.96 605.95 718.83 606.51 718.39 608.51 717.89 609.68 717.4 610.82 715.18 612.91 713.54 614.18 712.93 614.65 711.12 615.68 709.76 616.47 709.75 616.47 708.79 617.49 708.13 618.2 708.12 618.2 707.89 618.79 707.16 620.6 706.04 622.36 703.07 626.66 702.91 626.89 702.91 626.9 700.26 629.38 694.54 635.87 693.61 636.93 686.97 645.81 684.73 648.72 682.9 651.1 679.29 654.33 681.22 656.27 683.01 658.07 688.12 662.26 688.13 662.27 686.36 663.73 685.31 664.6 680.06 667.38 679.86 667.51 677.41 669.11 673.37 670.72 672.17 671.42 672.16 671.42 671.15 674.23 671.07 675.21 670.92 677.06 671.54 679.8 671.91 681.45 672.25 682.53 672.74 684.12 672.8 685.4 672.36 686.09 672.09 686.51 669.59 688.67 668.91 689.25 667.6 690.4 665.82 691.94 665.82 691.95 662.32 692.97 659.27 695.05 659.25 695.06 662.18 699.55 664.89 705.25 664.9 705.25 669.8 701.45 672.88 699.07 676.32 703.35 679.67 708.84 681.24 710.99 683.73 712.8 685.83 714.74 686.62 715.63 688.22 717.41 692.56 722.83 695.93 728.13 694.29 729.08 686.47 733.15 685.11 733.85 686.03 735.69 684.11 736.64 683.42 736.98 683.02 736.28 682.39 735.2 680.91 735.98 680.91 735.98 682.81 739.97 682.79 740 680.44 742.4 680.31 742.54 677.3 742.95 677.22 742.84 671.1 734.62 670.66 734.95 652.14 749.08 645.24 754.34 643.7 755.51 640.23 757.64 634.9 762.42 634.62 763.11 634.69 770.91 633.93 774.88 633.8 780.33 633.33 780.58 627.29 783.7 617.17 790.16 615.99 790.66 611.91 791.75 611.2 792.25 608.72 802.33 600.77 805.3 599.45 805.76 595.18 807.23 593.3 807.88 590.22 809.47 589.99 809.09 588.5 806.54 587.85 806.9 583.46 809.3 581.68 810.3 580.13 812.1 576.61 815.41 574.23 818.43 569.84 821.62 569.08 822.4 568.84 822.62 568.22 823.18 567.91 823.46 565.14 827.47 564.33 827.34 563.33 827.17 561.3 827 561.17 827.05 560.04 827.45 557.87 829.37 557.08 829.51 556.59 829.38 555.45 829.07 551.24 827.57 550.11 827.53 550.09 827.53 548.7 827.79 541.42 832.32 538.67 833 537.92 832.89 536.96 832.76 535.75 831.96 535.3 832.3 534.46 832.92 534 832.45 532.81 831.21 532.29 831.19 532.01 831.4 531.4 831.88 530.72 832 530.46 831.75 529.46 830.79 528.44 828.78 528.91 827.87 525.83 823.6 525.13 823.72 524.91 823.33 525.99 820.97 525.87 820.32 522.6 814.83 523.17 812.07 522.1 812.08 522.01 812.08 521.97 812.02 519.47 807.86 519.44 807.89 518.75 808.38 518.31 808.69 508.03 817.78 502.44 822.78 500.13 824.81 499.3 825.21 498.7 824.9 498.68 824.89 498.27 824.68 497.18 823.79 493.62 820.58 488.81 815.84 485.17 811.55 484.63 809.79 482.85 805.6 480.41 801.97 476.89 796.96 473.64 793.24 470.18 788.84 469.56 786.21 468.04 779.77 467.02 777.64 465.1 775.53 463.71 773.07 463.05 772.09 461.81 771.9 461.62 771.91 459.86 772.05 456.37 773.72 451.94 775.08 446.72 776.45 444.13 776.55 440.96 776.69 437.98 777.36 435.1 779.1 433.37 780.19 432.21 780.05 426.9 779.39 426.88 779.4 423.94 780.12 419.2 781.97 417.1 783.04 416.9 782.4 416.79 782.02 415.91 780.62 414.4 779.31 413.85 779.73 411.62 781.44 411.17 781.92 410.37 782.78 409.01 784.41 410.27 785.51 406.45 788.17 405.45 789.24 404.6 789.44 403.83 789.93 403.64 790.41 403.82 790.8 405.14 792.1 405.23 792.79 404.93 793.1 403.99 793.18 403.84 793.32 403.85 794.66 402.55 796.67 400.26 798.84 398.39 799.32 392.62 802.05 393.19 803.18 389.78 804.21 389.44 804.14 388.77 804.02 388.4 803.95 386.61 799.91 384.75 799.25 383.53 795.44 378.29 793.7 374.89 792.37 374.2 787.71 371.71 782.39 369.35 777.25 367.77 773.83 366.76 772.13 365.02 770.59 363.33 769.42 362.38 768.48 361.3 766.41 360.64 765.37 361.35 764.99 362.4 764.13 362.43 763.5 362.08 762.7 361.16 761.71 360.07 760.62 359.48 759.29 358.48 756.06 358.31 755.82 354.36 753 354.12 751.8 354.59 749.27 354.41 748.02 353.38 745.98 353.4 744.82 352.6 742.23 351.44 740.79 351.13 740.46 348.43 737.52 344.71 733.89 336.8 725.96 336.59 725.4 333.97 721.87 332.69 719.6 328.68 712.51 328.46 712.12 325.91 706.71 324.25 703.92 322.37 701.61 320.97 699.47 319.88 700.21 319.39 700.54 318.75 699.84 316.77 697.68 315.84 698.37 313.13 700.36 312.69 700.46 312.44 700.19 312.14 699.84 311.41 698.99 310.33 697.78 309.56 697.46 308.65 697.49 308.32 697.57 307.28 697.84 304.65 698.9 302 699.87 300.36 700.3 298.96 700.18 298.45 700.14 296.57 699.34 293.86 697.92 293.21 697.59 293.06 697.67 292.48 698.03 290.15 699.47 289.57 699.56 279.59 700.1 279.56 701.79 278.78 702.22 276.63 703.24 273.85 704.55 268.97 706.22 267.29 706.65 265.05 707.69 262.9 707.73 260.6 708.01 259.33 708.57 256.51 710 256.23 709.21 254.66 704.8 252.69 698.66 249.22 694.49 243.2 685.18 241.75 685.18 241.47 685.15 241.43 685.17 235.81 688.93 235.31 689.25 235.07 689.53 234.05 689.71 232.56 690.25 232.53 690.25 231.25 690.16 229.23 689.77 228.77 688.57 228.98 686.89 230.61 684.29 230.2 680.89 228.03 674.84 229.81 673.17 229.18 666.8 227.83 648.48 227.11 638.57 227.08 638.58 223.74 639.83 215.73 645.02 204.76 649.95 195.2 652.94 195.17 652.95 186.91 655.2 185.92 655.03 183.1 654.56 183.06 644.12 182.07 642.88 184.48 639.11 185.22 628.08 184.61 621.86 185.56 621.13 185.17 620.4 184.4 619.88 184.16 619.96 182.79 620.4 182.78 620.38 179.41 616.23 176.23 609.71 184.43 606.55 183.2 587.79 183.8 582.32 186.68 577.03 183.82 571.68 175.25 571.36 167.25 570.94 162 569.55 161.8 569.5 161.8 569.5 152.8 566.41 141.74 564.35 136.65 563.88 133.58 563.6 133.58 563.59 134.48 555.13 131.91 546.31 129.1 531.69 138.41 529.1 141.86 526.8 134.93 517.33 134.71 517.03 126.71 505.86 127.57 505.25 127.59 505.24 134.88 500.02 141.71 495.78 141.48 494.7 140.49 490.04 140.4 489.05 140.26 486.56 140.19 485.42 139.23 475.07 139.79 472.1 141.18 468.66 142 456.24 138.82 452.42 138.81 452.43 133.52 456.53 133.51 456.51 125.96 444.34 118.5 433.75 112.98 428.08 112.97 428.09 111.52 429.58 111.5 429.56 107.99 424.54 105.84 424.6 101.72 424.71 100.38 424.38 98.95 424.03 92.93 418.64 88.37 413.8 85.28 408.71 84.53 407.3 83.28 405.7 83.12 405.51 82.27 404.41 76 396.42 73.56 392.54 73.49 392.42 73.42 392.31 69.49 386.35 68.53 384.1 68.11 382.54 65.48 376.3 65.27 375.81 65.18 375.58 64.73 374.47 62.25 371.56 62.1 371.39 58.65 366.52 56.67 361.98 53.94 353.88 51.56 347.76 50.7 342.46 50.68 342.48 45.68 345.16 45.67 345.14 43.24 340.25 43.22 340.26 42.01 340.62 41.81 340.68 41.11 340.9 37.05 342.13 34 342.95 31.35 343.65 30 344.17 24.83 346.16 17.84 349.35 17.29 349.6 16.44 349.9 13.16 351.04 13.16 351.03 12.92 350.31 9.32 344.54 4.37 334.39 1 328.48 3.74 325.44 5.95 322.86 8.1 320.36 8.56 319.34 9.36 317.58 9.77 314.69 7.29 307.12 5.63 301.25 5.67 299.8 6.58 299.18 12.53 297.28 12.66 297.24 12.67 297.22 15.91 292.51 15.76 287.78 15.78 287.17 15.79 286.7 16.24 286.23 17.31 285.09 17.25 284.29 17.18 283.34 16.49 277.79 15.86 277.5 15.16 272.15 13.97 268.17 13.66 262.2 13.1 258.7 11.86 256.83 9.79 254.95 3.83 250.1 3.22 248.71 3.17 246.96 3.53 245.39 3.78 244.31 5.41 241.59 7.28 240.08 9.48 238.29 9.91 237.94 13.05 235.4 13.56 234.99 18.55 229.97 18.84 229.73 19.45 229.26 25.47 224.53 32.12 220.01 31.45 217.88 31.1 216.77 31.27 216.6 34.67 213.18 40.46 209.18 41.1 208.91 44.36 207.53 49.45 207.13 50.61 207.04 50.63 206.98 50.71 206.58 51.48 205.41 52.15 204.32 52.53 200.01 59.04 200.35 59.36 202.2 62.6 200.9 62.84 202.56 66.01 200.98 70.11 198.5 71.62 197.9 77.89 195.38 79.98 196.63 80.23 196.88 81.98 198.56 82.22 198.8 82.48 199.09 83.56 200.3 87.28 198.37 88.78 200.7 90.17 200.46 91.56 199.67 94.09 197.89 92.96 195.29 92.43 194.08 93.29 193.73 97.07 192.17 101.84 188.46 102.22 188.16 113.28 182.36 114.6 181.66 118.31 180.1 120.26 183.09 123.58 182.34 123.84 187.67 124.6 187.97 127.56 189.14 131.01 190.79 134.84 191.89 140.19 192.02 143.1 192.09 149.57 190.72 150.45 190.46 152.03 189.54 155.34 187.27 157.74 185.92 158.23 185.64 161.15 184.22 163.8 182.93 165.66 182.01 169.86 180.73 170.55 180.52 175.03 179.44 176.57 178.51 177.19 177.33 179.84 175.97 183.43 174.33 187.18 172.95 188.44 172.23 188.58 172.16 188.6 172.18 189.38 172.96 191.9 171.6 193.75 170.77 196.07 170.04 197 169.62 197.54 169.23 198.68 168.42 200.23 166.94 201.48 166.33 202.54 166.21 204.15 166.8 204.32 166.85 206.2 166.76 207.54 166.24 211.58 164.04 214.37 163.21 214.87 163.06 216.31 162.17 219.15 160.41 219.3 150.35 219.95 150.05 220.36 149.86 221.54 149.32 223.36 148.55 225.76 147.54 229.22 145.09 228.68 142.96 228.67 142.89 227.84 139.55 227.54 138.89 226.33 136.15 226.53 135.55 227.09 135.1 227.23 135 226.88 132.18 226.59 131.91 225.76 131.15 224.42 129.75 223.85 126.62 219.77 126.47 217.6 121.37 219.7 120.33 221.32 119.53 228.13 115.52 229.33 115.28 230.87 116.09 231.61 115.74 233.6 115.01 235.26 114.59 236.11 113.98 236.43 113.75 238.49 112.1 239.32 110.28 240.58 109.35 242.81 107.64 244.37 106.45 250.02 105.48 254.05 104.78 255.15 104.59 256.79 102.75 258.19 100.95 260.45 98.53 261.51 97.75 262.68 97.28 264.21 96.53 265.73 95.87 267.46 95.15 268.4 94.65 268.78 93.15 268.08 90.84 268.11 88.18 270.15 87.67 268.24 83.43 268.24 83.43 268.24 83.42 269.68 82.33 269.67 82.3 267.76 77.27 267.78 77.26 269.21 76.37 269.19 76.33 267.29 72.5 265.48 68.98 265.48 68.98 268.13 67.21 276.38 64 284.57 59.63 290.89 56.04 291.72 55.56 292.62 55.05 296.67 52.91 300.4 49.82 304.92 46.08 305.03 45.99 307.85 44.54 306.46 40.51 306.48 39.41 307.78 38.39 309.43 37.36 310.44 36.33 311.82 35.35 313.56 34.49 315.39 32.85 316.02 31.85 317.13 27.58 318.99 26.05 322.09 23.8 329.09 20.85 337.46 17.18 343.05 13.77 345.84 12.09 349.46 10.05 354.29 6.79 354.91 6.53 356.22 5.97 356.29 6.05 358.62 8.86 365.65 7.3 365.64 7.28 365.43 6.68 365.24 6.11 367.09 5.13 369.52 3.97 375.18 1.72 376.98 1 378.45 2.92 381.41 7.97 Z" id="44" fill="#F5F5F5" stroke="#757575"></path>
</g>
</svg>