<svg width="93" height="54" viewBox="0 0 93 54" fill="none" xmlns="http://www.w3.org/2000/svg">
<g filter="url(#filter0_bdi_728_10008)">
<rect x="3" y="3" width="86.8421" height="47.1429" rx="23.5714" fill="url(#paint0_linear_728_10008)"/>
<rect x="3.4256" y="3.4256" width="85.9909" height="46.2916" rx="23.1458" stroke="#FFE0A3" stroke-width="0.851202"/>
</g>
<g filter="url(#filter1_i_728_10008)">
<path d="M59.5216 17.7577C59.0167 17.1327 58.3625 16.7914 57.5706 16.7876C54.1506 16.7761 50.7344 16.7838 47.3144 16.7838C47.2876 16.7838 47.2608 16.7914 47.1958 16.8029C47.2378 17.1595 47.2761 17.5123 47.3182 17.8689C47.7007 20.9327 48.0871 24.0004 48.4658 27.0642C48.7566 29.3917 49.0435 31.7193 49.3228 34.043C49.4222 34.8751 49.1812 35.5998 48.6265 36.2287C47.4712 37.544 46.3274 38.863 45.1759 40.1821C45.1414 40.2243 45.1108 40.2703 45.0764 40.3163H57.8461C58.3166 40.2051 58.768 40.0632 59.1506 39.7411C59.6287 39.3347 59.9271 38.8324 60.0343 38.2112C60.0419 38.1651 60.0649 38.123 60.0763 38.0808V19.073C59.973 18.6013 59.8315 18.145 59.5216 17.7577ZM59.0473 23.7588C58.944 23.9313 58.7718 23.985 58.5844 23.985C58.3357 23.985 58.0871 23.985 57.8231 23.985V31.7768C57.8231 31.8151 57.8231 31.8497 57.8231 31.888C57.804 32.2024 57.5974 32.398 57.2875 32.3942C56.9777 32.3903 56.7749 32.1871 56.7749 31.8727C56.7711 30.8373 56.7749 29.802 56.7749 28.7667V28.1953H54.2156C54.2539 28.2605 54.2883 28.3181 54.3227 28.3756C54.7359 29.0773 54.8736 29.8212 54.5867 30.5958C54.2156 31.6043 53.4849 32.2254 52.4176 32.3597C51.3235 32.4977 50.4704 32.0414 49.8813 31.1134C49.8201 31.0176 49.7856 30.8834 49.7856 30.7683C49.7856 30.5498 49.9348 30.3619 50.1032 30.3158C50.3557 30.2507 50.589 30.3389 50.7344 30.5344C50.853 30.6955 50.9716 30.8642 51.1208 30.9907C51.6219 31.4125 52.3679 31.4585 52.9264 31.1249C53.4926 30.7875 53.7719 30.151 53.6533 29.4646C53.5461 28.8319 53.0565 28.3411 52.4023 28.2184C52.299 28.1992 52.1919 28.1953 52.0848 28.1915C51.7749 28.1723 51.5875 27.9768 51.5875 27.6662C51.5875 27.3594 51.7749 27.1523 52.0886 27.1447C52.5821 27.1293 52.9991 26.9568 53.3204 26.5772C53.8904 25.8946 53.7566 24.8133 53.0374 24.2918C52.322 23.7703 51.2623 23.9658 50.7879 24.7174C50.654 24.9283 50.4895 25.0472 50.2371 25.0395C49.9081 25.0242 49.7015 24.7443 49.7856 24.426C49.801 24.3646 49.8316 24.3033 49.8622 24.2458C50.4054 23.314 51.488 22.8001 52.5247 22.9727C53.6227 23.1568 54.449 23.9313 54.6709 25.0203C54.8201 25.7527 54.7053 26.4391 54.2692 27.0603C54.2539 27.0833 54.2424 27.1063 54.2194 27.1408H56.7672V23.9965C56.5148 23.9965 56.2661 23.9965 56.0174 23.9965C55.7458 23.9927 55.5699 23.8777 55.4972 23.6629C55.3671 23.2795 55.6005 22.9459 56.0021 22.942C56.8744 22.9382 57.7466 22.942 58.6188 22.942C58.8177 22.942 58.9822 23.0187 59.074 23.2028C59.162 23.383 59.1582 23.5747 59.0473 23.7588Z" fill="#573D2A"/>
<path d="M31.5375 23.4866C31.5375 20.4419 31.5375 17.3935 31.5375 14.3489C31.5375 13.2675 31.9813 12.4277 32.9683 11.9599C33.3164 11.795 33.7334 11.7069 34.1198 11.703C36.943 11.6838 39.7701 11.6838 42.5933 11.6954C44.0355 11.6992 45.0034 12.6617 45.1909 14.1916C45.5352 17.0292 45.8909 19.8629 46.2391 22.6966C46.5642 25.3271 46.8856 27.9615 47.2069 30.5958C47.3561 31.8229 47.4977 33.0537 47.6698 34.2808C47.7272 34.7026 47.513 34.971 47.2605 35.2356C47.2184 35.2778 47.1228 35.2816 47.0539 35.2816C42.7234 35.2816 38.3929 35.2931 34.0624 35.2778C32.5819 35.2739 31.5337 34.1619 31.5337 32.6549C31.5337 29.595 31.5375 26.5427 31.5375 23.4866ZM40.2674 24.3877C40.2789 24.4337 40.2903 24.4605 40.2942 24.4874C40.4625 25.3271 40.627 26.1669 40.7991 27.0028C40.9024 27.509 41.3385 27.8158 41.7938 27.7161C42.2643 27.6125 42.5398 27.1792 42.4403 26.6769C41.8932 23.9429 41.35 21.205 40.7991 18.471C40.6882 17.915 40.3898 17.6734 39.8313 17.6696C39.3378 17.6657 38.8481 17.6657 38.3546 17.6696C37.7923 17.6734 37.4977 17.915 37.3868 18.471C36.8397 21.205 36.2927 23.939 35.7456 26.6769C35.6461 27.1792 35.9216 27.6125 36.3959 27.7161C36.8435 27.8119 37.272 27.5205 37.3829 27.0297C37.4327 26.8226 37.4633 26.6117 37.5054 26.4008C37.6392 25.7298 37.7731 25.0587 37.9109 24.3838C38.7066 24.3877 39.4755 24.3877 40.2674 24.3877Z" fill="#573D2A"/>
<path d="M45.6967 36.9688C44.7748 37.9887 43.8911 38.9666 42.9997 39.9367C42.9538 39.9865 42.8123 39.998 42.7472 39.9635C42.0969 39.6031 41.6646 39.0624 41.5078 38.3339C41.4121 37.8929 41.3739 37.4366 41.3088 36.9726C42.7702 36.9688 44.2048 36.9688 45.6967 36.9688Z" fill="#573D2A"/>
<path d="M38.2498 22.6879C38.4716 21.572 38.6897 20.4792 38.9116 19.3672C39.0302 19.3672 39.1449 19.3672 39.2788 19.3672C39.4969 20.4715 39.7188 21.5682 39.9406 22.6879C39.3745 22.6879 38.8312 22.6879 38.2498 22.6879Z" fill="#573D2A"/>
</g>
<defs>
<filter id="filter0_bdi_728_10008" x="-22.5075" y="-22.5075" width="137.857" height="98.1557" filterUnits="userSpaceOnUse" color-interpolation-filters="sRGB">
<feFlood flood-opacity="0" result="BackgroundImageFix"/>
<feGaussianBlur in="BackgroundImageFix" stdDeviation="12.7538"/>
<feComposite in2="SourceAlpha" operator="in" result="effect1_backgroundBlur_728_10008"/>
<feColorMatrix in="SourceAlpha" type="matrix" values="0 0 0 0 0 0 0 0 0 0 0 0 0 0 0 0 0 0 127 0" result="hardAlpha"/>
<feOffset dy="0.520561"/>
<feGaussianBlur stdDeviation="1.3014"/>
<feComposite in2="hardAlpha" operator="out"/>
<feColorMatrix type="matrix" values="0 0 0 0 0 0 0 0 0 0 0 0 0 0 0 0 0 0 0.15 0"/>
<feBlend mode="normal" in2="effect1_backgroundBlur_728_10008" result="effect2_dropShadow_728_10008"/>
<feBlend mode="normal" in="SourceGraphic" in2="effect2_dropShadow_728_10008" result="shape"/>
<feColorMatrix in="SourceAlpha" type="matrix" values="0 0 0 0 0 0 0 0 0 0 0 0 0 0 0 0 0 0 127 0" result="hardAlpha"/>
<feOffset dy="0.520561"/>
<feGaussianBlur stdDeviation="2.60281"/>
<feComposite in2="hardAlpha" operator="arithmetic" k2="-1" k3="1"/>
<feColorMatrix type="matrix" values="0 0 0 0 0.341667 0 0 0 0 0.238415 0 0 0 0 0.165139 0 0 0 1 0"/>
<feBlend mode="normal" in2="shape" result="effect3_innerShadow_728_10008"/>
</filter>
<filter id="filter1_i_728_10008" x="31.5337" y="11.6875" width="28.5427" height="28.8461" filterUnits="userSpaceOnUse" color-interpolation-filters="sRGB">
<feFlood flood-opacity="0" result="BackgroundImageFix"/>
<feBlend mode="normal" in="SourceGraphic" in2="BackgroundImageFix" result="shape"/>
<feColorMatrix in="SourceAlpha" type="matrix" values="0 0 0 0 0 0 0 0 0 0 0 0 0 0 0 0 0 0 127 0" result="hardAlpha"/>
<feOffset dy="0.221056"/>
<feGaussianBlur stdDeviation="0.331585"/>
<feComposite in2="hardAlpha" operator="arithmetic" k2="-1" k3="1"/>
<feColorMatrix type="matrix" values="0 0 0 0 0 0 0 0 0 0 0 0 0 0 0 0 0 0 0.6 0"/>
<feBlend mode="normal" in2="shape" result="effect1_innerShadow_728_10008"/>
</filter>
<linearGradient id="paint0_linear_728_10008" x1="3" y1="3" x2="66.2376" y2="76.0795" gradientUnits="userSpaceOnUse">
<stop stop-color="#FFE6B7"/>
<stop offset="0.739583" stop-color="#947964"/>
<stop offset="1" stop-color="#573D2A"/>
</linearGradient>
</defs>
</svg>
