<svg width="80" height="80" viewBox="0 0 80 80" fill="none" xmlns="http://www.w3.org/2000/svg">
<g id="Layer 2">
<g id="OBJECTS">
<g id="Group 1000001326" opacity="0.94">
<path id="Vector" style="mix-blend-mode:multiply" d="M49.2944 79.3042C55.9768 79.2991 62.4712 77.0921 67.773 73.0246C73.0748 68.9571 76.8885 63.2558 78.624 56.8028C80.3596 50.3498 79.9202 43.5046 77.3739 37.3264C74.8277 31.1482 70.3164 25.9813 64.5381 22.625C68.2665 28.3518 69.9563 35.1679 69.3348 41.9731C68.7134 48.7783 65.8169 55.1756 61.1129 60.1324C56.4089 65.0891 50.1719 68.3162 43.4084 69.2926C36.645 70.2691 29.7499 68.938 23.8359 65.5141C26.5962 69.7503 30.3704 73.2302 34.8161 75.6383C39.2618 78.0464 44.2384 79.3065 49.2944 79.3042Z" fill="url(#paint0_radial_1013_29695)"/>
<g id="Group 1000001324">
<path id="Vector_2" d="M39.0905 78.1508C46.7878 78.1482 54.3115 75.8633 60.7103 71.585C67.1091 67.3068 72.0957 61.2272 75.0395 54.1151C77.9834 47.0029 78.7523 39.1776 77.249 31.6285C75.7457 24.0794 72.0378 17.1456 66.5941 11.7037C61.1504 6.2618 54.2152 2.55623 46.6656 1.05551C39.1161 -0.445203 31.291 0.326316 24.1799 3.27255C17.0688 6.21878 10.9909 11.2074 6.71476 17.6077C2.43864 24.0079 0.15625 31.5324 0.15625 39.2297C0.15625 44.342 1.16347 49.4042 3.12026 54.1272C5.07704 58.8502 7.94505 63.1414 11.5606 66.7557C15.1761 70.37 19.4683 73.2366 24.192 75.1918C28.9156 77.147 33.9782 78.1525 39.0905 78.1508ZM39.0905 69.6122C33.0814 69.6122 27.2072 67.8303 22.2109 64.4919C17.2145 61.1534 13.3202 56.4083 11.0207 50.8566C8.72107 45.3049 8.11943 39.196 9.29174 33.3024C10.4641 27.4087 13.3577 21.9951 17.6067 17.746C21.8558 13.4969 27.2695 10.6033 33.1631 9.43094C39.0567 8.25863 45.1657 8.86029 50.7174 11.1599C56.269 13.4595 61.0142 17.3537 64.3527 22.3501C67.6911 27.3464 69.473 33.2206 69.473 39.2297C69.4695 47.2866 66.2674 55.0125 60.5703 60.7096C54.8732 66.4066 47.1474 69.6088 39.0905 69.6122Z" fill="#80C923"/>
<path id="Vector_3" d="M39.0953 74.5773C58.1824 74.5773 73.6554 59.1042 73.6554 40.0172C73.6554 20.9301 58.1824 5.45703 39.0953 5.45703C20.0083 5.45703 4.53516 20.9301 4.53516 40.0172C4.53516 59.1042 20.0083 74.5773 39.0953 74.5773Z" stroke="white" stroke-width="1.18107" stroke-miterlimit="10"/>
<g id="Vector_4" style="mix-blend-mode:overlay" opacity="0.45">
<path d="M39.0896 69.6127C55.8694 69.6127 69.4721 56.01 69.4721 39.2302C69.4721 22.4504 55.8694 8.84766 39.0896 8.84766C22.3098 8.84766 8.70703 22.4504 8.70703 39.2302C8.70703 56.01 22.3098 69.6127 39.0896 69.6127Z" fill="white"/>
</g>
<path id="Vector_5" d="M58.8602 47.2961C63.3453 36.3386 58.0983 23.8199 47.1408 19.3348C36.1833 14.8497 23.6646 20.0967 19.1795 31.0542C14.6945 42.0117 19.9414 54.5304 30.8989 59.0155C41.8565 63.5005 54.3751 58.2536 58.8602 47.2961Z" fill="#2C5604"/>
</g>
</g>
</g>
</g>
<defs>
<radialGradient id="paint0_radial_1013_29695" cx="0" cy="0" r="1" gradientUnits="userSpaceOnUse" gradientTransform="translate(49.6218 49.3014) rotate(90) scale(28.13 28.1301)">
<stop stop-color="#005260"/>
<stop offset="1" stop-color="white"/>
</radialGradient>
</defs>
</svg>
