<svg width="220" height="87" viewBox="0 0 220 87" fill="none" xmlns="http://www.w3.org/2000/svg">
<g filter="url(#filter0_d_1264_18)">
<rect x="9" y="6" width="202" height="69" rx="34.5" fill="url(#paint0_linear_1264_18)"/>
</g>
<path d="M47.4209 48V33.7907H50.7297L58.5651 43.25H57.002V33.7907H60.94V48H57.6313L49.7959 38.5407H51.3589V48H47.4209ZM63.7751 48V33.7907H67.7943V48H63.7751ZM73.6783 48V36.9777H69.314V33.7907H82.0415V36.9777H77.6975V48H73.6783ZM83.5388 48V33.7907H87.558V48H83.5388ZM98.7607 48L94.843 36.998H98.4968L101.603 46.1934H99.8568L103.084 36.998H106.373L109.479 46.1934H107.773L110.981 36.998H114.371L110.453 48H106.718L104.079 40.3879H105.216L102.496 48H98.7607ZM121.017 48.1827C119.717 48.1827 118.581 47.9391 117.606 47.4519C116.646 46.9512 115.894 46.2746 115.353 45.422C114.825 44.5559 114.562 43.5748 114.562 42.4787C114.562 41.3825 114.819 40.4082 115.333 39.5556C115.861 38.6895 116.585 38.0197 117.505 37.546C118.425 37.0589 119.46 36.8153 120.611 36.8153C121.693 36.8153 122.681 37.0386 123.574 37.4851C124.467 37.9182 125.178 38.561 125.706 39.4135C126.233 40.2661 126.497 41.3013 126.497 42.5193C126.497 42.6546 126.491 42.8102 126.477 42.9862C126.463 43.1621 126.45 43.3245 126.436 43.4733H117.728V41.4434H124.386L122.925 42.0118C122.938 41.5111 122.844 41.078 122.641 40.7127C122.451 40.3473 122.18 40.0631 121.829 39.8601C121.49 39.6571 121.091 39.5556 120.631 39.5556C120.171 39.5556 119.765 39.6571 119.413 39.8601C119.075 40.0631 118.811 40.3541 118.621 40.733C118.432 41.0983 118.337 41.5314 118.337 42.0321V42.6208C118.337 43.1621 118.445 43.629 118.662 44.0214C118.892 44.4138 119.217 44.7183 119.636 44.9349C120.056 45.1378 120.556 45.2393 121.138 45.2393C121.68 45.2393 122.14 45.1649 122.519 45.0161C122.911 44.8537 123.297 44.6101 123.676 44.2853L125.706 46.3964C125.178 46.9783 124.528 47.4249 123.757 47.7361C122.986 48.0338 122.072 48.1827 121.017 48.1827ZM135.198 48.1827C134.21 48.1827 133.384 47.9797 132.721 47.5737C132.071 47.1677 131.584 46.5452 131.26 45.7062C130.935 44.8672 130.772 43.7913 130.772 42.4787C130.772 41.1931 130.941 40.1308 131.28 39.2917C131.632 38.4527 132.139 37.8302 132.802 37.4242C133.465 37.0183 134.264 36.8153 135.198 36.8153C136.199 36.8153 137.106 37.0453 137.918 37.5054C138.743 37.9655 139.393 38.6219 139.866 39.4744C140.353 40.3135 140.597 41.3149 140.597 42.4787C140.597 43.656 140.353 44.671 139.866 45.5235C139.393 46.3625 138.743 47.0189 137.918 47.4925C137.106 47.9526 136.199 48.1827 135.198 48.1827ZM128.276 48V32.9382H132.132V38.8452L131.929 42.4787L131.95 46.1122V48H128.276ZM134.386 45.1175C134.819 45.1175 135.204 45.0161 135.543 44.8131C135.894 44.6101 136.172 44.3124 136.375 43.9199C136.591 43.5139 136.7 43.0335 136.7 42.4787C136.7 41.9238 136.591 41.457 136.375 41.078C136.172 40.6856 135.894 40.3879 135.543 40.1849C135.204 39.9819 134.819 39.8804 134.386 39.8804C133.952 39.8804 133.56 39.9819 133.208 40.1849C132.87 40.3879 132.592 40.6856 132.376 41.078C132.173 41.457 132.071 41.9238 132.071 42.4787C132.071 43.0335 132.173 43.5139 132.376 43.9199C132.592 44.3124 132.87 44.6101 133.208 44.8131C133.56 45.0161 133.952 45.1175 134.386 45.1175ZM146.389 48.1827C145.455 48.1827 144.541 48.0744 143.648 47.8579C142.769 47.6414 142.058 47.3707 141.517 47.0459L142.674 44.4071C143.188 44.7183 143.79 44.9687 144.48 45.1581C145.171 45.3341 145.847 45.422 146.51 45.422C147.16 45.422 147.607 45.3544 147.85 45.219C148.107 45.0837 148.236 44.901 148.236 44.671C148.236 44.4544 148.114 44.2988 147.87 44.2041C147.64 44.0958 147.329 44.0146 146.937 43.9605C146.558 43.9064 146.138 43.8455 145.678 43.7778C145.218 43.7101 144.751 43.6222 144.277 43.5139C143.817 43.3921 143.391 43.2162 142.999 42.9862C142.62 42.7426 142.315 42.4178 142.085 42.0118C141.855 41.6058 141.74 41.0916 141.74 40.4691C141.74 39.7654 141.943 39.1429 142.349 38.6016C142.769 38.0467 143.378 37.6137 144.176 37.3024C144.974 36.9777 145.949 36.8153 147.099 36.8153C147.87 36.8153 148.649 36.8965 149.433 37.0589C150.232 37.2077 150.902 37.4378 151.443 37.749L150.286 40.3676C149.745 40.0563 149.203 39.8466 148.662 39.7383C148.121 39.6165 147.607 39.5556 147.119 39.5556C146.47 39.5556 146.01 39.6301 145.739 39.7789C145.482 39.9278 145.353 40.1105 145.353 40.327C145.353 40.5435 145.468 40.7127 145.698 40.8345C145.928 40.9427 146.233 41.0307 146.612 41.0983C147.004 41.1525 147.431 41.2134 147.891 41.281C148.351 41.3352 148.811 41.4231 149.271 41.5449C149.745 41.6667 150.171 41.8494 150.55 42.093C150.942 42.3231 151.254 42.6411 151.484 43.047C151.714 43.4395 151.829 43.947 151.829 44.5695C151.829 45.2461 151.619 45.8551 151.199 46.3964C150.793 46.9377 150.184 47.3707 149.373 47.6955C148.574 48.0203 147.579 48.1827 146.389 48.1827ZM153.491 48V36.998H157.347V48H153.491ZM155.419 35.78C154.715 35.78 154.147 35.5838 153.714 35.1913C153.281 34.7989 153.064 34.3117 153.064 33.7298C153.064 33.1479 153.281 32.6607 153.714 32.2683C154.147 31.8758 154.715 31.6796 155.419 31.6796C156.123 31.6796 156.691 31.8691 157.124 32.248C157.557 32.6134 157.774 33.087 157.774 33.6689C157.774 34.2779 157.557 34.7854 157.124 35.1913C156.705 35.5838 156.136 35.78 155.419 35.78ZM164.766 48.1827C163.359 48.1827 162.263 47.8376 161.478 47.1474C160.693 46.4437 160.301 45.3882 160.301 43.9808V34.5418H164.157V43.9402C164.157 44.3327 164.266 44.6439 164.482 44.874C164.699 45.0905 164.976 45.1987 165.314 45.1987C165.774 45.1987 166.167 45.0837 166.492 44.8537L167.446 47.5534C167.121 47.7699 166.722 47.9256 166.248 48.0203C165.774 48.1286 165.281 48.1827 164.766 48.1827ZM158.697 40.2864V37.4039H166.674V40.2864H158.697ZM174.381 48.1827C173.082 48.1827 171.945 47.9391 170.97 47.4519C170.01 46.9512 169.259 46.2746 168.717 45.422C168.19 44.5559 167.926 43.5748 167.926 42.4787C167.926 41.3825 168.183 40.4082 168.697 39.5556C169.225 38.6895 169.949 38.0197 170.869 37.546C171.789 37.0589 172.824 36.8153 173.975 36.8153C175.057 36.8153 176.045 37.0386 176.938 37.4851C177.832 37.9182 178.542 38.561 179.07 39.4135C179.598 40.2661 179.861 41.3013 179.861 42.5193C179.861 42.6546 179.855 42.8102 179.841 42.9862C179.828 43.1621 179.814 43.3245 179.801 43.4733H171.092V41.4434H177.75L176.289 42.0118C176.302 41.5111 176.208 41.078 176.005 40.7127C175.815 40.3473 175.545 40.0631 175.193 39.8601C174.854 39.6571 174.455 39.5556 173.995 39.5556C173.535 39.5556 173.129 39.6571 172.777 39.8601C172.439 40.0631 172.175 40.3541 171.985 40.733C171.796 41.0983 171.701 41.5314 171.701 42.0321V42.6208C171.701 43.1621 171.81 43.629 172.026 44.0214C172.256 44.4138 172.581 44.7183 173 44.9349C173.42 45.1378 173.921 45.2393 174.503 45.2393C175.044 45.2393 175.504 45.1649 175.883 45.0161C176.275 44.8537 176.661 44.6101 177.04 44.2853L179.07 46.3964C178.542 46.9783 177.892 47.4249 177.121 47.7361C176.35 48.0338 175.436 48.1827 174.381 48.1827Z" fill="white"/>
<defs>
<filter id="filter0_d_1264_18" x="0.6" y="0.6" width="218.8" height="85.8" filterUnits="userSpaceOnUse" color-interpolation-filters="sRGB">
<feFlood flood-opacity="0" result="BackgroundImageFix"/>
<feColorMatrix in="SourceAlpha" type="matrix" values="0 0 0 0 0 0 0 0 0 0 0 0 0 0 0 0 0 0 127 0" result="hardAlpha"/>
<feOffset dy="3"/>
<feGaussianBlur stdDeviation="4.2"/>
<feComposite in2="hardAlpha" operator="out"/>
<feColorMatrix type="matrix" values="0 0 0 0 0 0 0 0 0 0 0 0 0 0 0 0 0 0 0.5 0"/>
<feBlend mode="normal" in2="BackgroundImageFix" result="effect1_dropShadow_1264_18"/>
<feBlend mode="normal" in="SourceGraphic" in2="effect1_dropShadow_1264_18" result="shape"/>
</filter>
<linearGradient id="paint0_linear_1264_18" x1="110.042" y1="6.00835" x2="110.042" y2="74.9986" gradientUnits="userSpaceOnUse">
<stop stop-color="#4B65DF"/>
<stop offset="1" stop-color="#012F6E"/>
</linearGradient>
</defs>
</svg>
