<svg width="33" height="35" viewBox="0 0 33 35" fill="none" xmlns="http://www.w3.org/2000/svg">
<path fill-rule="evenodd" clip-rule="evenodd" d="M0.74172 1.81392L1.61033 1.66679L1.83827 0.761558L0.527868 0.386719L0.74172 1.81392ZM12.3761 14.774L13.125 15.265L13.1268 15.2631L13.1294 15.2585L13.1382 15.2435L13.1681 15.1901C13.1928 15.1451 13.2297 15.0795 13.2737 14.9961C13.397 14.7666 13.5159 14.5345 13.6302 14.2998C13.9919 13.5621 14.3076 12.7998 14.5753 12.018C14.8728 11.1334 15.128 10.1204 15.1676 9.14015C15.2063 8.16369 15.0356 7.10384 14.3527 6.27263C13.7393 5.5267 12.5829 4.83981 11.3675 4.24569C10.1082 3.62814 8.62615 3.03589 7.22246 2.5233C5.48376 1.89102 3.72754 1.31475 1.9562 0.795293L1.86819 0.769055L1.83739 0.759683L1.60858 1.66586L0.73996 1.81298L0.745237 1.84765L0.760204 1.94699C0.848064 2.52188 0.940176 3.09603 1.03654 3.66937C1.27098 5.07933 1.52682 6.48516 1.80395 7.88631C2.11725 9.46157 2.48159 11.1127 2.86794 12.495C3.03939 13.1272 3.24118 13.7496 3.47253 14.3598C3.67319 14.8752 3.9108 15.3756 4.19946 15.7279C4.81726 16.4795 5.77917 16.7147 6.61962 16.7747C7.49615 16.8375 8.46774 16.7241 9.34164 16.5592C10.121 16.4096 10.8929 16.2189 11.6544 15.9875C11.966 15.8941 12.2759 15.7941 12.5838 15.6876L12.6392 15.667L12.6542 15.6614L12.6586 15.6605H12.6603L12.3761 14.774ZM12.3761 14.774L13.125 15.265L12.9596 15.5508L12.6603 15.6605L12.3761 14.774ZM11.7847 13.9934C10.8837 14.2928 9.96643 14.5338 9.03802 14.7149C8.22484 14.8677 7.41167 14.9539 6.73755 14.9052C6.02558 14.8546 5.66828 14.669 5.52483 14.4947C5.4333 14.3823 5.2837 14.1161 5.09888 13.642C4.89106 13.0921 4.70982 12.5313 4.55589 11.9617C4.1889 10.6498 3.836 9.05394 3.52622 7.49929C3.22895 5.99518 2.95668 4.48559 2.70953 2.97123L2.98146 3.05557C3.95745 3.362 5.27577 3.79401 6.6513 4.29629C8.02947 4.79951 9.449 5.36833 10.6327 5.94839C11.8612 6.55001 12.6903 7.09634 13.0282 7.50772C13.2984 7.83571 13.4374 8.3408 13.4084 9.05956C13.3802 9.77456 13.1875 10.587 12.9182 11.3845C12.6099 12.2865 12.2307 13.1592 11.7847 13.9934ZM28.6193 4.17259L28.8472 5.07783L29.7167 5.22495L29.9297 3.79869L28.6193 4.17259ZM20.0986 15.7298L19.3496 16.2199L19.3479 16.218L19.3461 16.2143L19.3391 16.2021L19.3136 16.1571C19.1809 15.9164 19.0541 15.6721 18.9334 15.4243C18.701 14.9483 18.4045 14.2839 18.1563 13.5492C17.9116 12.822 17.6987 11.9796 17.6661 11.1587C17.6327 10.3406 17.7752 9.42784 18.3684 8.70627C18.8929 8.06717 19.8636 7.49742 20.8493 7.01387C21.8798 6.50878 23.0899 6.02524 24.2331 5.60823C25.649 5.09361 27.0791 4.62454 28.5216 4.20164L28.5938 4.18009L28.6193 4.17259L28.8472 5.07783L29.7167 5.22495L29.7123 5.25307L29.7 5.33459L29.6525 5.64009C29.415 7.15587 29.1477 8.66618 28.8507 10.17C28.5955 11.452 28.2981 12.7986 27.983 13.9278C27.8246 14.4919 27.6591 15.0176 27.4858 15.4609C27.3212 15.8826 27.1197 16.3127 26.8662 16.6201C26.3206 17.2854 25.4819 17.4822 24.7875 17.5309C24.0553 17.5834 23.2518 17.4888 22.5346 17.3547C21.634 17.1826 20.7459 16.9433 19.8768 16.6388L19.8319 16.6229L19.8187 16.6182L19.8143 16.6163L20.0986 15.7298ZM20.0986 15.7298L19.3496 16.2199L19.5151 16.5067L19.8143 16.6163L20.0986 15.7298ZM20.6909 14.9483C20.347 14.2976 20.0535 13.6181 19.8134 12.9167C19.5978 12.2766 19.4464 11.6347 19.4244 11.0781C19.4016 10.5177 19.5125 10.1597 19.6929 9.93949C19.9419 9.63775 20.5844 9.20668 21.585 8.71658C22.539 8.24897 23.6866 7.78885 24.8042 7.38122C25.7779 7.02729 26.7585 6.69548 27.7454 6.38602L27.7419 6.40945C27.5923 7.30906 27.3793 8.52354 27.1285 9.78206C26.8777 11.0434 26.5916 12.3338 26.2959 13.3936C26.1472 13.924 26.0011 14.3823 25.8603 14.7421C25.7107 15.1235 25.598 15.3175 25.5417 15.3868C25.4696 15.474 25.2363 15.6211 24.6696 15.6614C24.1407 15.6989 23.4947 15.6314 22.8399 15.5087C22.1133 15.3692 21.3956 15.1827 20.6909 14.9483ZM22.6182 23.8816C22.8417 23.8948 22.9508 23.9285 22.979 23.9416C23.3777 24.1337 24.5886 24.5835 25.6341 24.963C26.171 25.1589 26.6858 25.3426 27.066 25.4784L27.0906 25.4878V30.551C26.9357 30.5435 26.7694 30.5369 26.5996 30.5303C25.8709 30.5022 25.004 30.4741 24.6282 30.491C23.0512 30.5575 21.8666 30.9548 20.7701 31.3231L20.7463 31.3316C19.7184 31.6764 18.7662 31.9931 17.5191 32.0934C17.1671 32.1215 16.8248 32.1581 16.5053 32.1918H16.5009C15.2741 32.323 14.4662 32.3886 13.8405 32.1468C13.3538 31.9585 11.5717 31.0785 9.77462 30.1161C8.88577 29.6401 8.01451 29.1556 7.32191 28.7405C6.97428 28.5324 6.67946 28.3469 6.45329 28.1913C6.34064 28.1136 6.25088 28.048 6.18223 27.9946C6.15526 27.9735 6.12884 27.9516 6.10303 27.929L6.07839 27.9065C5.99038 27.8118 5.89709 27.482 6.04846 27.1718C6.1197 27.0267 6.23741 26.9137 6.38024 26.8532C6.55626 26.7716 6.85548 26.7089 7.33071 26.7923C8.40262 26.9797 9.6831 27.5288 10.9618 28.0826L10.9794 28.0911C11.6078 28.3628 12.2379 28.6355 12.7967 28.8342C13.3336 29.0244 13.9294 29.195 14.4486 29.1622C15.1615 29.1153 16.412 28.9185 17.4434 28.7405C18.0362 28.6384 18.6282 28.5316 19.2194 28.42L19.3338 28.3984L19.3743 28.39L19.2071 26.5308L15.1852 26.5823H15.1764C15.1294 26.5769 15.0829 26.5675 15.0374 26.5542C14.8983 26.5168 14.6598 26.424 14.3597 26.1981C14.2673 26.1279 14.1459 25.9985 14.0323 25.8252C13.9884 25.7573 13.9484 25.6865 13.9127 25.6134C14.403 25.5802 14.8902 25.5068 15.37 25.3941C15.6313 25.3335 15.8905 25.2632 16.1471 25.1833L16.177 25.1739L21.1027 24.0063L21.1494 23.9978C21.4116 23.9515 21.6755 23.9171 21.9405 23.8948C22.1659 23.8748 22.3923 23.8705 22.6182 23.8816ZM20.9302 23.0888L20.7709 22.1677L20.7551 22.1705L15.7229 23.3625L15.686 23.3747L15.6789 23.3775L15.6455 23.3878L15.5064 23.43C15.3841 23.4656 15.2081 23.5143 14.9986 23.563C14.5709 23.6614 14.0359 23.7523 13.5413 23.7523C13.0458 23.7523 12.5072 23.9491 12.2168 24.5095C11.9686 24.9893 12.0302 25.5084 12.1173 25.8514C12.1982 26.1546 12.3188 26.4442 12.4755 26.7117C12.208 26.5992 11.9237 26.4774 11.6254 26.3481L11.5708 26.3237C10.3581 25.7989 8.90425 25.1692 7.61673 24.9434C6.12063 24.6828 4.99855 25.2545 4.48548 26.3115C4.03313 27.2439 4.13346 28.4734 4.8243 29.2212C4.99768 29.4086 5.25553 29.5989 5.50195 29.7685C5.81577 29.98 6.13506 30.1822 6.45945 30.3748C7.1855 30.8096 8.08403 31.3091 8.98521 31.7917C10.7647 32.7447 12.6392 33.6771 13.2412 33.9095C14.2849 34.3125 15.4924 34.1841 16.5651 34.0698L16.6769 34.0576C17.0016 34.0221 17.3266 33.9909 17.652 33.9639C19.1129 33.8458 20.2323 33.47 21.255 33.127L21.277 33.1195C22.377 32.7503 23.368 32.4214 24.6986 32.3642C24.9908 32.3521 25.7776 32.3745 26.5362 32.4045C26.9634 32.421 27.3905 32.4395 27.8176 32.4598L27.9311 32.4654L28.8516 32.5104V24.1365L28.0798 23.8638C27.4535 23.6422 26.8281 23.4179 26.2035 23.191C25.1087 22.7927 24.0051 22.3795 23.7042 22.2352C23.3812 22.0796 23.0142 22.029 22.7203 22.0102C22.4078 21.9915 22.0866 22.0056 21.8059 22.0281C21.4679 22.0562 21.1314 22.1009 20.7973 22.1621L20.7789 22.1658H20.7736L20.7718 22.1667H20.7701L20.9302 23.0888Z" fill="white"/>
<path fill-rule="evenodd" clip-rule="evenodd" d="M6.71178 7.23264C6.62394 7.31263 6.55176 7.41025 6.49936 7.51995C6.44695 7.62964 6.41536 7.74925 6.40637 7.87194C6.39738 7.99464 6.41117 8.11802 6.44696 8.23504C6.48276 8.35206 6.53985 8.46042 6.61498 8.55395C9.23843 11.8132 12.5043 16.5896 13.9458 20.472C13.9884 20.5864 14.0517 20.6908 14.1321 20.7792C14.2125 20.8676 14.3085 20.9383 14.4146 20.9872C14.5206 21.0361 14.6347 21.0623 14.7503 21.0642C14.8659 21.0662 14.9807 21.0439 15.0882 20.9986C15.1956 20.9533 15.2937 20.8859 15.3767 20.8003C15.4597 20.7147 15.5261 20.6124 15.572 20.4995C15.618 20.3866 15.6426 20.2651 15.6444 20.142C15.6462 20.0189 15.6253 19.8967 15.5828 19.7823C14.0312 15.6037 10.6096 10.6362 7.95266 7.33478C7.8007 7.14616 7.58461 7.02953 7.3519 7.01055C7.1192 6.99157 6.88894 7.0718 6.71178 7.23358M24.1105 10.2388C24.2013 10.3151 24.277 10.4097 24.3334 10.5172C24.3898 10.6246 24.4258 10.7429 24.4393 10.8651C24.4528 10.9874 24.4435 11.1113 24.412 11.2297C24.3805 11.3482 24.3274 11.4589 24.2557 11.5555C22.2826 14.2215 20.1282 17.6335 19.1056 20.4635C19.0178 20.6894 18.8506 20.8698 18.6396 20.9662C18.4287 21.0627 18.1907 21.0675 17.9764 20.9797C17.7622 20.892 17.5886 20.7185 17.4928 20.4963C17.3969 20.2742 17.3864 20.021 17.4634 19.7907C18.582 16.6945 20.8675 13.1045 22.874 10.3953C23.0184 10.2002 23.2297 10.074 23.4614 10.0447C23.6931 10.0153 23.9271 10.0852 24.1105 10.2388Z" fill="white"/>
<path d="M32.3672 22H27.0868V34.1823H32.3672V22Z" fill="white"/>
</svg>
