<svg width="446" height="460" viewBox="0 0 446 460" fill="none" xmlns="http://www.w3.org/2000/svg">
<g filter="url(#filter0_d_824_45861)">
<path d="M379.199 229.135C379.199 316.249 308.356 386.869 220.967 386.869C133.578 386.869 62.7344 316.249 62.7344 229.135C62.7344 142.022 133.578 71.4023 220.967 71.4023C308.356 71.4023 379.199 142.022 379.199 229.135ZM117.403 229.135C117.403 286.152 163.77 332.373 220.967 332.373C278.164 332.373 324.531 286.152 324.531 229.135C324.531 172.119 278.164 125.898 220.967 125.898C163.77 125.898 117.403 172.119 117.403 229.135Z" fill="url(#paint0_linear_824_45861)"/>
</g>
<g opacity="0.6">
<path d="M166.632 121.693L163.776 123.21C162.832 123.712 161.912 124.274 160.968 124.799L153.883 112.457C154.922 111.859 155.962 111.262 157.025 110.676L160.239 109.027L166.632 121.693Z" fill="white"/>
<path d="M176.058 117.437C174.039 118.19 172.091 119.134 170.084 120.006L164.109 107.137C166.308 106.157 168.483 105.106 170.741 104.27L176.058 117.437Z" fill="white"/>
<path d="M185.809 113.964C183.754 114.597 181.723 115.338 179.668 116.007L174.805 102.673C177.087 101.92 179.357 101.108 181.663 100.391L185.809 113.964Z" fill="white"/>
<path d="M195.829 111.376L192.675 112.105L191.097 112.475L189.544 112.918L185.828 99.2126L187.573 98.7227L189.329 98.3164L192.854 97.5039L195.829 111.376Z" fill="white"/>
<path d="M206.035 109.65L202.821 110.068L199.642 110.641L197.109 96.6735L200.67 96.0402L204.243 95.5742L206.035 109.65Z" fill="white"/>
<path d="M216.349 108.769C214.187 108.829 212.036 109.068 209.885 109.211L208.547 95.0758C210.937 94.9205 213.326 94.6576 215.716 94.5859L216.349 108.769Z" fill="white"/>
<path d="M115.061 171.137C114.511 172.057 113.997 173.013 113.519 173.981L112.05 176.861L99.3125 170.588L100.961 167.373C101.499 166.298 102.061 165.235 102.682 164.207L115.061 171.137Z" fill="white"/>
<path d="M120.465 162.305C119.27 164.122 118.075 165.89 116.988 167.766L104.836 160.441C106.091 158.386 107.417 156.379 108.719 154.348L120.465 162.305Z" fill="white"/>
<path d="M126.668 153.993C125.353 155.713 123.944 157.35 122.737 159.143L111.242 150.779C112.592 148.783 114.158 146.943 115.627 145.031L126.668 153.993Z" fill="white"/>
<path d="M133.521 146.24L131.287 148.582L129.16 151.019L118.406 141.759L120.784 139.023L123.269 136.406L133.521 146.24Z" fill="white"/>
<path d="M140.974 139.064C139.314 140.438 137.808 141.992 136.195 143.461L126.266 133.317C128.022 131.668 129.707 129.948 131.559 128.406L140.974 139.064Z" fill="white"/>
<path d="M149.007 132.543C147.286 133.834 145.613 135.196 143.904 136.522L134.859 125.601C136.759 124.12 138.635 122.602 140.559 121.156L149.007 132.543Z" fill="white"/>
<path d="M157.599 126.806C155.807 128.001 153.931 129.076 152.187 130.39L144.109 118.729C146.045 117.307 148.136 116.088 150.084 114.762L157.599 126.806Z" fill="white"/>
<path d="M100.05 220.241C99.8824 222.392 99.6793 224.542 99.6793 226.705L85.4844 226.263C85.4844 223.873 85.7233 221.483 85.9025 219.094L100.05 220.241Z" fill="white"/>
<path d="M101.355 209.968C100.913 212.083 100.722 214.234 100.435 216.373L86.3359 214.736C86.6466 212.346 86.8856 209.956 87.3516 207.566L101.355 209.968Z" fill="white"/>
<path d="M103.495 199.863L102.037 206.16L88.1172 203.28C88.6549 200.89 89.1806 198.584 89.7541 196.242L103.495 199.863Z" fill="white"/>
<path d="M106.535 189.966C105.866 192.021 105.09 194.029 104.552 196.12L90.8828 192.117C91.4922 189.787 92.3525 187.529 93.1052 185.234L106.535 189.966Z" fill="white"/>
<path d="M110.416 180.363L109.09 183.314L107.907 186.325L94.6797 181.175L96.006 177.806L97.4876 174.508L110.416 180.363Z" fill="white"/>
<path d="M100.053 240.938C100.161 243.1 100.496 245.227 100.758 247.378L86.6949 249.313C86.4081 246.924 86.0377 244.534 85.9062 242.144L100.053 240.938Z" fill="white"/>
<path d="M99.5856 230.598L99.7529 237.074L85.5818 237.815L85.3906 230.598H99.5856Z" fill="white"/>
</g>
<g opacity="0.6">
<path d="M276.758 337.981L279.637 336.511C280.593 336.009 281.513 335.448 282.445 334.91L289.507 347.229C288.467 347.815 287.428 348.424 286.364 349.009L283.15 350.658L276.758 337.981Z" fill="white"/>
<path d="M267.344 342.268C269.363 341.515 271.311 340.571 273.318 339.699L279.292 352.568C277.094 353.548 274.919 354.599 272.661 355.435L267.344 342.268Z" fill="white"/>
<path d="M257.586 345.719C259.641 345.074 261.672 344.345 263.728 343.676L268.591 356.998C266.308 357.763 264.038 358.576 261.744 359.293L257.586 345.719Z" fill="white"/>
<path d="M247.57 348.311L250.725 347.582L252.302 347.211L253.855 346.781L257.571 360.474L255.827 360.964L254.07 361.37L250.546 362.183L247.57 348.311Z" fill="white"/>
<path d="M237.367 350.035L240.581 349.617L243.76 349.043L246.293 363.011L242.732 363.644L239.159 364.11L237.367 350.035Z" fill="white"/>
<path d="M227.102 350.915C229.264 350.915 231.415 350.616 233.566 350.484L234.844 364.584C232.455 364.739 230.065 365.002 227.675 365.062L227.102 350.915Z" fill="white"/>
<path d="M328.328 288.571C328.878 287.651 329.392 286.695 329.87 285.727L331.339 282.848L344.076 289.109L342.427 292.335C341.89 293.41 341.328 294.474 340.707 295.501L328.328 288.571Z" fill="white"/>
<path d="M322.914 297.382C324.109 295.578 325.304 293.798 326.391 291.934L338.543 299.258C337.348 301.313 335.962 303.321 334.66 305.352L322.914 297.382Z" fill="white"/>
<path d="M316.711 305.697C318.025 303.976 319.435 302.339 320.642 300.547L332.137 308.911C330.786 310.906 329.221 312.746 327.751 314.658L316.711 305.697Z" fill="white"/>
<path d="M309.883 313.459L312.117 311.117L314.244 308.68L324.998 317.94L322.62 320.676L320.135 323.293L309.883 313.459Z" fill="white"/>
<path d="M302.383 320.631C304.044 319.257 305.549 317.704 307.162 316.234L317.092 326.379C315.335 328.028 313.65 329.748 311.798 331.29L302.383 320.631Z" fill="white"/>
<path d="M294.375 327.147C296.096 325.856 297.78 324.494 299.477 323.168L308.522 334.113C306.622 335.595 304.746 337.112 302.823 338.558L294.375 327.147Z" fill="white"/>
<path d="M285.797 332.96C287.601 331.765 289.477 330.689 291.21 329.375L299.287 341.037C297.351 342.459 295.26 343.677 293.253 345.004L285.797 332.96Z" fill="white"/>
<path d="M343.336 239.452C343.503 237.302 343.706 235.151 343.706 232.988L357.901 233.43C357.901 235.82 357.662 238.21 357.483 240.6L343.336 239.452Z" fill="white"/>
<path d="M342.047 249.717C342.477 247.602 342.668 245.451 342.955 243.312L357.066 244.949C356.744 247.339 356.505 249.729 356.039 252.119L342.047 249.717Z" fill="white"/>
<path d="M339.898 259.84L341.368 253.543L355.276 256.375C354.739 258.764 354.213 261.071 353.639 263.412L339.898 259.84Z" fill="white"/>
<path d="M336.852 269.739C337.521 267.684 338.309 265.677 338.835 263.586L352.456 267.589C351.847 269.919 350.987 272.177 350.246 274.471L336.852 269.739Z" fill="white"/>
<path d="M332.984 279.326L334.311 276.374L335.494 273.363L348.721 278.525L347.394 281.883L345.913 285.18L332.984 279.326Z" fill="white"/>
<path d="M343.338 218.809C343.23 216.659 342.896 214.52 342.633 212.381L356.696 210.445C356.983 212.835 357.353 215.225 357.485 217.614L343.338 218.809Z" fill="white"/>
<path d="M343.816 229.111L343.648 222.635L357.819 221.895L358.011 229.111H343.816Z" fill="white"/>
</g>
<path d="M348.389 207.369C348.251 207.372 348.116 207.325 348.009 207.237C347.902 207.15 347.829 207.027 347.804 206.891C344.105 187.231 335.869 168.705 323.751 152.788C323.666 152.662 323.632 152.509 323.656 152.358C323.68 152.208 323.76 152.073 323.881 151.98C324.001 151.887 324.152 151.844 324.304 151.858C324.455 151.873 324.595 151.945 324.695 152.059C336.932 168.123 345.25 186.82 348.987 206.664C349.015 206.821 348.981 206.982 348.891 207.114C348.802 207.246 348.665 207.338 348.509 207.369H348.389Z" fill="#6D97B5"/>
<path d="M355.517 206.528C355.377 206.53 355.241 206.481 355.133 206.391C355.026 206.301 354.954 206.176 354.931 206.038C350.972 184.544 341.876 164.327 328.417 147.107C328.32 146.984 328.275 146.826 328.293 146.669C328.311 146.513 328.39 146.37 328.513 146.271C328.575 146.221 328.646 146.183 328.722 146.161C328.798 146.139 328.878 146.132 328.957 146.14C329.036 146.149 329.113 146.174 329.182 146.213C329.252 146.252 329.312 146.304 329.361 146.367C342.946 163.74 352.136 184.137 356.15 205.823C356.178 205.978 356.144 206.138 356.054 206.268C355.964 206.398 355.827 206.487 355.672 206.516L355.517 206.528Z" fill="#6D97B5"/>
<path d="M342.396 210.117C342.255 210.116 342.118 210.065 342.011 209.973C341.904 209.881 341.833 209.754 341.81 209.615C338.408 190.121 330.318 171.746 318.236 156.073C318.15 155.947 318.116 155.794 318.14 155.644C318.164 155.493 318.245 155.358 318.365 155.265C318.485 155.172 318.637 155.129 318.788 155.143C318.939 155.158 319.08 155.23 319.18 155.344C331.391 171.167 339.568 189.723 343.005 209.412C343.033 209.567 342.999 209.727 342.909 209.857C342.82 209.987 342.682 210.076 342.527 210.105L342.396 210.117Z" fill="#6D97B5"/>
<path d="M304.655 132.473C304.514 132.475 304.377 132.424 304.273 132.33C281.776 113.415 253.483 102.768 224.097 102.16C223.939 102.16 223.787 102.097 223.675 101.985C223.563 101.873 223.5 101.721 223.5 101.562C223.5 101.404 223.563 101.252 223.675 101.14C223.787 101.028 223.939 100.965 224.097 100.965C253.756 101.581 282.31 112.329 305.013 131.422C305.106 131.501 305.172 131.606 305.203 131.724C305.234 131.841 305.228 131.966 305.187 132.08C305.145 132.194 305.07 132.293 304.97 132.364C304.871 132.434 304.753 132.472 304.631 132.473H304.655Z" fill="#6D97B5"/>
<path d="M311.028 128.507C310.883 128.508 310.743 128.457 310.633 128.363C286.861 107.656 256.621 95.8692 225.105 95.0269C224.947 95.0269 224.795 94.964 224.683 94.8519C224.571 94.7399 224.508 94.5879 224.508 94.4295C224.508 94.271 224.571 94.1191 224.683 94.007C224.795 93.895 224.947 93.832 225.105 93.832C256.903 94.6805 287.414 106.573 311.398 127.467C311.458 127.518 311.507 127.58 311.542 127.649C311.578 127.719 311.599 127.795 311.604 127.873C311.61 127.951 311.6 128.029 311.575 128.103C311.549 128.177 311.51 128.245 311.458 128.304C311.405 128.366 311.339 128.417 311.265 128.452C311.191 128.487 311.11 128.506 311.028 128.507Z" fill="#6D97B5"/>
<path d="M301.355 138.032C301.211 138.034 301.071 137.983 300.961 137.889C279.472 119.488 252.262 109.115 223.976 108.543C223.898 108.541 223.82 108.524 223.748 108.493C223.677 108.462 223.612 108.416 223.557 108.36C223.503 108.303 223.46 108.236 223.432 108.163C223.403 108.09 223.389 108.012 223.391 107.934C223.391 107.855 223.407 107.777 223.437 107.704C223.468 107.631 223.514 107.566 223.571 107.511C223.628 107.456 223.695 107.414 223.769 107.386C223.843 107.358 223.921 107.345 224 107.348C252.562 107.929 280.037 118.402 301.738 136.981C301.858 137.085 301.933 137.232 301.946 137.39C301.96 137.549 301.911 137.706 301.809 137.829C301.752 137.892 301.682 137.943 301.604 137.978C301.525 138.013 301.441 138.031 301.355 138.032Z" fill="#6D97B5"/>
<path d="M314.924 157.312C311.852 157.312 308.848 156.401 306.294 154.695C303.74 152.988 301.749 150.562 300.573 147.724C299.397 144.885 299.09 141.762 299.689 138.749C300.288 135.736 301.768 132.968 303.94 130.796C306.113 128.623 308.88 127.144 311.893 126.545C314.907 125.945 318.03 126.253 320.868 127.428C323.706 128.604 326.132 130.595 327.839 133.15C329.546 135.704 330.457 138.707 330.457 141.779C330.457 145.899 328.82 149.85 325.907 152.763C322.994 155.676 319.043 157.312 314.924 157.312ZM314.924 128.636C312.324 128.636 309.783 129.407 307.622 130.851C305.46 132.295 303.776 134.348 302.781 136.749C301.786 139.151 301.526 141.794 302.033 144.343C302.54 146.893 303.792 149.235 305.63 151.073C307.468 152.911 309.81 154.163 312.36 154.67C314.909 155.177 317.552 154.917 319.954 153.922C322.355 152.927 324.408 151.243 325.852 149.081C327.296 146.92 328.067 144.379 328.067 141.779C328.067 138.293 326.683 134.95 324.218 132.485C321.753 130.021 318.41 128.636 314.924 128.636Z" fill="#6D97B5"/>
<path d="M314.931 149.342C313.435 149.342 311.972 148.898 310.729 148.067C309.485 147.236 308.515 146.055 307.943 144.673C307.37 143.291 307.221 141.77 307.513 140.303C307.804 138.836 308.525 137.488 309.582 136.43C310.64 135.372 311.988 134.652 313.455 134.36C314.922 134.068 316.443 134.218 317.825 134.791C319.207 135.363 320.388 136.332 321.219 137.576C322.051 138.82 322.494 140.282 322.494 141.778C322.491 143.783 321.693 145.705 320.275 147.123C318.858 148.541 316.936 149.339 314.931 149.342ZM314.931 136.605C313.907 136.605 312.907 136.908 312.056 137.476C311.205 138.045 310.542 138.853 310.151 139.798C309.759 140.744 309.657 141.784 309.856 142.788C310.056 143.791 310.549 144.713 311.272 145.437C311.996 146.16 312.918 146.653 313.921 146.853C314.925 147.052 315.965 146.95 316.911 146.558C317.856 146.167 318.664 145.504 319.232 144.653C319.801 143.802 320.104 142.802 320.104 141.778C320.104 141.099 319.971 140.426 319.711 139.798C319.451 139.171 319.069 138.6 318.589 138.12C318.109 137.64 317.538 137.258 316.911 136.998C316.283 136.738 315.61 136.605 314.931 136.605Z" fill="#6D97B5"/>
<path d="M122.639 314.119C122.552 314.119 122.467 314.1 122.388 314.063C122.31 314.026 122.24 313.971 122.185 313.904C107.727 296.688 97.9999 276.003 93.9627 253.886C93.9342 253.728 93.9698 253.565 94.0617 253.432C94.1536 253.3 94.2942 253.21 94.4526 253.181C94.6111 253.153 94.7744 253.189 94.9066 253.28C95.0388 253.372 95.1291 253.513 95.1576 253.671C99.1671 275.583 108.811 296.073 123.141 313.128C123.193 313.188 123.232 313.257 123.256 313.333C123.281 313.408 123.29 313.488 123.283 313.567C123.276 313.646 123.254 313.723 123.217 313.793C123.181 313.863 123.13 313.925 123.07 313.976C123.012 314.028 122.944 314.068 122.87 314.093C122.796 314.118 122.717 314.127 122.639 314.119Z" fill="#B0BFFF"/>
<path d="M221.533 360.236C193.116 360.327 165.47 350.994 142.923 333.698C142.798 333.599 142.716 333.456 142.694 333.298C142.671 333.14 142.711 332.979 142.803 332.85C142.902 332.724 143.047 332.642 143.206 332.622C143.364 332.602 143.525 332.645 143.652 332.742C165.989 349.88 193.379 359.125 221.533 359.029C221.691 359.029 221.843 359.092 221.955 359.204C222.067 359.316 222.13 359.468 222.13 359.626C222.132 359.706 222.118 359.785 222.088 359.859C222.059 359.933 222.015 360 221.96 360.057C221.904 360.113 221.837 360.158 221.764 360.189C221.691 360.22 221.612 360.236 221.533 360.236Z" fill="#B0BFFF"/>
<path d="M133.01 339.238C129.938 339.238 126.934 338.327 124.38 336.62C121.826 334.914 119.835 332.488 118.659 329.649C117.483 326.811 117.176 323.688 117.775 320.675C118.374 317.662 119.854 314.894 122.026 312.721C124.199 310.549 126.966 309.07 129.979 308.47C132.993 307.871 136.116 308.179 138.954 309.354C141.792 310.53 144.218 312.521 145.925 315.075C147.632 317.63 148.543 320.633 148.543 323.705C148.543 327.825 146.906 331.776 143.993 334.689C141.08 337.602 137.129 339.238 133.01 339.238ZM133.01 310.562C130.41 310.562 127.869 311.332 125.708 312.777C123.546 314.221 121.862 316.274 120.867 318.675C119.872 321.077 119.612 323.72 120.119 326.269C120.626 328.819 121.878 331.161 123.716 332.999C125.554 334.837 127.896 336.089 130.446 336.596C132.995 337.103 135.638 336.843 138.04 335.848C140.441 334.853 142.494 333.169 143.938 331.007C145.382 328.846 146.153 326.305 146.153 323.705C146.153 320.219 144.768 316.876 142.304 314.411C139.839 311.946 136.496 310.562 133.01 310.562Z" fill="#B0BFFF"/>
<path d="M119.141 321.035C119.057 321.037 118.973 321.02 118.896 320.985C118.82 320.95 118.752 320.898 118.699 320.832C102.33 302.221 91.3423 279.501 86.9157 255.115C86.8878 254.96 86.9223 254.8 87.0119 254.67C87.1014 254.54 87.2386 254.451 87.3936 254.422C87.5485 254.397 87.7069 254.433 87.8359 254.522C87.965 254.611 88.0548 254.746 88.0866 254.9C92.4694 279.071 103.354 301.592 119.571 320.043C119.681 320.157 119.743 320.309 119.743 320.468C119.743 320.626 119.681 320.778 119.571 320.892C119.452 320.994 119.298 321.046 119.141 321.035Z" fill="#B0BFFF"/>
<path d="M221.53 367.402C190.747 367.52 160.843 357.139 136.755 337.972C136.63 337.875 136.548 337.733 136.528 337.576C136.508 337.42 136.551 337.261 136.647 337.136C136.756 337.021 136.906 336.953 137.064 336.946C137.223 336.939 137.377 336.994 137.496 337.1C161.377 356.093 191.017 366.381 221.53 366.267C221.689 366.267 221.841 366.329 221.953 366.442C222.065 366.554 222.128 366.706 222.128 366.864C222.113 367.012 222.043 367.149 221.933 367.248C221.822 367.348 221.679 367.402 221.53 367.402Z" fill="#B0BFFF"/>
<path d="M128.109 310.697C128.024 310.698 127.939 310.68 127.86 310.645C127.782 310.61 127.712 310.558 127.655 310.494C113.541 293.968 104.058 273.997 100.174 252.615C100.146 252.46 100.18 252.3 100.27 252.17C100.359 252.04 100.496 251.951 100.651 251.922C100.806 251.897 100.965 251.933 101.094 252.022C101.223 252.111 101.313 252.246 101.344 252.4C105.178 273.581 114.553 293.37 128.516 309.753C128.588 309.84 128.634 309.945 128.649 310.058C128.664 310.17 128.646 310.284 128.599 310.386C128.551 310.489 128.475 310.576 128.38 310.637C128.285 310.699 128.175 310.732 128.062 310.733L128.109 310.697Z" fill="#B0BFFF"/>
<path d="M221.518 353.828C194.48 353.91 168.178 345.023 146.732 328.556C146.605 328.459 146.521 328.315 146.498 328.157C146.476 327.998 146.517 327.837 146.613 327.708C146.71 327.583 146.852 327.502 147.009 327.481C147.165 327.461 147.324 327.504 147.449 327.6C168.689 343.918 194.746 352.723 221.53 352.633C221.689 352.633 221.841 352.696 221.953 352.808C222.065 352.92 222.128 353.072 222.128 353.23C222.128 353.389 222.065 353.541 221.953 353.653C221.841 353.765 221.689 353.828 221.53 353.828H221.518Z" fill="#B0BFFF"/>
<path d="M132.505 330.955C131.009 330.953 129.548 330.507 128.306 329.675C127.064 328.842 126.096 327.66 125.525 326.278C124.955 324.895 124.807 323.375 125.1 321.909C125.393 320.442 126.114 319.096 127.173 318.039C128.231 316.983 129.579 316.263 131.045 315.973C132.512 315.682 134.032 315.832 135.414 316.405C136.795 316.978 137.976 317.947 138.806 319.191C139.637 320.434 140.08 321.896 140.08 323.392C140.077 325.399 139.277 327.322 137.857 328.74C136.437 330.159 134.512 330.955 132.505 330.955ZM132.505 318.218C131.482 318.22 130.483 318.526 129.634 319.096C128.784 319.666 128.123 320.474 127.733 321.42C127.343 322.366 127.243 323.405 127.444 324.408C127.645 325.411 128.138 326.332 128.862 327.054C129.586 327.777 130.508 328.268 131.512 328.467C132.515 328.665 133.555 328.562 134.499 328.17C135.444 327.778 136.251 327.115 136.819 326.265C137.387 325.414 137.69 324.414 137.69 323.392C137.69 322.711 137.556 322.037 137.295 321.409C137.035 320.78 136.652 320.21 136.171 319.729C135.689 319.248 135.117 318.868 134.488 318.608C133.859 318.349 133.185 318.216 132.505 318.218Z" fill="#B0BFFF"/>
<path d="M229.695 0L244.428 14.7326L229.695 29.4533V0Z" fill="url(#paint1_linear_824_45861)" fill-opacity="0.2"/>
<path d="M238.062 0L252.795 14.7326L238.062 29.4533V0Z" fill="url(#paint2_linear_824_45861)" fill-opacity="0.2"/>
<path d="M221.328 0L236.061 14.7326L221.328 29.4533V0Z" fill="url(#paint3_linear_824_45861)"/>
<path d="M39.5731 223.007L39.5373 224.321L29.6797 224.034L29.7155 222.66L39.5731 223.007Z" fill="white"/>
<path d="M39.9412 216.455L39.8456 217.757L30 217.124L30.0956 215.75L39.9412 216.455Z" fill="white"/>
<path d="M40.4808 209.915C40.4808 210.345 40.3613 210.787 40.3374 211.217L30.5156 210.237C30.5156 209.771 30.6232 209.317 30.6829 208.863L40.4808 209.915Z" fill="white"/>
<path d="M41.3199 203.398L41.1526 204.701L31.3906 203.362L31.5579 201.988L41.3199 203.398Z" fill="white"/>
<path d="M42.3944 196.936L42.1673 198.227L32.4531 196.53L32.6921 195.18L42.3944 196.936Z" fill="white"/>
<path d="M43.6756 190.494L43.3769 191.772L33.7344 189.729L34.0451 188.391L43.6756 190.494Z" fill="white"/>
<path d="M45.1508 184.106L44.8521 185.384L35.2812 182.995L35.5919 181.645L45.1508 184.106Z" fill="white"/>
<path d="M46.9431 177.784L46.5846 179.051L37.1094 176.315L37.4798 174.977L46.9431 177.784Z" fill="white"/>
<path d="M48.9307 171.549L48.5005 172.791L39.1328 169.709L39.5749 168.406L48.9307 171.549Z" fill="white"/>
<path d="M51.1209 165.372L50.631 166.591L41.3828 163.173L41.8846 161.883L51.1209 165.372Z" fill="white"/>
<path d="M53.5322 159.261L53.0543 160.48L43.9375 156.728L44.4393 155.438L53.5322 159.261Z" fill="white"/>
<path d="M56.2105 153.275L55.6609 154.47L46.6875 150.384L47.261 149.129L56.2105 153.275Z" fill="white"/>
<path d="M59.0837 147.363L58.4863 148.534L49.6562 144.125L50.2895 142.895L59.0837 147.363Z" fill="white"/>
<path d="M62.1402 141.557L61.4831 142.704L52.8203 137.972L53.5133 136.777L62.1402 141.557Z" fill="white"/>
<path d="M65.4141 135.883L64.757 137.03L56.2734 131.988L56.9665 130.793L65.4141 135.883Z" fill="white"/>
<path d="M68.9233 130.346L68.2184 131.445L59.9141 126.116L60.6668 124.945L68.9233 130.346Z" fill="white"/>
<path d="M72.6237 124.918L71.859 125.981L63.7578 120.354L64.5703 119.23L72.6237 124.918Z" fill="white"/>
<path d="M76.4876 119.615L75.6751 120.642L67.7891 114.728L68.6374 113.641L76.4876 119.615Z" fill="white"/>
<path d="M80.5382 114.456L79.7257 115.484L72.0547 109.294L72.9031 108.207L80.5382 114.456Z" fill="white"/>
<path d="M84.8043 109.473L83.956 110.465L76.5 104.001L77.4081 102.949L84.8043 109.473Z" fill="white"/>
<path d="M89.2381 104.634L88.33 105.59L81.125 98.8511L82.0809 97.8594L89.2381 104.634Z" fill="white"/>
<path d="M93.8318 99.9359L92.876 100.844L85.9219 93.8541L86.9136 92.9102L93.8318 99.9359Z" fill="white"/>
<path d="M98.5768 95.4134L97.6329 96.3215L90.9297 89.0926L91.9214 88.1367L98.5768 95.4134Z" fill="white"/>
<path d="M103.518 91.0977L102.526 91.958L96.0859 84.4901L97.1374 83.582L103.518 91.0977Z" fill="white"/>
<path d="M108.596 86.9497L107.568 87.7503L101.391 80.0554L102.49 79.207L108.596 86.9497Z" fill="white"/>
<path d="M113.806 82.9538L112.742 83.7066L106.852 75.7966L107.975 74.9961L113.806 82.9538Z" fill="white"/>
<path d="M119.152 79.145L118.076 79.9097L112.484 71.7966L113.608 70.9961L119.152 79.145Z" fill="white"/>
<path d="M124.67 75.5825L123.571 76.2994L118.266 67.9832L119.425 67.2305L124.67 75.5825Z" fill="white"/>
<path d="M130.298 72.2032L129.163 72.8603L124.156 64.3649L125.351 63.6719L130.298 72.2032Z" fill="white"/>
<path d="M136.019 69.0113L134.848 69.6087L130.164 60.9341L131.395 60.3008L136.019 69.0113Z" fill="white"/>
<path d="M141.857 66.0143L140.686 66.6237L136.312 57.7698L137.543 57.1484L141.857 66.0143Z" fill="white"/>
<path d="M147.816 63.2946L146.621 63.8323L142.57 54.847L143.837 54.2734L147.816 63.2946Z" fill="white"/>
<path d="M153.876 60.7544L152.646 61.2324L148.93 52.1036L150.22 51.5898L153.876 60.7544Z" fill="white"/>
<path d="M159.999 58.4208L158.756 58.839L155.375 49.5788L156.689 49.1367L159.999 58.4208Z" fill="white"/>
<path d="M166.215 56.3059L164.984 56.7241L161.938 47.3444L163.24 46.9023L166.215 56.3059Z" fill="white"/>
<path d="M172.514 54.4837L171.247 54.8422L168.547 45.355L169.873 44.9727L172.514 54.4837Z" fill="white"/>
<path d="M178.867 52.8447L177.588 53.1315L175.234 43.5607L176.585 43.25L178.867 52.8447Z" fill="white"/>
<path d="M185.286 51.4051C184.856 51.4768 184.426 51.5605 184.008 51.668L181.977 41.9777C182.419 41.8702 182.873 41.7865 183.327 41.7148L185.286 51.4051Z" fill="white"/>
<path d="M191.721 50.2459L190.43 50.4729L188.781 40.7468L190.143 40.5078L191.721 50.2459Z" fill="white"/>
<path d="M198.222 49.3289L196.92 49.4961L195.617 39.7222L196.991 39.543L198.222 49.3289Z" fill="white"/>
<path d="M204.743 48.6225L203.428 48.7301L202.484 38.9083L203.858 38.8008L204.743 48.6225Z" fill="white"/>
<path d="M211.295 48.1349L209.98 48.2305L209.383 38.3849L210.769 38.2773L211.295 48.1349Z" fill="white"/>
<path d="M217.854 47.932L216.54 47.9679L216.289 38.0983L217.675 38.0625L217.854 47.932Z" fill="white"/>
<path d="M224.416 47.9403L223.102 47.9045L223.209 38.0469L224.595 38.0708L224.416 47.9403Z" fill="white"/>
<path d="M230.978 48.1193C230.536 48.1193 230.106 48.1193 229.664 48.1193L230.118 38.2617C230.584 38.2617 231.038 38.2617 231.504 38.3215L230.978 48.1193Z" fill="white"/>
<path d="M237.517 48.609L236.203 48.5134L237.016 38.6797L238.402 38.7872L237.517 48.609Z" fill="white"/>
<path d="M244.052 49.3399L242.75 49.1726L243.909 39.3867L245.283 39.554L244.052 49.3399Z" fill="white"/>
<path d="M250.533 50.2505L249.242 50.0115L250.76 40.2734L252.122 40.5124L250.533 50.2505Z" fill="white"/>
<path d="M256.994 51.3939L255.703 51.1669L257.567 41.4766L258.929 41.7275L256.994 51.3939Z" fill="white"/>
<path d="M263.411 52.8507L262.133 52.552L264.343 42.9453L265.694 43.256L263.411 52.8507Z" fill="white"/>
<path d="M269.747 54.4833L268.492 54.1129L271.049 44.5898L272.387 44.9722L269.747 54.4833Z" fill="white"/>
<path d="M276.085 56.3178C275.667 56.1864 275.261 56.0311 274.891 55.9116L277.806 46.4961C278.248 46.6036 278.678 46.7709 279.12 46.9143L276.085 56.3178Z" fill="white"/>
<path d="M282.258 58.4097L281.016 57.9915L284.278 48.6836L285.58 49.1257L282.258 58.4097Z" fill="white"/>
<path d="M288.391 60.7641L287.172 60.2861L290.756 51.0977L292.047 51.5995L288.391 60.7641Z" fill="white"/>
<path d="M294.445 63.2939L293.25 62.7562L297.157 53.6992L298.424 54.2728L294.445 63.2939Z" fill="white"/>
<path d="M300.406 66.0102C300.011 65.807 299.617 65.6278 299.211 65.4486L303.453 56.5469C303.871 56.7381 304.289 56.9173 304.648 57.1443L300.406 66.0102Z" fill="white"/>
<path d="M306.241 69.0118L305.07 68.4143L309.635 59.668L310.865 60.3012L306.241 69.0118Z" fill="white"/>
<path d="M311.971 72.2204L310.836 71.5752L315.711 62.9961L316.918 63.6891L311.971 72.2204Z" fill="white"/>
<path d="M317.603 75.589L316.492 74.884L321.678 66.4961L322.849 67.2369L317.603 75.589Z" fill="white"/>
<path d="M323.107 79.1483C322.749 78.8854 322.378 78.6584 322.008 78.4194L327.492 70.2227C327.875 70.4736 328.269 70.7125 328.687 70.9874L323.107 79.1483Z" fill="white"/>
<path d="M328.458 82.9614L327.383 82.1967L333.154 74.2031L334.289 75.0037L328.458 82.9614Z" fill="white"/>
<path d="M333.68 86.9506L332.641 86.1381L338.699 78.3477L339.786 79.208L333.68 86.9506Z" fill="white"/>
<path d="M338.749 91.0954L337.758 90.2351L344.091 82.6836L345.13 83.5797L338.749 91.0954Z" fill="white"/>
<path d="M343.683 95.404C343.372 95.0933 343.038 94.8185 342.703 94.5317L349.311 87.1953C349.657 87.506 350.016 87.8047 350.338 88.1273L343.683 95.404Z" fill="white"/>
<path d="M348.44 99.9233L347.484 99.0271L354.355 91.9297L355.358 92.8975L348.44 99.9233Z" fill="white"/>
<path d="M353.033 104.634L352.125 103.69L359.234 96.8555L360.19 97.8591L353.033 104.634Z" fill="white"/>
<path d="M357.462 109.462L356.602 108.47L363.95 101.898L364.858 102.938L357.462 109.462Z" fill="white"/>
<path d="M361.727 114.457C361.464 114.111 361.177 113.776 360.891 113.442L368.466 107.133C368.777 107.479 369.075 107.838 369.35 108.208L361.727 114.457Z" fill="white"/>
<path d="M365.789 119.62L364.977 118.593L372.779 112.559L373.627 113.646L365.789 119.62Z" fill="white"/>
<path d="M369.663 124.92L368.898 123.845L376.916 118.098L377.717 119.233L369.663 124.92Z" fill="white"/>
<path d="M373.353 130.345L372.648 129.234L380.869 123.785L381.61 124.944L373.353 130.345Z" fill="white"/>
<path d="M376.853 135.878C376.638 135.496 376.411 135.126 376.172 134.755L384.536 129.605C384.799 129.988 385.038 130.382 385.265 130.8L376.853 135.878Z" fill="white"/>
<path d="M380.134 141.576L379.477 140.441L388.068 135.602L388.761 136.796L380.134 141.576Z" fill="white"/>
<path d="M383.199 147.375L382.602 146.204L391.36 141.676L391.993 142.906L383.199 147.375Z" fill="white"/>
<path d="M386.046 153.272L385.508 152.077L394.433 147.859L394.995 149.126L386.046 153.272Z" fill="white"/>
<path d="M388.733 159.266C388.589 158.847 388.398 158.453 388.219 158.071L397.288 154.188C397.467 154.606 397.67 155.024 397.825 155.454L388.733 159.266Z" fill="white"/>
<path d="M391.15 165.361L390.672 164.143L399.872 160.582L400.374 161.872L391.15 165.361Z" fill="white"/>
<path d="M393.332 171.547L392.914 170.304L402.246 167.09L402.688 168.404L393.332 171.547Z" fill="white"/>
<path d="M395.327 177.79L394.969 176.536L404.408 173.656L404.779 174.983L395.327 177.79Z" fill="white"/>
<path d="M397.116 184.108L396.758 182.853L406.293 180.32L406.675 181.647L397.116 184.108Z" fill="white"/>
<path d="M398.603 190.492L398.305 189.214L407.923 187.039L408.234 188.389L398.603 190.492Z" fill="white"/>
<path d="M399.872 196.931L399.633 195.641L409.323 193.801L409.574 195.175L399.872 196.931Z" fill="white"/>
<path d="M400.949 203.393L400.781 202.091L410.531 200.621L410.711 201.983L400.949 203.393Z" fill="white"/>
<path d="M401.792 209.91L401.625 208.608L411.423 207.484L411.602 208.858L401.792 209.91Z" fill="white"/>
<path d="M402.33 216.466L402.234 215.152L412.068 214.375L412.164 215.761L402.33 216.466Z" fill="white"/>
<path d="M402.7 223.006L402.664 221.692L412.522 221.273L412.557 222.659L402.7 223.006Z" fill="white"/>
<path d="M402.856 229.558L402.82 228.244L412.69 228.172L412.714 229.558H402.856Z" fill="white"/>
<path d="M402.688 236.127L402.723 234.812L412.581 235.099L412.545 236.485L402.688 236.127Z" fill="white"/>
<path d="M402.328 242.678L402.424 241.363L412.269 241.997L412.162 243.383L402.328 242.678Z" fill="white"/>
<path d="M401.773 249.232C401.773 248.802 401.893 248.36 401.917 247.93L411.739 248.909C411.739 249.375 411.631 249.83 411.571 250.284L401.773 249.232Z" fill="white"/>
<path d="M400.953 255.732L401.108 254.43L410.882 255.768L410.715 257.142L400.953 255.732Z" fill="white"/>
<path d="M399.875 262.197L400.102 260.906L409.816 262.603L409.577 263.965L399.875 262.197Z" fill="white"/>
<path d="M398.594 268.642L398.881 267.363L408.535 269.406L408.224 270.757L398.594 268.642Z" fill="white"/>
<path d="M397.117 275.032L397.416 273.754L406.987 276.144L406.676 277.494L397.117 275.032Z" fill="white"/>
<path d="M395.328 281.341L395.687 280.074L405.162 282.822L404.779 284.149L395.328 281.341Z" fill="white"/>
<path d="M393.32 287.582L393.738 286.34L403.118 289.423L402.676 290.737L393.32 287.582Z" fill="white"/>
<path d="M391.148 293.781L391.638 292.551L400.887 295.98L400.373 297.259L391.148 293.781Z" fill="white"/>
<path d="M388.742 299.867L389.22 298.648L398.337 302.4L397.835 303.691L388.742 299.867Z" fill="white"/>
<path d="M386.055 305.867L386.592 304.66L395.578 308.747L395.004 310.001L386.055 305.867Z" fill="white"/>
<path d="M383.188 311.761L383.785 310.59L392.615 314.999L391.982 316.23L383.188 311.761Z" fill="white"/>
<path d="M380.133 317.573L380.79 316.438L389.441 321.157L388.76 322.352L380.133 317.573Z" fill="white"/>
<path d="M376.844 323.268L377.501 322.133L385.984 327.163L385.291 328.358L376.844 323.268Z" fill="white"/>
<path d="M373.336 328.803L374.041 327.691L382.345 333.021L381.592 334.191L373.336 328.803Z" fill="white"/>
<path d="M369.656 334.216L370.421 333.152L378.522 338.78L377.71 339.903L369.656 334.216Z" fill="white"/>
<path d="M365.789 339.52L366.602 338.492L374.488 344.407L373.627 345.494L365.789 339.52Z" fill="white"/>
<path d="M361.727 344.68L362.539 343.652L370.21 349.854L369.362 350.929L361.727 344.68Z" fill="white"/>
<path d="M357.469 349.664L358.317 348.672L365.773 355.136L364.865 356.188L357.469 349.664Z" fill="white"/>
<path d="M353.031 354.499L353.927 353.543L361.144 360.282L360.188 361.286L353.031 354.499Z" fill="white"/>
<path d="M348.445 359.189L349.401 358.281L356.355 365.271L355.364 366.227L348.445 359.189Z" fill="white"/>
<path d="M343.695 363.721L344.639 362.812L351.342 370.041L350.339 370.997L343.695 363.721Z" fill="white"/>
<path d="M338.75 368.032L339.742 367.172L346.182 374.64L345.131 375.548L338.75 368.032Z" fill="white"/>
<path d="M333.68 372.203L334.707 371.391L340.873 379.086L339.785 379.934L333.68 372.203Z" fill="white"/>
<path d="M328.461 376.179L329.524 375.426L335.415 383.336L334.292 384.136L328.461 376.179Z" fill="white"/>
<path d="M323.109 379.987L324.173 379.223L329.777 387.348L328.654 388.148L323.109 379.987Z" fill="white"/>
<path d="M317.602 383.553L318.701 382.836L324.006 391.152L322.847 391.905L317.602 383.553Z" fill="white"/>
<path d="M311.977 386.935L313.112 386.277L318.118 394.773L316.923 395.466L311.977 386.935Z" fill="white"/>
<path d="M306.25 390.121L307.421 389.523L312.105 398.198L310.874 398.831L306.25 390.121Z" fill="white"/>
<path d="M300.406 393.117L301.577 392.52L305.95 401.361L304.72 401.983L300.406 393.117Z" fill="white"/>
<path d="M294.438 395.842L295.632 395.305L299.683 404.302L298.416 404.864L294.438 395.842Z" fill="white"/>
<path d="M288.383 398.369L289.614 397.891L293.33 407.019L292.039 407.533L288.383 398.369Z" fill="white"/>
<path d="M282.258 400.723L283.512 400.305L286.894 409.565L285.58 410.007L282.258 400.723Z" fill="white"/>
<path d="M276.039 402.824L277.282 402.406L280.329 411.786L279.026 412.228L276.039 402.824Z" fill="white"/>
<path d="M269.734 404.663L271.001 404.305L273.701 413.792L272.375 414.162L269.734 404.663Z" fill="white"/>
<path d="M263.414 406.291L264.693 406.004L267.046 415.587L265.696 415.897L263.414 406.291Z" fill="white"/>
<path d="M256.977 407.724C257.407 407.652 257.837 407.568 258.255 407.461L260.262 417.127C259.82 417.235 259.366 417.319 258.912 417.39L256.977 407.724Z" fill="white"/>
<path d="M250.531 408.887L251.834 408.66L253.483 418.386L252.12 418.625L250.531 408.887Z" fill="white"/>
<path d="M244.039 409.804L245.341 409.637L246.644 419.411L245.27 419.59L244.039 409.804Z" fill="white"/>
<path d="M237.516 410.51L238.83 410.414L239.774 420.224L238.4 420.331L237.516 410.51Z" fill="white"/>
<path d="M230.977 411.022L232.291 410.914L232.888 420.76L231.502 420.867L230.977 411.022Z" fill="white"/>
<path d="M224.406 411.208L225.721 411.184L225.96 421.041L224.585 421.077L224.406 411.208Z" fill="white"/>
<path d="M217.851 411.195L219.165 411.231L219.058 421.101L217.672 421.065L217.851 411.195Z" fill="white"/>
<path d="M211.284 411.012C211.726 411.012 212.156 411.012 212.598 411.012L212.144 420.869C211.678 420.869 211.224 420.869 210.758 420.869L211.284 411.012Z" fill="white"/>
<path d="M204.751 410.52L206.066 410.615L205.253 420.449L203.867 420.341L204.751 410.52Z" fill="white"/>
<path d="M198.223 409.805L199.525 409.972L198.366 419.77L196.992 419.591L198.223 409.805Z" fill="white"/>
<path d="M191.718 408.875L193.008 409.114L191.503 418.864L190.141 418.613L191.718 408.875Z" fill="white"/>
<path d="M185.272 407.727L186.562 407.954L184.698 417.644L183.336 417.393L185.272 407.727Z" fill="white"/>
<path d="M178.868 406.285L180.147 406.584L177.936 416.203L176.586 415.892L178.868 406.285Z" fill="white"/>
<path d="M172.523 404.656L173.778 405.015L171.221 414.538L169.883 414.155L172.523 404.656Z" fill="white"/>
<path d="M166.168 402.82C166.586 402.952 166.992 403.107 167.363 403.227L164.447 412.642C164.005 412.535 163.575 412.367 163.133 412.224L166.168 402.82Z" fill="white"/>
<path d="M159.997 400.719L161.24 401.137L157.99 410.457L156.688 410.003L159.997 400.719Z" fill="white"/>
<path d="M153.883 398.375L155.102 398.853L151.517 408.041L150.227 407.54L153.883 398.375Z" fill="white"/>
<path d="M147.815 395.836L149.01 396.374L145.091 405.431L143.836 404.857L147.815 395.836Z" fill="white"/>
<path d="M141.851 393.121C142.245 393.324 142.64 393.503 143.046 393.683L138.804 402.584C138.386 402.393 137.968 402.214 137.609 401.987L141.851 393.121Z" fill="white"/>
<path d="M136.007 390.129L137.178 390.726L132.614 399.461L131.383 398.839L136.007 390.129Z" fill="white"/>
<path d="M130.298 386.926L131.433 387.571L126.558 396.15L125.352 395.457L130.298 386.926Z" fill="white"/>
<path d="M124.675 383.551L125.786 384.256L120.601 392.644L119.43 391.903L124.675 383.551Z" fill="white"/>
<path d="M119.15 379.992C119.508 380.255 119.879 380.482 120.249 380.721L114.789 388.918C114.406 388.667 114.012 388.428 113.594 388.153L119.15 379.992Z" fill="white"/>
<path d="M113.807 376.18L114.883 376.944L109.1 384.938L107.977 384.137L113.807 376.18Z" fill="white"/>
<path d="M108.598 372.195L109.637 373.008L103.58 380.786L102.492 379.926L108.598 372.195Z" fill="white"/>
<path d="M103.529 368.043L104.521 368.903L98.188 376.467L97.1484 375.559L103.529 368.043Z" fill="white"/>
<path d="M98.5694 363.727C98.8801 364.037 99.2147 364.312 99.5492 364.599L92.9417 371.935C92.5952 371.625 92.2367 371.326 91.9141 371.003L98.5694 363.727Z" fill="white"/>
<path d="M93.8323 359.211L94.7762 360.119L87.9177 367.205L86.9141 366.249L93.8323 359.211Z" fill="white"/>
<path d="M89.2431 354.512L90.1512 355.456L83.0418 362.29L82.0859 361.299L89.2431 354.512Z" fill="white"/>
<path d="M84.8024 349.66L85.6627 350.652L78.3144 357.224L77.4062 356.184L84.8024 349.66Z" fill="white"/>
<path d="M80.5294 344.688C80.7923 345.034 81.0791 345.369 81.3659 345.703L73.7905 352.012C73.4798 351.665 73.1811 351.307 72.9062 350.937L80.5294 344.688Z" fill="white"/>
<path d="M76.4752 339.516L77.2877 340.555L69.4853 346.577L68.625 345.49L76.4752 339.516Z" fill="white"/>
<path d="M72.6158 334.211L73.3806 335.286L65.3631 341.034L64.5625 339.898L72.6158 334.211Z" fill="white"/>
<path d="M68.9284 328.809L69.6333 329.908L61.4127 335.356L60.6719 334.197L68.9284 328.809Z" fill="white"/>
<path d="M65.3962 323.258C65.6113 323.64 65.8383 324.011 66.0773 324.381L57.7132 329.531C57.4504 329.148 57.2114 328.754 56.9844 328.336L65.3962 323.258Z" fill="white"/>
<path d="M62.1347 317.57L62.7919 318.705L54.2008 323.557L53.5078 322.35L62.1347 317.57Z" fill="white"/>
<path d="M59.0833 311.766L59.6807 312.937L50.9223 317.465L50.2891 316.234L59.0833 311.766Z" fill="white"/>
<path d="M56.2152 305.871L56.7528 307.066L47.8272 311.272L47.2656 310.005L56.2152 305.871Z" fill="white"/>
<path d="M53.5148 299.867C53.6581 300.285 53.8493 300.68 54.0286 301.062L44.9596 304.945C44.7803 304.527 44.5772 304.109 44.4219 303.679L53.5148 299.867Z" fill="white"/>
<path d="M51.1269 293.781L51.6048 295L42.4044 298.549L41.8906 297.258L51.1269 293.781Z" fill="white"/>
<path d="M48.9417 287.59L49.3599 288.833L40.028 292.047L39.5859 290.744L48.9417 287.59Z" fill="white"/>
<path d="M46.9477 281.344L47.3061 282.61L37.8667 285.478L37.4844 284.152L46.9477 281.344Z" fill="white"/>
<path d="M45.1448 275.031L45.5033 276.298L35.9683 278.819L35.5859 277.493L45.1448 275.031Z" fill="white"/>
<path d="M43.6696 268.641L43.9683 269.919L34.3497 272.094L34.0391 270.756L43.6696 268.641Z" fill="white"/>
<path d="M42.3898 262.199L42.6287 263.49L32.9384 265.33L32.6875 263.968L42.3898 262.199Z" fill="white"/>
<path d="M41.3167 255.734L41.484 257.037L31.7339 258.506L31.5547 257.144L41.3167 255.734Z" fill="white"/>
<path d="M40.4817 249.219L40.6489 250.521L30.8511 251.644L30.6719 250.27L40.4817 249.219Z" fill="white"/>
<path d="M39.9316 242.688L40.0272 243.99L30.1935 244.767L30.0859 243.392L39.9316 242.688Z" fill="white"/>
<path d="M39.5842 236.129L39.62 237.443L29.7624 237.861L29.7266 236.487L39.5842 236.129Z" fill="white"/>
<path d="M39.4164 229.559L39.4523 230.873L29.5827 230.945L29.5469 229.559H39.4164Z" fill="white"/>
<path d="M221.12 445.588C102.005 445.588 5.10156 348.685 5.10156 229.569C5.10156 110.454 102.005 13.5508 221.12 13.5508C340.236 13.5508 437.139 110.454 437.139 229.569C437.139 348.685 340.236 445.588 221.12 445.588ZM221.12 14.8532C102.722 14.8532 6.40396 111.171 6.40396 229.569C6.40396 347.968 102.722 444.285 221.12 444.285C339.519 444.285 435.837 347.968 435.837 229.569C435.837 111.171 339.519 14.8532 221.12 14.8532Z" fill="#B0BFFF"/>
<path d="M214.17 430.535L199.438 445.268L214.17 460V430.535Z" fill="url(#paint4_linear_824_45861)" fill-opacity="0.2"/>
<path d="M205.795 430.535L191.062 445.268L205.795 460V430.535Z" fill="url(#paint5_linear_824_45861)" fill-opacity="0.2"/>
<path d="M222.53 430.535L207.797 445.268L222.53 460V430.535Z" fill="url(#paint6_linear_824_45861)"/>
<path d="M11.16 229.572C11.16 228.469 10.8327 227.39 10.2196 226.472C9.60646 225.554 8.73497 224.839 7.71536 224.417C6.69575 223.995 5.5738 223.884 4.49139 224.099C3.40898 224.315 2.41472 224.846 1.63434 225.627C0.853967 226.407 0.322527 227.401 0.107221 228.484C-0.108084 229.566 0.00241529 230.688 0.424752 231.708C0.847089 232.727 1.56229 233.599 2.47991 234.212C3.39754 234.825 4.47638 235.152 5.57999 235.152C7.0599 235.152 8.47919 234.564 9.52565 233.518C10.5721 232.471 11.16 231.052 11.16 229.572Z" fill="#B0BFFF"/>
<path d="M431.344 229.572C431.344 228.469 431.671 227.39 432.284 226.472C432.897 225.554 433.769 224.839 434.788 224.417C435.808 223.995 436.93 223.884 438.012 224.099C439.095 224.315 440.089 224.846 440.869 225.627C441.65 226.407 442.181 227.401 442.396 228.484C442.612 229.566 442.501 230.688 442.079 231.708C441.657 232.727 440.941 233.599 440.024 234.212C439.106 234.825 438.027 235.152 436.924 235.152C435.444 235.152 434.025 234.564 432.978 233.518C431.932 232.471 431.344 231.052 431.344 229.572Z" fill="#B0BFFF"/>
<defs>
<filter id="filter0_d_824_45861" x="54.3344" y="66.0023" width="333.269" height="332.265" filterUnits="userSpaceOnUse" color-interpolation-filters="sRGB">
<feFlood flood-opacity="0" result="BackgroundImageFix"/>
<feColorMatrix in="SourceAlpha" type="matrix" values="0 0 0 0 0 0 0 0 0 0 0 0 0 0 0 0 0 0 127 0" result="hardAlpha"/>
<feOffset dy="3"/>
<feGaussianBlur stdDeviation="4.2"/>
<feComposite in2="hardAlpha" operator="out"/>
<feColorMatrix type="matrix" values="0 0 0 0 0 0 0 0 0 0 0 0 0 0 0 0 0 0 0.5 0"/>
<feBlend mode="normal" in2="BackgroundImageFix" result="effect1_dropShadow_824_45861"/>
<feBlend mode="normal" in="SourceGraphic" in2="effect1_dropShadow_824_45861" result="shape"/>
</filter>
<linearGradient id="paint0_linear_824_45861" x1="221.033" y1="71.4405" x2="221.033" y2="386.862" gradientUnits="userSpaceOnUse">
<stop stop-color="#4B65DF"/>
<stop offset="1" stop-color="#012F6E"/>
</linearGradient>
<linearGradient id="paint1_linear_824_45861" x1="237.065" y1="0.00356343" x2="237.065" y2="29.4526" gradientUnits="userSpaceOnUse">
<stop stop-color="#B0BFFF"/>
<stop offset="1" stop-color="#09457F"/>
</linearGradient>
<linearGradient id="paint2_linear_824_45861" x1="245.432" y1="0.00356343" x2="245.432" y2="29.4526" gradientUnits="userSpaceOnUse">
<stop stop-color="#B0BFFF"/>
<stop offset="1" stop-color="#09457F"/>
</linearGradient>
<linearGradient id="paint3_linear_824_45861" x1="228.697" y1="0.00356343" x2="228.697" y2="29.4526" gradientUnits="userSpaceOnUse">
<stop stop-color="#B0BFFF"/>
<stop offset="1" stop-color="#043673"/>
</linearGradient>
<linearGradient id="paint4_linear_824_45861" x1="206.807" y1="430.539" x2="206.807" y2="460" gradientUnits="userSpaceOnUse">
<stop stop-color="#B0BFFF"/>
<stop offset="1" stop-color="#09457F"/>
</linearGradient>
<linearGradient id="paint5_linear_824_45861" x1="198.432" y1="430.539" x2="198.432" y2="460" gradientUnits="userSpaceOnUse">
<stop stop-color="#B0BFFF"/>
<stop offset="1" stop-color="#09457F"/>
</linearGradient>
<linearGradient id="paint6_linear_824_45861" x1="215.166" y1="430.539" x2="215.166" y2="460" gradientUnits="userSpaceOnUse">
<stop stop-color="#B0BFFF"/>
<stop offset="1" stop-color="#043673"/>
</linearGradient>
</defs>
</svg>
