<svg width="451" height="468" viewBox="0 0 451 468" fill="none" xmlns="http://www.w3.org/2000/svg">
<g filter="url(#filter0_d_1091_2051)">
<g filter="url(#filter1_d_1091_2051)">
<path d="M383.199 229.132C383.199 316.245 312.356 386.865 224.967 386.865C137.578 386.865 66.7344 316.245 66.7344 229.132C66.7344 142.018 137.578 71.3984 224.967 71.3984C312.356 71.3984 383.199 142.018 383.199 229.132ZM121.403 229.132C121.403 286.148 167.77 332.369 224.967 332.369C282.164 332.369 328.531 286.148 328.531 229.132C328.531 172.115 282.164 125.894 224.967 125.894C167.77 125.894 121.403 172.115 121.403 229.132Z" fill="url(#paint0_linear_1091_2051)"/>
</g>
<g opacity="0.6">
<path d="M170.632 121.697L167.776 123.214C166.832 123.716 165.912 124.278 164.968 124.803L157.883 112.46C158.922 111.863 159.962 111.266 161.025 110.68L164.239 109.031L170.632 121.697Z" fill="white"/>
<path d="M180.058 117.433C178.039 118.186 176.091 119.13 174.084 120.002L168.109 107.133C170.308 106.153 172.483 105.102 174.741 104.266L180.058 117.433Z" fill="white"/>
<path d="M189.809 113.964C187.754 114.597 185.723 115.338 183.668 116.007L178.805 102.673C181.087 101.92 183.357 101.108 185.663 100.391L189.809 113.964Z" fill="white"/>
<path d="M199.829 111.38L196.675 112.109L195.097 112.479L193.544 112.921L189.828 99.2165L191.573 98.7266L193.329 98.3203L196.854 97.5078L199.829 111.38Z" fill="white"/>
<path d="M210.035 109.654L206.821 110.072L203.642 110.645L201.109 96.6774L204.67 96.0441L208.243 95.5781L210.035 109.654Z" fill="white"/>
<path d="M220.349 108.769C218.187 108.829 216.036 109.068 213.885 109.211L212.547 95.0758C214.937 94.9205 217.326 94.6576 219.716 94.5859L220.349 108.769Z" fill="white"/>
<path d="M119.061 171.133C118.511 172.053 117.997 173.009 117.519 173.977L116.05 176.857L103.312 170.584L104.961 167.369C105.499 166.294 106.061 165.231 106.682 164.203L119.061 171.133Z" fill="white"/>
<path d="M124.465 162.302C123.27 164.118 122.075 165.886 120.988 167.762L108.836 160.438C110.091 158.382 111.417 156.375 112.719 154.344L124.465 162.302Z" fill="white"/>
<path d="M130.668 153.993C129.353 155.713 127.944 157.35 126.737 159.143L115.242 150.779C116.592 148.783 118.158 146.943 119.627 145.031L130.668 153.993Z" fill="white"/>
<path d="M137.521 146.24L135.287 148.582L133.16 151.019L122.406 141.759L124.784 139.023L127.269 136.406L137.521 146.24Z" fill="white"/>
<path d="M144.974 139.064C143.314 140.438 141.808 141.992 140.195 143.461L130.266 133.317C132.022 131.668 133.707 129.948 135.559 128.406L144.974 139.064Z" fill="white"/>
<path d="M153.007 132.543C151.286 133.834 149.613 135.196 147.904 136.522L138.859 125.601C140.759 124.12 142.635 122.602 144.559 121.156L153.007 132.543Z" fill="white"/>
<path d="M161.599 126.802C159.807 127.997 157.931 129.072 156.187 130.387L148.109 118.725C150.045 117.303 152.136 116.084 154.084 114.758L161.599 126.802Z" fill="white"/>
<path d="M104.05 220.241C103.882 222.392 103.679 224.542 103.679 226.705L89.4844 226.263C89.4844 223.873 89.7233 221.483 89.9025 219.094L104.05 220.241Z" fill="white"/>
<path d="M105.355 209.972C104.913 212.087 104.722 214.238 104.435 216.376L90.3359 214.739C90.6466 212.35 90.8856 209.96 91.3516 207.57L105.355 209.972Z" fill="white"/>
<path d="M107.495 199.863L106.037 206.16L92.1172 203.28C92.6549 200.89 93.1806 198.584 93.7541 196.242L107.495 199.863Z" fill="white"/>
<path d="M110.535 189.966C109.866 192.021 109.09 194.029 108.552 196.12L94.8828 192.117C95.4922 189.787 96.3525 187.529 97.1052 185.234L110.535 189.966Z" fill="white"/>
<path d="M114.416 180.363L113.09 183.314L111.907 186.325L98.6797 181.175L100.006 177.806L101.488 174.508L114.416 180.363Z" fill="white"/>
<path d="M104.053 240.938C104.161 243.1 104.496 245.227 104.758 247.378L90.6949 249.313C90.4081 246.924 90.0377 244.534 89.9062 242.144L104.053 240.938Z" fill="white"/>
<path d="M103.586 230.602L103.753 237.078L89.5818 237.819L89.3906 230.602H103.586Z" fill="white"/>
</g>
<g opacity="0.6">
<path d="M280.758 337.977L283.637 336.507C284.593 336.006 285.513 335.444 286.445 334.906L293.507 347.225C292.467 347.811 291.428 348.42 290.364 349.006L287.15 350.654L280.758 337.977Z" fill="white"/>
<path d="M271.344 342.264C273.363 341.511 275.311 340.568 277.318 339.695L283.292 352.564C281.094 353.544 278.919 354.595 276.661 355.432L271.344 342.264Z" fill="white"/>
<path d="M261.586 345.723C263.641 345.078 265.672 344.349 267.728 343.68L272.591 357.002C270.308 357.767 268.038 358.58 265.744 359.296L261.586 345.723Z" fill="white"/>
<path d="M251.57 348.311L254.725 347.582L256.302 347.211L257.855 346.781L261.571 360.474L259.827 360.964L258.07 361.37L254.546 362.183L251.57 348.311Z" fill="white"/>
<path d="M241.367 350.039L244.581 349.62L247.76 349.047L250.293 363.015L246.732 363.648L243.159 364.114L241.367 350.039Z" fill="white"/>
<path d="M231.102 350.915C233.264 350.915 235.415 350.616 237.566 350.484L238.844 364.584C236.455 364.739 234.065 365.002 231.675 365.062L231.102 350.915Z" fill="white"/>
<path d="M332.328 288.567C332.878 287.647 333.392 286.691 333.87 285.723L335.339 282.844L348.076 289.105L346.427 292.331C345.89 293.406 345.328 294.47 344.707 295.497L332.328 288.567Z" fill="white"/>
<path d="M326.914 297.386C328.109 295.582 329.304 293.801 330.391 291.938L342.543 299.262C341.348 301.317 339.962 303.324 338.66 305.356L326.914 297.386Z" fill="white"/>
<path d="M320.711 305.697C322.025 303.976 323.435 302.339 324.642 300.547L336.137 308.911C334.786 310.906 333.221 312.746 331.751 314.658L320.711 305.697Z" fill="white"/>
<path d="M313.883 313.459L316.117 311.117L318.244 308.68L328.998 317.94L326.62 320.676L324.135 323.293L313.883 313.459Z" fill="white"/>
<path d="M306.383 320.631C308.044 319.257 309.549 317.704 311.162 316.234L321.092 326.379C319.335 328.028 317.65 329.748 315.798 331.29L306.383 320.631Z" fill="white"/>
<path d="M298.375 327.151C300.096 325.86 301.78 324.498 303.477 323.172L312.522 334.117C310.622 335.598 308.746 337.116 306.823 338.562L298.375 327.151Z" fill="white"/>
<path d="M289.797 332.96C291.601 331.765 293.477 330.689 295.21 329.375L303.287 341.037C301.351 342.459 299.26 343.677 297.253 345.004L289.797 332.96Z" fill="white"/>
<path d="M347.336 239.456C347.503 237.306 347.706 235.155 347.706 232.992L361.901 233.434C361.901 235.824 361.662 238.214 361.483 240.603L347.336 239.456Z" fill="white"/>
<path d="M346.047 249.717C346.477 247.602 346.668 245.451 346.955 243.312L361.066 244.949C360.744 247.339 360.505 249.729 360.039 252.119L346.047 249.717Z" fill="white"/>
<path d="M343.898 259.844L345.368 253.547L359.276 256.379C358.739 258.768 358.213 261.074 357.639 263.416L343.898 259.844Z" fill="white"/>
<path d="M340.852 269.739C341.521 267.684 342.309 265.677 342.835 263.586L356.456 267.589C355.847 269.919 354.987 272.177 354.246 274.471L340.852 269.739Z" fill="white"/>
<path d="M336.984 279.33L338.311 276.378L339.494 273.367L352.721 278.529L351.394 281.887L349.913 285.184L336.984 279.33Z" fill="white"/>
<path d="M347.338 218.809C347.23 216.659 346.896 214.52 346.633 212.381L360.696 210.445C360.983 212.835 361.353 215.225 361.485 217.614L347.338 218.809Z" fill="white"/>
<path d="M347.816 229.108L347.648 222.631L361.819 221.891L362.011 229.108H347.816Z" fill="white"/>
</g>
<path d="M352.389 207.373C352.251 207.376 352.116 207.329 352.009 207.241C351.902 207.154 351.829 207.031 351.804 206.895C348.105 187.235 339.869 168.709 327.751 152.792C327.666 152.666 327.632 152.513 327.656 152.362C327.68 152.212 327.76 152.077 327.881 151.984C328.001 151.891 328.152 151.847 328.304 151.862C328.455 151.877 328.595 151.949 328.695 152.063C340.932 168.126 349.25 186.824 352.987 206.668C353.015 206.825 352.981 206.986 352.891 207.118C352.802 207.25 352.665 207.341 352.509 207.373H352.389Z" fill="white"/>
<path d="M359.517 206.532C359.377 206.533 359.241 206.485 359.133 206.395C359.026 206.305 358.954 206.18 358.931 206.042C354.972 184.548 345.876 164.331 332.417 147.111C332.32 146.987 332.275 146.83 332.293 146.673C332.311 146.517 332.39 146.373 332.513 146.275C332.575 146.225 332.646 146.187 332.722 146.165C332.798 146.142 332.878 146.135 332.957 146.144C333.036 146.153 333.113 146.178 333.182 146.217C333.252 146.256 333.312 146.308 333.361 146.37C346.946 163.744 356.136 184.141 360.15 205.827C360.178 205.982 360.144 206.142 360.054 206.272C359.964 206.401 359.827 206.491 359.672 206.52L359.517 206.532Z" fill="white"/>
<path d="M346.396 210.117C346.255 210.116 346.118 210.065 346.011 209.973C345.904 209.881 345.833 209.754 345.81 209.615C342.408 190.121 334.318 171.746 322.236 156.073C322.15 155.947 322.116 155.794 322.14 155.644C322.164 155.493 322.245 155.358 322.365 155.265C322.485 155.172 322.637 155.129 322.788 155.143C322.939 155.158 323.08 155.23 323.18 155.344C335.391 171.167 343.568 189.723 347.005 209.412C347.033 209.567 346.999 209.727 346.909 209.857C346.82 209.987 346.682 210.076 346.527 210.105L346.396 210.117Z" fill="white"/>
<path d="M308.655 132.477C308.514 132.479 308.377 132.428 308.273 132.334C285.776 113.419 257.483 102.772 228.097 102.164C227.939 102.164 227.787 102.101 227.675 101.989C227.563 101.877 227.5 101.725 227.5 101.566C227.5 101.408 227.563 101.256 227.675 101.144C227.787 101.032 227.939 100.969 228.097 100.969C257.756 101.585 286.31 112.333 309.013 131.426C309.106 131.505 309.172 131.61 309.203 131.728C309.234 131.845 309.228 131.97 309.187 132.084C309.145 132.198 309.07 132.297 308.97 132.367C308.871 132.438 308.753 132.476 308.631 132.477H308.655Z" fill="white"/>
<path d="M315.028 128.511C314.883 128.512 314.743 128.461 314.633 128.367C290.861 107.66 260.621 95.8731 229.105 95.0308C228.947 95.0308 228.795 94.9679 228.683 94.8558C228.571 94.7438 228.508 94.5918 228.508 94.4334C228.508 94.2749 228.571 94.123 228.683 94.0109C228.795 93.8989 228.947 93.8359 229.105 93.8359C260.903 94.6844 291.414 106.577 315.398 127.471C315.458 127.522 315.507 127.583 315.542 127.653C315.578 127.723 315.599 127.799 315.604 127.877C315.61 127.955 315.6 128.033 315.575 128.107C315.549 128.181 315.51 128.249 315.458 128.308C315.405 128.37 315.339 128.421 315.265 128.456C315.191 128.491 315.11 128.51 315.028 128.511Z" fill="white"/>
<path d="M305.355 138.036C305.211 138.037 305.071 137.987 304.961 137.893C283.472 119.491 256.262 109.119 227.976 108.547C227.898 108.545 227.82 108.528 227.748 108.497C227.677 108.465 227.612 108.42 227.557 108.364C227.503 108.307 227.46 108.24 227.432 108.167C227.403 108.094 227.389 108.016 227.391 107.938C227.391 107.859 227.407 107.78 227.437 107.708C227.468 107.635 227.514 107.57 227.571 107.515C227.628 107.46 227.695 107.418 227.769 107.39C227.843 107.362 227.921 107.349 228 107.352C256.562 107.933 284.037 118.406 305.738 136.985C305.858 137.089 305.933 137.236 305.946 137.394C305.96 137.553 305.911 137.71 305.809 137.833C305.752 137.896 305.682 137.947 305.604 137.982C305.525 138.017 305.441 138.035 305.355 138.036Z" fill="white"/>
<path d="M318.924 157.316C315.852 157.316 312.848 156.405 310.294 154.699C307.74 152.992 305.749 150.566 304.573 147.727C303.397 144.889 303.09 141.766 303.689 138.753C304.288 135.74 305.768 132.972 307.94 130.8C310.113 128.627 312.88 127.148 315.893 126.548C318.907 125.949 322.03 126.257 324.868 127.432C327.706 128.608 330.132 130.599 331.839 133.153C333.546 135.708 334.457 138.711 334.457 141.783C334.457 145.903 332.82 149.854 329.907 152.767C326.994 155.68 323.043 157.316 318.924 157.316ZM318.924 128.64C316.324 128.64 313.783 129.411 311.622 130.855C309.46 132.299 307.776 134.352 306.781 136.753C305.786 139.155 305.526 141.798 306.033 144.347C306.54 146.897 307.792 149.239 309.63 151.077C311.468 152.915 313.81 154.167 316.36 154.674C318.909 155.181 321.552 154.921 323.954 153.926C326.355 152.931 328.408 151.247 329.852 149.085C331.296 146.924 332.067 144.383 332.067 141.783C332.067 138.297 330.683 134.954 328.218 132.489C325.753 130.024 322.41 128.64 318.924 128.64Z" fill="white"/>
<path d="M318.931 149.346C317.435 149.346 315.972 148.902 314.729 148.071C313.485 147.24 312.515 146.059 311.943 144.677C311.37 143.295 311.221 141.774 311.513 140.307C311.804 138.839 312.525 137.492 313.582 136.434C314.64 135.376 315.988 134.656 317.455 134.364C318.922 134.072 320.443 134.222 321.825 134.794C323.207 135.367 324.388 136.336 325.219 137.58C326.051 138.824 326.494 140.286 326.494 141.782C326.491 143.787 325.693 145.709 324.275 147.127C322.858 148.545 320.936 149.343 318.931 149.346ZM318.931 136.608C317.907 136.608 316.907 136.912 316.056 137.48C315.205 138.049 314.542 138.857 314.151 139.802C313.759 140.748 313.657 141.788 313.856 142.792C314.056 143.795 314.549 144.717 315.272 145.441C315.996 146.164 316.918 146.657 317.921 146.857C318.925 147.056 319.965 146.954 320.911 146.562C321.856 146.171 322.664 145.507 323.232 144.657C323.801 143.806 324.104 142.805 324.104 141.782C324.104 141.103 323.971 140.43 323.711 139.802C323.451 139.175 323.069 138.604 322.589 138.124C322.109 137.643 321.538 137.262 320.911 137.002C320.283 136.742 319.61 136.608 318.931 136.608Z" fill="white"/>
<path d="M126.639 314.119C126.552 314.119 126.467 314.1 126.388 314.063C126.31 314.026 126.24 313.971 126.185 313.904C111.727 296.688 102 276.003 97.9627 253.886C97.9342 253.728 97.9698 253.565 98.0617 253.432C98.1536 253.3 98.2942 253.21 98.4526 253.181C98.6111 253.153 98.7744 253.189 98.9066 253.28C99.0388 253.372 99.1291 253.513 99.1576 253.671C103.167 275.583 112.811 296.073 127.141 313.128C127.193 313.188 127.232 313.257 127.256 313.333C127.281 313.408 127.29 313.488 127.283 313.567C127.276 313.646 127.254 313.723 127.217 313.793C127.181 313.863 127.13 313.925 127.07 313.976C127.012 314.028 126.944 314.068 126.87 314.093C126.796 314.118 126.717 314.127 126.639 314.119Z" fill="white"/>
<path d="M225.533 360.236C197.116 360.327 169.47 350.994 146.923 333.698C146.798 333.599 146.716 333.456 146.694 333.298C146.671 333.14 146.711 332.979 146.803 332.85C146.902 332.724 147.047 332.642 147.206 332.622C147.364 332.602 147.525 332.645 147.652 332.742C169.989 349.88 197.379 359.125 225.533 359.029C225.691 359.029 225.843 359.092 225.955 359.204C226.067 359.316 226.13 359.468 226.13 359.626C226.132 359.706 226.118 359.785 226.088 359.859C226.059 359.933 226.015 360 225.96 360.057C225.904 360.113 225.837 360.158 225.764 360.189C225.691 360.22 225.612 360.236 225.533 360.236Z" fill="white"/>
<path d="M137.01 339.238C133.938 339.238 130.934 338.327 128.38 336.62C125.826 334.914 123.835 332.488 122.659 329.649C121.483 326.811 121.176 323.688 121.775 320.675C122.374 317.662 123.854 314.894 126.026 312.721C128.199 310.549 130.966 309.07 133.979 308.47C136.993 307.871 140.116 308.179 142.954 309.354C145.792 310.53 148.218 312.521 149.925 315.075C151.632 317.63 152.543 320.633 152.543 323.705C152.543 327.825 150.906 331.776 147.993 334.689C145.08 337.602 141.129 339.238 137.01 339.238ZM137.01 310.562C134.41 310.562 131.869 311.332 129.708 312.777C127.546 314.221 125.862 316.274 124.867 318.675C123.872 321.077 123.612 323.72 124.119 326.269C124.626 328.819 125.878 331.161 127.716 332.999C129.554 334.837 131.896 336.089 134.446 336.596C136.995 337.103 139.638 336.843 142.04 335.848C144.441 334.853 146.494 333.169 147.938 331.007C149.382 328.846 150.153 326.305 150.153 323.705C150.153 320.219 148.768 316.876 146.304 314.411C143.839 311.946 140.496 310.562 137.01 310.562Z" fill="white"/>
<path d="M123.141 321.035C123.057 321.037 122.973 321.02 122.896 320.985C122.82 320.95 122.752 320.898 122.699 320.832C106.33 302.221 95.3423 279.501 90.9157 255.115C90.8878 254.96 90.9223 254.8 91.0119 254.67C91.1014 254.54 91.2386 254.451 91.3936 254.422C91.5485 254.397 91.7069 254.433 91.8359 254.522C91.965 254.611 92.0548 254.746 92.0866 254.9C96.4694 279.071 107.354 301.592 123.571 320.043C123.681 320.157 123.743 320.309 123.743 320.468C123.743 320.626 123.681 320.778 123.571 320.892C123.452 320.994 123.298 321.046 123.141 321.035Z" fill="white"/>
<path d="M225.53 367.402C194.747 367.52 164.843 357.139 140.755 337.972C140.63 337.875 140.548 337.733 140.528 337.576C140.508 337.42 140.551 337.261 140.647 337.136C140.756 337.021 140.906 336.953 141.064 336.946C141.223 336.939 141.377 336.994 141.496 337.1C165.377 356.093 195.017 366.381 225.53 366.267C225.689 366.267 225.841 366.329 225.953 366.442C226.065 366.554 226.128 366.706 226.128 366.864C226.113 367.012 226.043 367.149 225.933 367.248C225.822 367.348 225.679 367.402 225.53 367.402Z" fill="white"/>
<path d="M132.109 310.697C132.024 310.698 131.939 310.68 131.86 310.645C131.782 310.61 131.712 310.558 131.655 310.494C117.541 293.968 108.058 273.997 104.174 252.615C104.146 252.46 104.18 252.3 104.27 252.17C104.359 252.04 104.496 251.951 104.651 251.922C104.806 251.897 104.965 251.933 105.094 252.022C105.223 252.111 105.313 252.246 105.344 252.4C109.178 273.581 118.553 293.37 132.516 309.753C132.588 309.84 132.634 309.945 132.649 310.058C132.664 310.17 132.646 310.284 132.599 310.386C132.551 310.489 132.475 310.576 132.38 310.637C132.285 310.699 132.175 310.732 132.062 310.733L132.109 310.697Z" fill="white"/>
<path d="M225.518 353.828C198.48 353.91 172.178 345.023 150.732 328.556C150.605 328.459 150.521 328.315 150.498 328.157C150.476 327.998 150.517 327.837 150.613 327.708C150.71 327.583 150.852 327.502 151.009 327.481C151.165 327.461 151.324 327.504 151.449 327.6C172.689 343.918 198.746 352.723 225.53 352.633C225.689 352.633 225.841 352.696 225.953 352.808C226.065 352.92 226.128 353.072 226.128 353.23C226.128 353.389 226.065 353.541 225.953 353.653C225.841 353.765 225.689 353.828 225.53 353.828H225.518Z" fill="white"/>
<path d="M136.505 330.955C135.009 330.953 133.548 330.507 132.306 329.675C131.064 328.842 130.096 327.66 129.525 326.278C128.955 324.895 128.807 323.375 129.1 321.909C129.393 320.442 130.114 319.096 131.173 318.039C132.231 316.983 133.579 316.263 135.045 315.973C136.512 315.682 138.032 315.832 139.414 316.405C140.795 316.978 141.976 317.947 142.806 319.191C143.637 320.434 144.08 321.896 144.08 323.392C144.077 325.399 143.277 327.322 141.857 328.74C140.437 330.159 138.512 330.955 136.505 330.955ZM136.505 318.218C135.482 318.22 134.483 318.526 133.634 319.096C132.784 319.666 132.123 320.474 131.733 321.42C131.343 322.366 131.243 323.405 131.444 324.408C131.645 325.411 132.138 326.332 132.862 327.054C133.586 327.777 134.508 328.268 135.512 328.467C136.515 328.665 137.555 328.562 138.499 328.17C139.444 327.778 140.251 327.115 140.819 326.265C141.387 325.414 141.69 324.414 141.69 323.392C141.69 322.711 141.556 322.037 141.295 321.409C141.035 320.78 140.652 320.21 140.171 319.729C139.689 319.248 139.117 318.868 138.488 318.608C137.859 318.349 137.185 318.216 136.505 318.218Z" fill="white"/>
<path d="M233.695 0L248.428 14.7326L233.695 29.4533V0Z" fill="url(#paint1_linear_1091_2051)" fill-opacity="0.2"/>
<path d="M242.062 0L256.795 14.7326L242.062 29.4533V0Z" fill="url(#paint2_linear_1091_2051)" fill-opacity="0.2"/>
<path d="M225.328 0L240.061 14.7326L225.328 29.4533V0Z" fill="url(#paint3_linear_1091_2051)"/>
<path d="M43.5731 223.011L43.5373 224.325L33.6797 224.038L33.7155 222.664L43.5731 223.011Z" fill="white"/>
<path d="M43.9412 216.455L43.8456 217.757L34 217.124L34.0956 215.75L43.9412 216.455Z" fill="white"/>
<path d="M44.4808 209.919C44.4808 210.349 44.3613 210.791 44.3374 211.221L34.5156 210.241C34.5156 209.775 34.6232 209.321 34.6829 208.867L44.4808 209.919Z" fill="white"/>
<path d="M45.3199 203.394L45.1526 204.697L35.3906 203.358L35.5579 201.984L45.3199 203.394Z" fill="white"/>
<path d="M46.3944 196.936L46.1673 198.227L36.4531 196.53L36.6921 195.18L46.3944 196.936Z" fill="white"/>
<path d="M47.6756 190.494L47.3769 191.772L37.7344 189.729L38.0451 188.391L47.6756 190.494Z" fill="white"/>
<path d="M49.1508 184.11L48.8521 185.388L39.2812 182.999L39.5919 181.648L49.1508 184.11Z" fill="white"/>
<path d="M50.9431 177.784L50.5846 179.051L41.1094 176.315L41.4798 174.977L50.9431 177.784Z" fill="white"/>
<path d="M52.9307 171.549L52.5005 172.791L43.1328 169.709L43.5749 168.406L52.9307 171.549Z" fill="white"/>
<path d="M55.1209 165.372L54.631 166.591L45.3828 163.173L45.8846 161.883L55.1209 165.372Z" fill="white"/>
<path d="M57.5322 159.261L57.0543 160.48L47.9375 156.728L48.4393 155.438L57.5322 159.261Z" fill="white"/>
<path d="M60.2105 153.271L59.6609 154.466L50.6875 150.38L51.261 149.125L60.2105 153.271Z" fill="white"/>
<path d="M63.0837 147.367L62.4863 148.538L53.6562 144.129L54.2895 142.898L63.0837 147.367Z" fill="white"/>
<path d="M66.1402 141.553L65.4831 142.7L56.8203 137.968L57.5133 136.773L66.1402 141.553Z" fill="white"/>
<path d="M69.4141 135.887L68.757 137.034L60.2734 131.992L60.9665 130.797L69.4141 135.887Z" fill="white"/>
<path d="M72.9233 130.346L72.2184 131.445L63.9141 126.116L64.6668 124.945L72.9233 130.346Z" fill="white"/>
<path d="M76.6237 124.914L75.859 125.978L67.7578 120.35L68.5703 119.227L76.6237 124.914Z" fill="white"/>
<path d="M80.4876 119.615L79.6751 120.642L71.7891 114.728L72.6374 113.641L80.4876 119.615Z" fill="white"/>
<path d="M84.5382 114.46L83.7257 115.488L76.0547 109.298L76.9031 108.211L84.5382 114.46Z" fill="white"/>
<path d="M88.8043 109.477L87.956 110.469L80.5 104.005L81.4081 102.953L88.8043 109.477Z" fill="white"/>
<path d="M93.2381 104.634L92.33 105.59L85.125 98.8511L86.0809 97.8594L93.2381 104.634Z" fill="white"/>
<path d="M97.8318 99.932L96.876 100.84L89.9219 93.8502L90.9136 92.9062L97.8318 99.932Z" fill="white"/>
<path d="M102.577 95.4173L101.633 96.3254L94.9297 89.0965L95.9214 88.1406L102.577 95.4173Z" fill="white"/>
<path d="M107.518 91.0938L106.526 91.9541L100.086 84.4862L101.137 83.5781L107.518 91.0938Z" fill="white"/>
<path d="M112.596 86.9536L111.568 87.7542L105.391 80.0593L106.49 79.2109L112.596 86.9536Z" fill="white"/>
<path d="M117.806 82.9578L116.742 83.7105L110.852 75.8006L111.975 75L117.806 82.9578Z" fill="white"/>
<path d="M123.152 79.1489L122.076 79.9136L116.484 71.8006L117.608 71L123.152 79.1489Z" fill="white"/>
<path d="M128.67 75.5864L127.571 76.3033L122.266 67.9871L123.425 67.2344L128.67 75.5864Z" fill="white"/>
<path d="M134.298 72.2032L133.163 72.8603L128.156 64.3649L129.351 63.6719L134.298 72.2032Z" fill="white"/>
<path d="M140.019 69.0074L138.848 69.6048L134.164 60.9301L135.395 60.2969L140.019 69.0074Z" fill="white"/>
<path d="M145.857 66.0143L144.686 66.6237L140.312 57.7698L141.543 57.1484L145.857 66.0143Z" fill="white"/>
<path d="M151.816 63.2946L150.621 63.8323L146.57 54.847L147.837 54.2734L151.816 63.2946Z" fill="white"/>
<path d="M157.876 60.7583L156.646 61.2363L152.93 52.1075L154.22 51.5938L157.876 60.7583Z" fill="white"/>
<path d="M163.999 58.4247L162.756 58.8429L159.375 49.5827L160.689 49.1406L163.999 58.4247Z" fill="white"/>
<path d="M170.215 56.302L168.984 56.7202L165.938 47.3405L167.24 46.8984L170.215 56.302Z" fill="white"/>
<path d="M176.514 54.4876L175.247 54.8461L172.547 45.3589L173.873 44.9766L176.514 54.4876Z" fill="white"/>
<path d="M182.867 52.8447L181.588 53.1315L179.234 43.5607L180.585 43.25L182.867 52.8447Z" fill="white"/>
<path d="M189.286 51.4012C188.856 51.4729 188.426 51.5566 188.008 51.6641L185.977 41.9738C186.419 41.8663 186.873 41.7826 187.327 41.7109L189.286 51.4012Z" fill="white"/>
<path d="M195.721 50.2459L194.43 50.4729L192.781 40.7468L194.143 40.5078L195.721 50.2459Z" fill="white"/>
<path d="M202.222 49.3328L200.92 49.5L199.617 39.7261L200.991 39.5469L202.222 49.3328Z" fill="white"/>
<path d="M208.743 48.6186L207.428 48.7261L206.484 38.9044L207.858 38.7969L208.743 48.6186Z" fill="white"/>
<path d="M215.295 48.131L213.98 48.2266L213.383 38.381L214.769 38.2734L215.295 48.131Z" fill="white"/>
<path d="M221.854 47.932L220.54 47.9679L220.289 38.0983L221.675 38.0625L221.854 47.932Z" fill="white"/>
<path d="M228.416 47.9403L227.102 47.9045L227.209 38.0469L228.595 38.0708L228.416 47.9403Z" fill="white"/>
<path d="M234.978 48.1232C234.536 48.1232 234.106 48.1232 233.664 48.1232L234.118 38.2656C234.584 38.2656 235.038 38.2656 235.504 38.3254L234.978 48.1232Z" fill="white"/>
<path d="M241.517 48.609L240.203 48.5134L241.016 38.6797L242.402 38.7872L241.517 48.609Z" fill="white"/>
<path d="M248.052 49.336L246.75 49.1687L247.909 39.3828L249.283 39.5501L248.052 49.336Z" fill="white"/>
<path d="M254.533 50.2505L253.242 50.0115L254.76 40.2734L256.122 40.5124L254.533 50.2505Z" fill="white"/>
<path d="M260.994 51.3939L259.703 51.1669L261.567 41.4766L262.929 41.7275L260.994 51.3939Z" fill="white"/>
<path d="M267.411 52.8507L266.133 52.552L268.343 42.9453L269.694 43.256L267.411 52.8507Z" fill="white"/>
<path d="M273.747 54.4872L272.492 54.1168L275.049 44.5938L276.387 44.9761L273.747 54.4872Z" fill="white"/>
<path d="M280.085 56.3139C279.667 56.1825 279.261 56.0272 278.891 55.9077L281.806 46.4922C282.248 46.5997 282.678 46.767 283.12 46.9104L280.085 56.3139Z" fill="white"/>
<path d="M286.258 58.4136L285.016 57.9955L288.278 48.6875L289.58 49.1296L286.258 58.4136Z" fill="white"/>
<path d="M292.391 60.7602L291.172 60.2822L294.756 51.0938L296.047 51.5956L292.391 60.7602Z" fill="white"/>
<path d="M298.445 63.29L297.25 62.7523L301.157 53.6953L302.424 54.2688L298.445 63.29Z" fill="white"/>
<path d="M304.406 66.0102C304.011 65.807 303.617 65.6278 303.211 65.4486L307.453 56.5469C307.871 56.7381 308.289 56.9173 308.648 57.1443L304.406 66.0102Z" fill="white"/>
<path d="M310.241 69.0157L309.07 68.4182L313.635 59.6719L314.865 60.3051L310.241 69.0157Z" fill="white"/>
<path d="M315.971 72.2165L314.836 71.5713L319.711 62.9922L320.918 63.6852L315.971 72.2165Z" fill="white"/>
<path d="M321.603 75.5851L320.492 74.8801L325.678 66.4922L326.849 67.233L321.603 75.5851Z" fill="white"/>
<path d="M327.107 79.1522C326.749 78.8893 326.378 78.6623 326.008 78.4233L331.492 70.2266C331.875 70.4775 332.269 70.7165 332.687 70.9913L327.107 79.1522Z" fill="white"/>
<path d="M332.458 82.9614L331.383 82.1967L337.154 74.2031L338.289 75.0037L332.458 82.9614Z" fill="white"/>
<path d="M337.68 86.9467L336.641 86.1342L342.699 78.3438L343.786 79.204L337.68 86.9467Z" fill="white"/>
<path d="M342.749 91.0915L341.758 90.2312L348.091 82.6797L349.13 83.5758L342.749 91.0915Z" fill="white"/>
<path d="M347.683 95.404C347.372 95.0933 347.038 94.8185 346.703 94.5317L353.311 87.1953C353.657 87.506 354.016 87.8047 354.338 88.1273L347.683 95.404Z" fill="white"/>
<path d="M352.44 99.9233L351.484 99.0271L358.355 91.9297L359.358 92.8975L352.44 99.9233Z" fill="white"/>
<path d="M357.033 104.63L356.125 103.686L363.234 96.8516L364.19 97.8552L357.033 104.63Z" fill="white"/>
<path d="M361.462 109.462L360.602 108.47L367.95 101.898L368.858 102.938L361.462 109.462Z" fill="white"/>
<path d="M365.727 114.457C365.464 114.111 365.177 113.776 364.891 113.442L372.466 107.133C372.777 107.479 373.075 107.838 373.35 108.208L365.727 114.457Z" fill="white"/>
<path d="M369.789 119.616L368.977 118.589L376.779 112.555L377.627 113.642L369.789 119.616Z" fill="white"/>
<path d="M373.663 124.924L372.898 123.849L380.916 118.102L381.717 119.237L373.663 124.924Z" fill="white"/>
<path d="M377.353 130.349L376.648 129.238L384.869 123.789L385.61 124.948L377.353 130.349Z" fill="white"/>
<path d="M380.853 135.882C380.638 135.5 380.411 135.13 380.172 134.759L388.536 129.609C388.799 129.992 389.038 130.386 389.265 130.804L380.853 135.882Z" fill="white"/>
<path d="M384.134 141.576L383.477 140.441L392.068 135.602L392.761 136.796L384.134 141.576Z" fill="white"/>
<path d="M387.199 147.371L386.602 146.2L395.36 141.672L395.993 142.903L387.199 147.371Z" fill="white"/>
<path d="M390.046 153.272L389.508 152.077L398.433 147.859L398.995 149.126L390.046 153.272Z" fill="white"/>
<path d="M392.733 159.266C392.589 158.847 392.398 158.453 392.219 158.071L401.288 154.188C401.467 154.606 401.67 155.024 401.825 155.454L392.733 159.266Z" fill="white"/>
<path d="M395.15 165.358L394.672 164.139L403.872 160.578L404.374 161.869L395.15 165.358Z" fill="white"/>
<path d="M397.332 171.551L396.914 170.308L406.246 167.094L406.688 168.408L397.332 171.551Z" fill="white"/>
<path d="M399.327 177.79L398.969 176.536L408.408 173.656L408.779 174.983L399.327 177.79Z" fill="white"/>
<path d="M401.116 184.108L400.758 182.853L410.293 180.32L410.675 181.647L401.116 184.108Z" fill="white"/>
<path d="M402.603 190.492L402.305 189.214L411.923 187.039L412.234 188.389L402.603 190.492Z" fill="white"/>
<path d="M403.872 196.935L403.633 195.645L413.323 193.805L413.574 195.179L403.872 196.935Z" fill="white"/>
<path d="M404.949 203.389L404.781 202.087L414.531 200.617L414.711 201.979L404.949 203.389Z" fill="white"/>
<path d="M405.792 209.91L405.625 208.608L415.423 207.484L415.602 208.858L405.792 209.91Z" fill="white"/>
<path d="M406.33 216.466L406.234 215.152L416.068 214.375L416.164 215.761L406.33 216.466Z" fill="white"/>
<path d="M406.7 223.006L406.664 221.692L416.522 221.273L416.557 222.659L406.7 223.006Z" fill="white"/>
<path d="M406.856 229.558L406.82 228.244L416.69 228.172L416.714 229.558H406.856Z" fill="white"/>
<path d="M406.688 236.127L406.723 234.812L416.581 235.099L416.545 236.485L406.688 236.127Z" fill="white"/>
<path d="M406.328 242.682L406.424 241.367L416.269 242L416.162 243.387L406.328 242.682Z" fill="white"/>
<path d="M405.773 249.232C405.773 248.802 405.893 248.36 405.917 247.93L415.739 248.909C415.739 249.375 415.631 249.83 415.571 250.284L405.773 249.232Z" fill="white"/>
<path d="M404.953 255.732L405.108 254.43L414.882 255.768L414.715 257.142L404.953 255.732Z" fill="white"/>
<path d="M403.875 262.197L404.102 260.906L413.816 262.603L413.577 263.965L403.875 262.197Z" fill="white"/>
<path d="M402.594 268.646L402.881 267.367L412.535 269.41L412.224 270.761L402.594 268.646Z" fill="white"/>
<path d="M401.117 275.029L401.416 273.75L410.987 276.14L410.676 277.49L401.117 275.029Z" fill="white"/>
<path d="M399.328 281.337L399.687 280.07L409.162 282.818L408.779 284.145L399.328 281.337Z" fill="white"/>
<path d="M397.32 287.586L397.738 286.344L407.118 289.426L406.676 290.741L397.32 287.586Z" fill="white"/>
<path d="M395.148 293.785L395.638 292.555L404.887 295.984L404.373 297.262L395.148 293.785Z" fill="white"/>
<path d="M392.742 299.867L393.22 298.648L402.337 302.4L401.835 303.691L392.742 299.867Z" fill="white"/>
<path d="M390.055 305.863L390.592 304.656L399.578 308.743L399.004 309.997L390.055 305.863Z" fill="white"/>
<path d="M387.188 311.765L387.785 310.594L396.615 315.003L395.982 316.233L387.188 311.765Z" fill="white"/>
<path d="M384.133 317.573L384.79 316.438L393.441 321.157L392.76 322.352L384.133 317.573Z" fill="white"/>
<path d="M380.844 323.268L381.501 322.133L389.984 327.163L389.291 328.358L380.844 323.268Z" fill="white"/>
<path d="M377.336 328.807L378.041 327.695L386.345 333.024L385.592 334.195L377.336 328.807Z" fill="white"/>
<path d="M373.656 334.212L374.421 333.148L382.522 338.776L381.71 339.899L373.656 334.212Z" fill="white"/>
<path d="M369.789 339.52L370.602 338.492L378.488 344.407L377.627 345.494L369.789 339.52Z" fill="white"/>
<path d="M365.727 344.684L366.539 343.656L374.21 349.858L373.362 350.933L365.727 344.684Z" fill="white"/>
<path d="M361.469 349.664L362.317 348.672L369.773 355.136L368.865 356.188L361.469 349.664Z" fill="white"/>
<path d="M357.031 354.495L357.927 353.539L365.144 360.278L364.188 361.282L357.031 354.495Z" fill="white"/>
<path d="M352.445 359.189L353.401 358.281L360.355 365.271L359.364 366.227L352.445 359.189Z" fill="white"/>
<path d="M347.695 363.721L348.639 362.812L355.342 370.041L354.339 370.997L347.695 363.721Z" fill="white"/>
<path d="M342.75 368.032L343.742 367.172L350.182 374.64L349.131 375.548L342.75 368.032Z" fill="white"/>
<path d="M337.68 372.203L338.707 371.391L344.873 379.086L343.785 379.934L337.68 372.203Z" fill="white"/>
<path d="M332.461 376.182L333.524 375.43L339.415 383.34L338.292 384.14L332.461 376.182Z" fill="white"/>
<path d="M327.109 379.983L328.173 379.219L333.777 387.344L332.654 388.144L327.109 379.983Z" fill="white"/>
<path d="M321.602 383.553L322.701 382.836L328.006 391.152L326.847 391.905L321.602 383.553Z" fill="white"/>
<path d="M315.977 386.931L317.112 386.273L322.118 394.769L320.923 395.462L315.977 386.931Z" fill="white"/>
<path d="M310.25 390.121L311.421 389.523L316.105 398.198L314.874 398.831L310.25 390.121Z" fill="white"/>
<path d="M304.406 393.121L305.577 392.523L309.95 401.365L308.72 401.987L304.406 393.121Z" fill="white"/>
<path d="M298.438 395.842L299.632 395.305L303.683 404.302L302.416 404.864L298.438 395.842Z" fill="white"/>
<path d="M292.383 398.369L293.614 397.891L297.33 407.019L296.039 407.533L292.383 398.369Z" fill="white"/>
<path d="M286.258 400.723L287.512 400.305L290.894 409.565L289.58 410.007L286.258 400.723Z" fill="white"/>
<path d="M280.039 402.824L281.282 402.406L284.329 411.786L283.026 412.228L280.039 402.824Z" fill="white"/>
<path d="M273.734 404.663L275.001 404.305L277.701 413.792L276.375 414.162L273.734 404.663Z" fill="white"/>
<path d="M267.414 406.287L268.693 406L271.046 415.583L269.696 415.893L267.414 406.287Z" fill="white"/>
<path d="M260.977 407.724C261.407 407.652 261.837 407.568 262.255 407.461L264.262 417.127C263.82 417.235 263.366 417.319 262.912 417.39L260.977 407.724Z" fill="white"/>
<path d="M254.531 408.883L255.834 408.656L257.483 418.382L256.12 418.621L254.531 408.883Z" fill="white"/>
<path d="M248.039 409.8L249.341 409.633L250.644 419.407L249.27 419.586L248.039 409.8Z" fill="white"/>
<path d="M241.516 410.51L242.83 410.414L243.774 420.224L242.4 420.331L241.516 410.51Z" fill="white"/>
<path d="M234.977 411.022L236.291 410.914L236.888 420.76L235.502 420.867L234.977 411.022Z" fill="white"/>
<path d="M228.406 411.204L229.721 411.18L229.96 421.037L228.585 421.073L228.406 411.204Z" fill="white"/>
<path d="M221.851 411.195L223.165 411.231L223.058 421.101L221.672 421.065L221.851 411.195Z" fill="white"/>
<path d="M215.284 411.016C215.726 411.016 216.156 411.016 216.598 411.016L216.144 420.873C215.678 420.873 215.224 420.873 214.758 420.873L215.284 411.016Z" fill="white"/>
<path d="M208.751 410.516L210.066 410.611L209.253 420.445L207.867 420.337L208.751 410.516Z" fill="white"/>
<path d="M202.223 409.805L203.525 409.972L202.366 419.77L200.992 419.591L202.223 409.805Z" fill="white"/>
<path d="M195.718 408.875L197.008 409.114L195.503 418.864L194.141 418.613L195.718 408.875Z" fill="white"/>
<path d="M189.272 407.727L190.562 407.954L188.698 417.644L187.336 417.393L189.272 407.727Z" fill="white"/>
<path d="M182.868 406.289L184.147 406.588L181.936 416.206L180.586 415.896L182.868 406.289Z" fill="white"/>
<path d="M176.523 404.656L177.778 405.015L175.221 414.538L173.883 414.155L176.523 404.656Z" fill="white"/>
<path d="M170.168 402.82C170.586 402.952 170.992 403.107 171.363 403.227L168.447 412.642C168.005 412.535 167.575 412.367 167.133 412.224L170.168 402.82Z" fill="white"/>
<path d="M163.997 400.719L165.24 401.137L161.99 410.457L160.688 410.003L163.997 400.719Z" fill="white"/>
<path d="M157.883 398.375L159.102 398.853L155.517 408.041L154.227 407.54L157.883 398.375Z" fill="white"/>
<path d="M151.815 395.836L153.01 396.374L149.091 405.431L147.836 404.857L151.815 395.836Z" fill="white"/>
<path d="M145.851 393.117C146.245 393.32 146.64 393.5 147.046 393.679L142.804 402.58C142.386 402.389 141.968 402.21 141.609 401.983L145.851 393.117Z" fill="white"/>
<path d="M140.007 390.133L141.178 390.73L136.614 399.465L135.383 398.843L140.007 390.133Z" fill="white"/>
<path d="M134.298 386.93L135.433 387.575L130.558 396.154L129.352 395.461L134.298 386.93Z" fill="white"/>
<path d="M128.675 383.547L129.786 384.252L124.601 392.64L123.43 391.899L128.675 383.547Z" fill="white"/>
<path d="M123.15 379.992C123.508 380.255 123.879 380.482 124.249 380.721L118.789 388.918C118.406 388.667 118.012 388.428 117.594 388.153L123.15 379.992Z" fill="white"/>
<path d="M117.807 376.18L118.883 376.944L113.1 384.938L111.977 384.137L117.807 376.18Z" fill="white"/>
<path d="M112.598 372.195L113.637 373.008L107.58 380.786L106.492 379.926L112.598 372.195Z" fill="white"/>
<path d="M107.529 368.047L108.521 368.907L102.188 376.471L101.148 375.563L107.529 368.047Z" fill="white"/>
<path d="M102.569 363.727C102.88 364.037 103.215 364.312 103.549 364.599L96.9417 371.935C96.5952 371.625 96.2367 371.326 95.9141 371.003L102.569 363.727Z" fill="white"/>
<path d="M97.8323 359.211L98.7762 360.119L91.9177 367.205L90.9141 366.249L97.8323 359.211Z" fill="white"/>
<path d="M93.2431 354.516L94.1512 355.46L87.0418 362.294L86.0859 361.302L93.2431 354.516Z" fill="white"/>
<path d="M88.8024 349.656L89.6627 350.648L82.3144 357.22L81.4062 356.18L88.8024 349.656Z" fill="white"/>
<path d="M84.5294 344.688C84.7923 345.034 85.0791 345.369 85.3659 345.703L77.7905 352.012C77.4798 351.665 77.1811 351.307 76.9062 350.937L84.5294 344.688Z" fill="white"/>
<path d="M80.4752 339.516L81.2877 340.555L73.4853 346.577L72.625 345.49L80.4752 339.516Z" fill="white"/>
<path d="M76.6158 334.211L77.3806 335.286L69.3631 341.034L68.5625 339.898L76.6158 334.211Z" fill="white"/>
<path d="M72.9284 328.805L73.6333 329.904L65.4127 335.352L64.6719 334.193L72.9284 328.805Z" fill="white"/>
<path d="M69.3962 323.258C69.6113 323.64 69.8383 324.011 70.0773 324.381L61.7132 329.531C61.4504 329.148 61.2114 328.754 60.9844 328.336L69.3962 323.258Z" fill="white"/>
<path d="M66.1347 317.57L66.7919 318.705L58.2008 323.557L57.5078 322.35L66.1347 317.57Z" fill="white"/>
<path d="M63.0833 311.766L63.6807 312.937L54.9223 317.465L54.2891 316.234L63.0833 311.766Z" fill="white"/>
<path d="M60.2152 305.875L60.7528 307.07L51.8272 311.276L51.2656 310.009L60.2152 305.875Z" fill="white"/>
<path d="M57.5148 299.867C57.6581 300.285 57.8493 300.68 58.0286 301.062L48.9596 304.945C48.7803 304.527 48.5772 304.109 48.4219 303.679L57.5148 299.867Z" fill="white"/>
<path d="M55.1269 293.781L55.6048 295L46.4044 298.549L45.8906 297.258L55.1269 293.781Z" fill="white"/>
<path d="M52.9417 287.586L53.3599 288.829L44.028 292.043L43.5859 290.74L52.9417 287.586Z" fill="white"/>
<path d="M50.9477 281.344L51.3061 282.61L41.8667 285.478L41.4844 284.152L50.9477 281.344Z" fill="white"/>
<path d="M49.1448 275.031L49.5033 276.298L39.9683 278.819L39.5859 277.493L49.1448 275.031Z" fill="white"/>
<path d="M47.6696 268.641L47.9683 269.919L38.3497 272.094L38.0391 270.756L47.6696 268.641Z" fill="white"/>
<path d="M46.3898 262.203L46.6287 263.494L36.9384 265.334L36.6875 263.972L46.3898 262.203Z" fill="white"/>
<path d="M45.3167 255.734L45.484 257.037L35.7339 258.506L35.5547 257.144L45.3167 255.734Z" fill="white"/>
<path d="M44.4817 249.219L44.6489 250.521L34.8511 251.644L34.6719 250.27L44.4817 249.219Z" fill="white"/>
<path d="M43.9316 242.688L44.0272 243.99L34.1935 244.767L34.0859 243.392L43.9316 242.688Z" fill="white"/>
<path d="M43.5842 236.133L43.62 237.447L33.7624 237.865L33.7266 236.491L43.5842 236.133Z" fill="white"/>
<path d="M43.4164 229.555L43.4523 230.869L33.5827 230.941L33.5469 229.555H43.4164Z" fill="white"/>
<path d="M225.12 445.592C106.005 445.592 9.10156 348.689 9.10156 229.573C9.10156 110.458 106.005 13.5547 225.12 13.5547C344.236 13.5547 441.139 110.458 441.139 229.573C441.139 348.689 344.236 445.592 225.12 445.592ZM225.12 14.8571C106.722 14.8571 10.404 111.175 10.404 229.573C10.404 347.972 106.722 444.289 225.12 444.289C343.519 444.289 439.837 347.972 439.837 229.573C439.837 111.175 343.519 14.8571 225.12 14.8571Z" fill="#B0BFFF"/>
<path d="M218.17 430.531L203.438 445.264L218.17 459.996V430.531Z" fill="url(#paint4_linear_1091_2051)" fill-opacity="0.2"/>
<path d="M209.795 430.531L195.062 445.264L209.795 459.996V430.531Z" fill="url(#paint5_linear_1091_2051)" fill-opacity="0.2"/>
<path d="M226.53 430.531L211.797 445.264L226.53 459.996V430.531Z" fill="url(#paint6_linear_1091_2051)"/>
<path d="M15.16 229.572C15.16 228.469 14.8327 227.39 14.2196 226.472C13.6065 225.554 12.735 224.839 11.7154 224.417C10.6957 223.995 9.5738 223.884 8.49139 224.099C7.40898 224.315 6.41472 224.846 5.63434 225.627C4.85397 226.407 4.32253 227.401 4.10722 228.484C3.89192 229.566 4.00242 230.688 4.42475 231.708C4.84709 232.727 5.56229 233.599 6.47991 234.212C7.39754 234.825 8.47638 235.152 9.57999 235.152C11.0599 235.152 12.4792 234.564 13.5256 233.518C14.5721 232.471 15.16 231.052 15.16 229.572Z" fill="#B0BFFF"/>
<path d="M435.344 229.572C435.344 228.469 435.671 227.39 436.284 226.472C436.897 225.554 437.769 224.839 438.788 224.417C439.808 223.995 440.93 223.884 442.012 224.099C443.095 224.315 444.089 224.846 444.869 225.627C445.65 226.407 446.181 227.401 446.396 228.484C446.612 229.566 446.501 230.688 446.079 231.708C445.657 232.727 444.941 233.599 444.024 234.212C443.106 234.825 442.027 235.152 440.924 235.152C439.444 235.152 438.025 234.564 436.978 233.518C435.932 232.471 435.344 231.052 435.344 229.572Z" fill="#B0BFFF"/>
</g>
<defs>
<filter id="filter0_d_1091_2051" x="0" y="0" width="450.5" height="468" filterUnits="userSpaceOnUse" color-interpolation-filters="sRGB">
<feFlood flood-opacity="0" result="BackgroundImageFix"/>
<feColorMatrix in="SourceAlpha" type="matrix" values="0 0 0 0 0 0 0 0 0 0 0 0 0 0 0 0 0 0 127 0" result="hardAlpha"/>
<feOffset dy="4"/>
<feGaussianBlur stdDeviation="2"/>
<feComposite in2="hardAlpha" operator="out"/>
<feColorMatrix type="matrix" values="0 0 0 0 0 0 0 0 0 0 0 0 0 0 0 0 0 0 0.25 0"/>
<feBlend mode="normal" in2="BackgroundImageFix" result="effect1_dropShadow_1091_2051"/>
<feBlend mode="normal" in="SourceGraphic" in2="effect1_dropShadow_1091_2051" result="shape"/>
</filter>
<filter id="filter1_d_1091_2051" x="58.3344" y="65.9984" width="333.269" height="332.269" filterUnits="userSpaceOnUse" color-interpolation-filters="sRGB">
<feFlood flood-opacity="0" result="BackgroundImageFix"/>
<feColorMatrix in="SourceAlpha" type="matrix" values="0 0 0 0 0 0 0 0 0 0 0 0 0 0 0 0 0 0 127 0" result="hardAlpha"/>
<feOffset dy="3"/>
<feGaussianBlur stdDeviation="4.2"/>
<feComposite in2="hardAlpha" operator="out"/>
<feColorMatrix type="matrix" values="0 0 0 0 0 0 0 0 0 0 0 0 0 0 0 0 0 0 0.5 0"/>
<feBlend mode="normal" in2="BackgroundImageFix" result="effect1_dropShadow_1091_2051"/>
<feBlend mode="normal" in="SourceGraphic" in2="effect1_dropShadow_1091_2051" result="shape"/>
</filter>
<linearGradient id="paint0_linear_1091_2051" x1="225.033" y1="71.4366" x2="225.033" y2="386.858" gradientUnits="userSpaceOnUse">
<stop stop-color="#CE9E1E"/>
<stop offset="1" stop-color="#794F00"/>
</linearGradient>
<linearGradient id="paint1_linear_1091_2051" x1="241.065" y1="0.00356343" x2="241.065" y2="29.4526" gradientUnits="userSpaceOnUse">
<stop stop-color="#B0BFFF"/>
<stop offset="1" stop-color="#09457F"/>
</linearGradient>
<linearGradient id="paint2_linear_1091_2051" x1="249.432" y1="0.00356343" x2="249.432" y2="29.4526" gradientUnits="userSpaceOnUse">
<stop stop-color="#B0BFFF"/>
<stop offset="1" stop-color="#09457F"/>
</linearGradient>
<linearGradient id="paint3_linear_1091_2051" x1="232.697" y1="0.00356343" x2="232.697" y2="29.4526" gradientUnits="userSpaceOnUse">
<stop stop-color="#B0BFFF"/>
<stop offset="1" stop-color="#043673"/>
</linearGradient>
<linearGradient id="paint4_linear_1091_2051" x1="210.807" y1="430.535" x2="210.807" y2="459.996" gradientUnits="userSpaceOnUse">
<stop stop-color="#B0BFFF"/>
<stop offset="1" stop-color="#09457F"/>
</linearGradient>
<linearGradient id="paint5_linear_1091_2051" x1="202.432" y1="430.535" x2="202.432" y2="459.996" gradientUnits="userSpaceOnUse">
<stop stop-color="#B0BFFF"/>
<stop offset="1" stop-color="#09457F"/>
</linearGradient>
<linearGradient id="paint6_linear_1091_2051" x1="219.166" y1="430.535" x2="219.166" y2="459.996" gradientUnits="userSpaceOnUse">
<stop stop-color="#B0BFFF"/>
<stop offset="1" stop-color="#043673"/>
</linearGradient>
</defs>
</svg>
